<?xml version="1.0" encoding="utf-8" standalone="no"?>
<!DOCTYPE svg PUBLIC "-//W3C//DTD SVG 1.1//EN"
  "http://www.w3.org/Graphics/SVG/1.1/DTD/svg11.dtd">
<svg xmlns:xlink="http://www.w3.org/1999/xlink" width="432pt" height="288pt" viewBox="0 0 432 288" xmlns="http://www.w3.org/2000/svg" version="1.1">
 <metadata>
  <rdf:RDF xmlns:dc="http://purl.org/dc/elements/1.1/" xmlns:cc="http://creativecommons.org/ns#" xmlns:rdf="http://www.w3.org/1999/02/22-rdf-syntax-ns#">
   <cc:Work>
    <dc:type rdf:resource="http://purl.org/dc/dcmitype/StillImage"/>
    <dc:date>2022-08-04T21:28:27.950560</dc:date>
    <dc:format>image/svg+xml</dc:format>
    <dc:creator>
     <cc:Agent>
      <dc:title>Matplotlib v3.5.2, https://matplotlib.org/</dc:title>
     </cc:Agent>
    </dc:creator>
   </cc:Work>
  </rdf:RDF>
 </metadata>
 <defs>
  <style type="text/css">*{stroke-linejoin: round; stroke-linecap: butt}</style>
 </defs>
 <g id="figure_1">
  <g id="patch_1">
   <path d="M 0 288
L 432 288
L 432 0
L 0 0
z
" style="fill: #ffffff"/>
  </g>
  <g id="axes_1">
   <g id="patch_2">
    <path d="M 54 256.32
L 388.8 256.32
L 388.8 34.56
L 54 34.56
z
" style="fill: #ffffff"/>
   </g>
   <g id="matplotlib.axis_1">
    <g id="xtick_1">
     <g id="line2d_1">
      <defs>
       <path id="m90c990f87c" d="M 0 0
L 0 3.5
" style="stroke: #000000; stroke-width: 0.8"/>
      </defs>
      <g>
       <use xlink:href="#m90c990f87c" x="54" y="256.32" style="stroke: #000000; stroke-width: 0.8"/>
      </g>
     </g>
     <g id="text_1">
      <!-- −35 -->
      <g transform="translate(43.447656 270.918437)scale(0.1 -0.1)">
       <defs>
        <path id="DejaVuSans-2212" d="M 678 2272
L 4684 2272
L 4684 1741
L 678 1741
L 678 2272
z
" transform="scale(0.015625)"/>
        <path id="DejaVuSans-33" d="M 2597 2516
Q 3050 2419 3304 2112
Q 3559 1806 3559 1356
Q 3559 666 3084 287
Q 2609 -91 1734 -91
Q 1441 -91 1130 -33
Q 819 25 488 141
L 488 750
Q 750 597 1062 519
Q 1375 441 1716 441
Q 2309 441 2620 675
Q 2931 909 2931 1356
Q 2931 1769 2642 2001
Q 2353 2234 1838 2234
L 1294 2234
L 1294 2753
L 1863 2753
Q 2328 2753 2575 2939
Q 2822 3125 2822 3475
Q 2822 3834 2567 4026
Q 2313 4219 1838 4219
Q 1578 4219 1281 4162
Q 984 4106 628 3988
L 628 4550
Q 988 4650 1302 4700
Q 1616 4750 1894 4750
Q 2613 4750 3031 4423
Q 3450 4097 3450 3541
Q 3450 3153 3228 2886
Q 3006 2619 2597 2516
z
" transform="scale(0.015625)"/>
        <path id="DejaVuSans-35" d="M 691 4666
L 3169 4666
L 3169 4134
L 1269 4134
L 1269 2991
Q 1406 3038 1543 3061
Q 1681 3084 1819 3084
Q 2600 3084 3056 2656
Q 3513 2228 3513 1497
Q 3513 744 3044 326
Q 2575 -91 1722 -91
Q 1428 -91 1123 -41
Q 819 9 494 109
L 494 744
Q 775 591 1075 516
Q 1375 441 1709 441
Q 2250 441 2565 725
Q 2881 1009 2881 1497
Q 2881 1984 2565 2268
Q 2250 2553 1709 2553
Q 1456 2553 1204 2497
Q 953 2441 691 2322
L 691 4666
z
" transform="scale(0.015625)"/>
       </defs>
       <use xlink:href="#DejaVuSans-2212"/>
       <use xlink:href="#DejaVuSans-33" x="83.789062"/>
       <use xlink:href="#DejaVuSans-35" x="147.412109"/>
      </g>
     </g>
    </g>
    <g id="xtick_2">
     <g id="line2d_2">
      <g>
       <use xlink:href="#m90c990f87c" x="91.2" y="256.32" style="stroke: #000000; stroke-width: 0.8"/>
      </g>
     </g>
     <g id="text_2">
      <!-- −30 -->
      <g transform="translate(80.647656 270.918437)scale(0.1 -0.1)">
       <defs>
        <path id="DejaVuSans-30" d="M 2034 4250
Q 1547 4250 1301 3770
Q 1056 3291 1056 2328
Q 1056 1369 1301 889
Q 1547 409 2034 409
Q 2525 409 2770 889
Q 3016 1369 3016 2328
Q 3016 3291 2770 3770
Q 2525 4250 2034 4250
z
M 2034 4750
Q 2819 4750 3233 4129
Q 3647 3509 3647 2328
Q 3647 1150 3233 529
Q 2819 -91 2034 -91
Q 1250 -91 836 529
Q 422 1150 422 2328
Q 422 3509 836 4129
Q 1250 4750 2034 4750
z
" transform="scale(0.015625)"/>
       </defs>
       <use xlink:href="#DejaVuSans-2212"/>
       <use xlink:href="#DejaVuSans-33" x="83.789062"/>
       <use xlink:href="#DejaVuSans-30" x="147.412109"/>
      </g>
     </g>
    </g>
    <g id="xtick_3">
     <g id="line2d_3">
      <g>
       <use xlink:href="#m90c990f87c" x="128.4" y="256.32" style="stroke: #000000; stroke-width: 0.8"/>
      </g>
     </g>
     <g id="text_3">
      <!-- −25 -->
      <g transform="translate(117.847656 270.918437)scale(0.1 -0.1)">
       <defs>
        <path id="DejaVuSans-32" d="M 1228 531
L 3431 531
L 3431 0
L 469 0
L 469 531
Q 828 903 1448 1529
Q 2069 2156 2228 2338
Q 2531 2678 2651 2914
Q 2772 3150 2772 3378
Q 2772 3750 2511 3984
Q 2250 4219 1831 4219
Q 1534 4219 1204 4116
Q 875 4013 500 3803
L 500 4441
Q 881 4594 1212 4672
Q 1544 4750 1819 4750
Q 2544 4750 2975 4387
Q 3406 4025 3406 3419
Q 3406 3131 3298 2873
Q 3191 2616 2906 2266
Q 2828 2175 2409 1742
Q 1991 1309 1228 531
z
" transform="scale(0.015625)"/>
       </defs>
       <use xlink:href="#DejaVuSans-2212"/>
       <use xlink:href="#DejaVuSans-32" x="83.789062"/>
       <use xlink:href="#DejaVuSans-35" x="147.412109"/>
      </g>
     </g>
    </g>
    <g id="xtick_4">
     <g id="line2d_4">
      <g>
       <use xlink:href="#m90c990f87c" x="165.6" y="256.32" style="stroke: #000000; stroke-width: 0.8"/>
      </g>
     </g>
     <g id="text_4">
      <!-- −20 -->
      <g transform="translate(155.047656 270.918437)scale(0.1 -0.1)">
       <use xlink:href="#DejaVuSans-2212"/>
       <use xlink:href="#DejaVuSans-32" x="83.789062"/>
       <use xlink:href="#DejaVuSans-30" x="147.412109"/>
      </g>
     </g>
    </g>
    <g id="xtick_5">
     <g id="line2d_5">
      <g>
       <use xlink:href="#m90c990f87c" x="202.8" y="256.32" style="stroke: #000000; stroke-width: 0.8"/>
      </g>
     </g>
     <g id="text_5">
      <!-- −15 -->
      <g transform="translate(192.247656 270.918437)scale(0.1 -0.1)">
       <defs>
        <path id="DejaVuSans-31" d="M 794 531
L 1825 531
L 1825 4091
L 703 3866
L 703 4441
L 1819 4666
L 2450 4666
L 2450 531
L 3481 531
L 3481 0
L 794 0
L 794 531
z
" transform="scale(0.015625)"/>
       </defs>
       <use xlink:href="#DejaVuSans-2212"/>
       <use xlink:href="#DejaVuSans-31" x="83.789062"/>
       <use xlink:href="#DejaVuSans-35" x="147.412109"/>
      </g>
     </g>
    </g>
    <g id="xtick_6">
     <g id="line2d_6">
      <g>
       <use xlink:href="#m90c990f87c" x="240" y="256.32" style="stroke: #000000; stroke-width: 0.8"/>
      </g>
     </g>
     <g id="text_6">
      <!-- −10 -->
      <g transform="translate(229.447656 270.918437)scale(0.1 -0.1)">
       <use xlink:href="#DejaVuSans-2212"/>
       <use xlink:href="#DejaVuSans-31" x="83.789062"/>
       <use xlink:href="#DejaVuSans-30" x="147.412109"/>
      </g>
     </g>
    </g>
    <g id="xtick_7">
     <g id="line2d_7">
      <g>
       <use xlink:href="#m90c990f87c" x="277.2" y="256.32" style="stroke: #000000; stroke-width: 0.8"/>
      </g>
     </g>
     <g id="text_7">
      <!-- −5 -->
      <g transform="translate(269.828906 270.918437)scale(0.1 -0.1)">
       <use xlink:href="#DejaVuSans-2212"/>
       <use xlink:href="#DejaVuSans-35" x="83.789062"/>
      </g>
     </g>
    </g>
    <g id="xtick_8">
     <g id="line2d_8">
      <g>
       <use xlink:href="#m90c990f87c" x="314.4" y="256.32" style="stroke: #000000; stroke-width: 0.8"/>
      </g>
     </g>
     <g id="text_8">
      <!-- 0 -->
      <g transform="translate(311.21875 270.918437)scale(0.1 -0.1)">
       <use xlink:href="#DejaVuSans-30"/>
      </g>
     </g>
    </g>
    <g id="xtick_9">
     <g id="line2d_9">
      <g>
       <use xlink:href="#m90c990f87c" x="351.6" y="256.32" style="stroke: #000000; stroke-width: 0.8"/>
      </g>
     </g>
     <g id="text_9">
      <!-- 5 -->
      <g transform="translate(348.41875 270.918437)scale(0.1 -0.1)">
       <use xlink:href="#DejaVuSans-35"/>
      </g>
     </g>
    </g>
    <g id="xtick_10">
     <g id="line2d_10">
      <g>
       <use xlink:href="#m90c990f87c" x="388.8" y="256.32" style="stroke: #000000; stroke-width: 0.8"/>
      </g>
     </g>
     <g id="text_10">
      <!-- 10 -->
      <g transform="translate(382.4375 270.918437)scale(0.1 -0.1)">
       <use xlink:href="#DejaVuSans-31"/>
       <use xlink:href="#DejaVuSans-30" x="63.623047"/>
      </g>
     </g>
    </g>
    <g id="text_11">
     <!-- Energy (eV) -->
     <g transform="translate(188.956875 285.356406)scale(0.11 -0.11)">
      <defs>
       <path id="DejaVuSans-45" d="M 628 4666
L 3578 4666
L 3578 4134
L 1259 4134
L 1259 2753
L 3481 2753
L 3481 2222
L 1259 2222
L 1259 531
L 3634 531
L 3634 0
L 628 0
L 628 4666
z
" transform="scale(0.015625)"/>
       <path id="DejaVuSans-6e" d="M 3513 2113
L 3513 0
L 2938 0
L 2938 2094
Q 2938 2591 2744 2837
Q 2550 3084 2163 3084
Q 1697 3084 1428 2787
Q 1159 2491 1159 1978
L 1159 0
L 581 0
L 581 3500
L 1159 3500
L 1159 2956
Q 1366 3272 1645 3428
Q 1925 3584 2291 3584
Q 2894 3584 3203 3211
Q 3513 2838 3513 2113
z
" transform="scale(0.015625)"/>
       <path id="DejaVuSans-65" d="M 3597 1894
L 3597 1613
L 953 1613
Q 991 1019 1311 708
Q 1631 397 2203 397
Q 2534 397 2845 478
Q 3156 559 3463 722
L 3463 178
Q 3153 47 2828 -22
Q 2503 -91 2169 -91
Q 1331 -91 842 396
Q 353 884 353 1716
Q 353 2575 817 3079
Q 1281 3584 2069 3584
Q 2775 3584 3186 3129
Q 3597 2675 3597 1894
z
M 3022 2063
Q 3016 2534 2758 2815
Q 2500 3097 2075 3097
Q 1594 3097 1305 2825
Q 1016 2553 972 2059
L 3022 2063
z
" transform="scale(0.015625)"/>
       <path id="DejaVuSans-72" d="M 2631 2963
Q 2534 3019 2420 3045
Q 2306 3072 2169 3072
Q 1681 3072 1420 2755
Q 1159 2438 1159 1844
L 1159 0
L 581 0
L 581 3500
L 1159 3500
L 1159 2956
Q 1341 3275 1631 3429
Q 1922 3584 2338 3584
Q 2397 3584 2469 3576
Q 2541 3569 2628 3553
L 2631 2963
z
" transform="scale(0.015625)"/>
       <path id="DejaVuSans-67" d="M 2906 1791
Q 2906 2416 2648 2759
Q 2391 3103 1925 3103
Q 1463 3103 1205 2759
Q 947 2416 947 1791
Q 947 1169 1205 825
Q 1463 481 1925 481
Q 2391 481 2648 825
Q 2906 1169 2906 1791
z
M 3481 434
Q 3481 -459 3084 -895
Q 2688 -1331 1869 -1331
Q 1566 -1331 1297 -1286
Q 1028 -1241 775 -1147
L 775 -588
Q 1028 -725 1275 -790
Q 1522 -856 1778 -856
Q 2344 -856 2625 -561
Q 2906 -266 2906 331
L 2906 616
Q 2728 306 2450 153
Q 2172 0 1784 0
Q 1141 0 747 490
Q 353 981 353 1791
Q 353 2603 747 3093
Q 1141 3584 1784 3584
Q 2172 3584 2450 3431
Q 2728 3278 2906 2969
L 2906 3500
L 3481 3500
L 3481 434
z
" transform="scale(0.015625)"/>
       <path id="DejaVuSans-79" d="M 2059 -325
Q 1816 -950 1584 -1140
Q 1353 -1331 966 -1331
L 506 -1331
L 506 -850
L 844 -850
Q 1081 -850 1212 -737
Q 1344 -625 1503 -206
L 1606 56
L 191 3500
L 800 3500
L 1894 763
L 2988 3500
L 3597 3500
L 2059 -325
z
" transform="scale(0.015625)"/>
       <path id="DejaVuSans-20" transform="scale(0.015625)"/>
       <path id="DejaVuSans-28" d="M 1984 4856
Q 1566 4138 1362 3434
Q 1159 2731 1159 2009
Q 1159 1288 1364 580
Q 1569 -128 1984 -844
L 1484 -844
Q 1016 -109 783 600
Q 550 1309 550 2009
Q 550 2706 781 3412
Q 1013 4119 1484 4856
L 1984 4856
z
" transform="scale(0.015625)"/>
       <path id="DejaVuSans-56" d="M 1831 0
L 50 4666
L 709 4666
L 2188 738
L 3669 4666
L 4325 4666
L 2547 0
L 1831 0
z
" transform="scale(0.015625)"/>
       <path id="DejaVuSans-29" d="M 513 4856
L 1013 4856
Q 1481 4119 1714 3412
Q 1947 2706 1947 2009
Q 1947 1309 1714 600
Q 1481 -109 1013 -844
L 513 -844
Q 928 -128 1133 580
Q 1338 1288 1338 2009
Q 1338 2731 1133 3434
Q 928 4138 513 4856
z
" transform="scale(0.015625)"/>
      </defs>
      <use xlink:href="#DejaVuSans-45"/>
      <use xlink:href="#DejaVuSans-6e" x="63.183594"/>
      <use xlink:href="#DejaVuSans-65" x="126.5625"/>
      <use xlink:href="#DejaVuSans-72" x="188.085938"/>
      <use xlink:href="#DejaVuSans-67" x="227.449219"/>
      <use xlink:href="#DejaVuSans-79" x="290.925781"/>
      <use xlink:href="#DejaVuSans-20" x="350.105469"/>
      <use xlink:href="#DejaVuSans-28" x="381.892578"/>
      <use xlink:href="#DejaVuSans-65" x="420.90625"/>
      <use xlink:href="#DejaVuSans-56" x="482.429688"/>
      <use xlink:href="#DejaVuSans-29" x="550.837891"/>
     </g>
    </g>
   </g>
   <g id="matplotlib.axis_2">
    <g id="ytick_1">
     <g id="line2d_11">
      <defs>
       <path id="m905e4678e9" d="M 0 0
L -3.5 0
" style="stroke: #000000; stroke-width: 0.8"/>
      </defs>
      <g>
       <use xlink:href="#m905e4678e9" x="54" y="234.485804" style="stroke: #000000; stroke-width: 0.8"/>
      </g>
     </g>
     <g id="text_12">
      <!-- −600 -->
      <g transform="translate(19.532812 238.285022)scale(0.1 -0.1)">
       <defs>
        <path id="DejaVuSans-36" d="M 2113 2584
Q 1688 2584 1439 2293
Q 1191 2003 1191 1497
Q 1191 994 1439 701
Q 1688 409 2113 409
Q 2538 409 2786 701
Q 3034 994 3034 1497
Q 3034 2003 2786 2293
Q 2538 2584 2113 2584
z
M 3366 4563
L 3366 3988
Q 3128 4100 2886 4159
Q 2644 4219 2406 4219
Q 1781 4219 1451 3797
Q 1122 3375 1075 2522
Q 1259 2794 1537 2939
Q 1816 3084 2150 3084
Q 2853 3084 3261 2657
Q 3669 2231 3669 1497
Q 3669 778 3244 343
Q 2819 -91 2113 -91
Q 1303 -91 875 529
Q 447 1150 447 2328
Q 447 3434 972 4092
Q 1497 4750 2381 4750
Q 2619 4750 2861 4703
Q 3103 4656 3366 4563
z
" transform="scale(0.015625)"/>
       </defs>
       <use xlink:href="#DejaVuSans-2212"/>
       <use xlink:href="#DejaVuSans-36" x="83.789062"/>
       <use xlink:href="#DejaVuSans-30" x="147.412109"/>
       <use xlink:href="#DejaVuSans-30" x="211.035156"/>
      </g>
     </g>
    </g>
    <g id="ytick_2">
     <g id="line2d_12">
      <g>
       <use xlink:href="#m905e4678e9" x="54" y="205.12415" style="stroke: #000000; stroke-width: 0.8"/>
      </g>
     </g>
     <g id="text_13">
      <!-- −400 -->
      <g transform="translate(19.532812 208.923369)scale(0.1 -0.1)">
       <defs>
        <path id="DejaVuSans-34" d="M 2419 4116
L 825 1625
L 2419 1625
L 2419 4116
z
M 2253 4666
L 3047 4666
L 3047 1625
L 3713 1625
L 3713 1100
L 3047 1100
L 3047 0
L 2419 0
L 2419 1100
L 313 1100
L 313 1709
L 2253 4666
z
" transform="scale(0.015625)"/>
       </defs>
       <use xlink:href="#DejaVuSans-2212"/>
       <use xlink:href="#DejaVuSans-34" x="83.789062"/>
       <use xlink:href="#DejaVuSans-30" x="147.412109"/>
       <use xlink:href="#DejaVuSans-30" x="211.035156"/>
      </g>
     </g>
    </g>
    <g id="ytick_3">
     <g id="line2d_13">
      <g>
       <use xlink:href="#m905e4678e9" x="54" y="175.762496" style="stroke: #000000; stroke-width: 0.8"/>
      </g>
     </g>
     <g id="text_14">
      <!-- −200 -->
      <g transform="translate(19.532812 179.561715)scale(0.1 -0.1)">
       <use xlink:href="#DejaVuSans-2212"/>
       <use xlink:href="#DejaVuSans-32" x="83.789062"/>
       <use xlink:href="#DejaVuSans-30" x="147.412109"/>
       <use xlink:href="#DejaVuSans-30" x="211.035156"/>
      </g>
     </g>
    </g>
    <g id="ytick_4">
     <g id="line2d_14">
      <g>
       <use xlink:href="#m905e4678e9" x="54" y="146.400843" style="stroke: #000000; stroke-width: 0.8"/>
      </g>
     </g>
     <g id="text_15">
      <!-- 0 -->
      <g transform="translate(40.6375 150.200062)scale(0.1 -0.1)">
       <use xlink:href="#DejaVuSans-30"/>
      </g>
     </g>
    </g>
    <g id="ytick_5">
     <g id="line2d_15">
      <g>
       <use xlink:href="#m905e4678e9" x="54" y="117.039189" style="stroke: #000000; stroke-width: 0.8"/>
      </g>
     </g>
     <g id="text_16">
      <!-- 200 -->
      <g transform="translate(27.9125 120.838408)scale(0.1 -0.1)">
       <use xlink:href="#DejaVuSans-32"/>
       <use xlink:href="#DejaVuSans-30" x="63.623047"/>
       <use xlink:href="#DejaVuSans-30" x="127.246094"/>
      </g>
     </g>
    </g>
    <g id="ytick_6">
     <g id="line2d_16">
      <g>
       <use xlink:href="#m905e4678e9" x="54" y="87.677536" style="stroke: #000000; stroke-width: 0.8"/>
      </g>
     </g>
     <g id="text_17">
      <!-- 400 -->
      <g transform="translate(27.9125 91.476754)scale(0.1 -0.1)">
       <use xlink:href="#DejaVuSans-34"/>
       <use xlink:href="#DejaVuSans-30" x="63.623047"/>
       <use xlink:href="#DejaVuSans-30" x="127.246094"/>
      </g>
     </g>
    </g>
    <g id="ytick_7">
     <g id="line2d_17">
      <g>
       <use xlink:href="#m905e4678e9" x="54" y="58.315882" style="stroke: #000000; stroke-width: 0.8"/>
      </g>
     </g>
     <g id="text_18">
      <!-- 600 -->
      <g transform="translate(27.9125 62.115101)scale(0.1 -0.1)">
       <use xlink:href="#DejaVuSans-36"/>
       <use xlink:href="#DejaVuSans-30" x="63.623047"/>
       <use xlink:href="#DejaVuSans-30" x="127.246094"/>
      </g>
     </g>
    </g>
    <g id="text_19">
     <!-- Density of States (a.u.) -->
     <g transform="translate(13.245156 208.962422)rotate(-90)scale(0.11 -0.11)">
      <defs>
       <path id="DejaVuSans-44" d="M 1259 4147
L 1259 519
L 2022 519
Q 2988 519 3436 956
Q 3884 1394 3884 2338
Q 3884 3275 3436 3711
Q 2988 4147 2022 4147
L 1259 4147
z
M 628 4666
L 1925 4666
Q 3281 4666 3915 4102
Q 4550 3538 4550 2338
Q 4550 1131 3912 565
Q 3275 0 1925 0
L 628 0
L 628 4666
z
" transform="scale(0.015625)"/>
       <path id="DejaVuSans-73" d="M 2834 3397
L 2834 2853
Q 2591 2978 2328 3040
Q 2066 3103 1784 3103
Q 1356 3103 1142 2972
Q 928 2841 928 2578
Q 928 2378 1081 2264
Q 1234 2150 1697 2047
L 1894 2003
Q 2506 1872 2764 1633
Q 3022 1394 3022 966
Q 3022 478 2636 193
Q 2250 -91 1575 -91
Q 1294 -91 989 -36
Q 684 19 347 128
L 347 722
Q 666 556 975 473
Q 1284 391 1588 391
Q 1994 391 2212 530
Q 2431 669 2431 922
Q 2431 1156 2273 1281
Q 2116 1406 1581 1522
L 1381 1569
Q 847 1681 609 1914
Q 372 2147 372 2553
Q 372 3047 722 3315
Q 1072 3584 1716 3584
Q 2034 3584 2315 3537
Q 2597 3491 2834 3397
z
" transform="scale(0.015625)"/>
       <path id="DejaVuSans-69" d="M 603 3500
L 1178 3500
L 1178 0
L 603 0
L 603 3500
z
M 603 4863
L 1178 4863
L 1178 4134
L 603 4134
L 603 4863
z
" transform="scale(0.015625)"/>
       <path id="DejaVuSans-74" d="M 1172 4494
L 1172 3500
L 2356 3500
L 2356 3053
L 1172 3053
L 1172 1153
Q 1172 725 1289 603
Q 1406 481 1766 481
L 2356 481
L 2356 0
L 1766 0
Q 1100 0 847 248
Q 594 497 594 1153
L 594 3053
L 172 3053
L 172 3500
L 594 3500
L 594 4494
L 1172 4494
z
" transform="scale(0.015625)"/>
       <path id="DejaVuSans-6f" d="M 1959 3097
Q 1497 3097 1228 2736
Q 959 2375 959 1747
Q 959 1119 1226 758
Q 1494 397 1959 397
Q 2419 397 2687 759
Q 2956 1122 2956 1747
Q 2956 2369 2687 2733
Q 2419 3097 1959 3097
z
M 1959 3584
Q 2709 3584 3137 3096
Q 3566 2609 3566 1747
Q 3566 888 3137 398
Q 2709 -91 1959 -91
Q 1206 -91 779 398
Q 353 888 353 1747
Q 353 2609 779 3096
Q 1206 3584 1959 3584
z
" transform="scale(0.015625)"/>
       <path id="DejaVuSans-66" d="M 2375 4863
L 2375 4384
L 1825 4384
Q 1516 4384 1395 4259
Q 1275 4134 1275 3809
L 1275 3500
L 2222 3500
L 2222 3053
L 1275 3053
L 1275 0
L 697 0
L 697 3053
L 147 3053
L 147 3500
L 697 3500
L 697 3744
Q 697 4328 969 4595
Q 1241 4863 1831 4863
L 2375 4863
z
" transform="scale(0.015625)"/>
       <path id="DejaVuSans-53" d="M 3425 4513
L 3425 3897
Q 3066 4069 2747 4153
Q 2428 4238 2131 4238
Q 1616 4238 1336 4038
Q 1056 3838 1056 3469
Q 1056 3159 1242 3001
Q 1428 2844 1947 2747
L 2328 2669
Q 3034 2534 3370 2195
Q 3706 1856 3706 1288
Q 3706 609 3251 259
Q 2797 -91 1919 -91
Q 1588 -91 1214 -16
Q 841 59 441 206
L 441 856
Q 825 641 1194 531
Q 1563 422 1919 422
Q 2459 422 2753 634
Q 3047 847 3047 1241
Q 3047 1584 2836 1778
Q 2625 1972 2144 2069
L 1759 2144
Q 1053 2284 737 2584
Q 422 2884 422 3419
Q 422 4038 858 4394
Q 1294 4750 2059 4750
Q 2388 4750 2728 4690
Q 3069 4631 3425 4513
z
" transform="scale(0.015625)"/>
       <path id="DejaVuSans-61" d="M 2194 1759
Q 1497 1759 1228 1600
Q 959 1441 959 1056
Q 959 750 1161 570
Q 1363 391 1709 391
Q 2188 391 2477 730
Q 2766 1069 2766 1631
L 2766 1759
L 2194 1759
z
M 3341 1997
L 3341 0
L 2766 0
L 2766 531
Q 2569 213 2275 61
Q 1981 -91 1556 -91
Q 1019 -91 701 211
Q 384 513 384 1019
Q 384 1609 779 1909
Q 1175 2209 1959 2209
L 2766 2209
L 2766 2266
Q 2766 2663 2505 2880
Q 2244 3097 1772 3097
Q 1472 3097 1187 3025
Q 903 2953 641 2809
L 641 3341
Q 956 3463 1253 3523
Q 1550 3584 1831 3584
Q 2591 3584 2966 3190
Q 3341 2797 3341 1997
z
" transform="scale(0.015625)"/>
       <path id="DejaVuSans-2e" d="M 684 794
L 1344 794
L 1344 0
L 684 0
L 684 794
z
" transform="scale(0.015625)"/>
       <path id="DejaVuSans-75" d="M 544 1381
L 544 3500
L 1119 3500
L 1119 1403
Q 1119 906 1312 657
Q 1506 409 1894 409
Q 2359 409 2629 706
Q 2900 1003 2900 1516
L 2900 3500
L 3475 3500
L 3475 0
L 2900 0
L 2900 538
Q 2691 219 2414 64
Q 2138 -91 1772 -91
Q 1169 -91 856 284
Q 544 659 544 1381
z
M 1991 3584
L 1991 3584
z
" transform="scale(0.015625)"/>
      </defs>
      <use xlink:href="#DejaVuSans-44"/>
      <use xlink:href="#DejaVuSans-65" x="77.001953"/>
      <use xlink:href="#DejaVuSans-6e" x="138.525391"/>
      <use xlink:href="#DejaVuSans-73" x="201.904297"/>
      <use xlink:href="#DejaVuSans-69" x="254.003906"/>
      <use xlink:href="#DejaVuSans-74" x="281.787109"/>
      <use xlink:href="#DejaVuSans-79" x="320.996094"/>
      <use xlink:href="#DejaVuSans-20" x="380.175781"/>
      <use xlink:href="#DejaVuSans-6f" x="411.962891"/>
      <use xlink:href="#DejaVuSans-66" x="473.144531"/>
      <use xlink:href="#DejaVuSans-20" x="508.349609"/>
      <use xlink:href="#DejaVuSans-53" x="540.136719"/>
      <use xlink:href="#DejaVuSans-74" x="603.613281"/>
      <use xlink:href="#DejaVuSans-61" x="642.822266"/>
      <use xlink:href="#DejaVuSans-74" x="704.101562"/>
      <use xlink:href="#DejaVuSans-65" x="743.310547"/>
      <use xlink:href="#DejaVuSans-73" x="804.833984"/>
      <use xlink:href="#DejaVuSans-20" x="856.933594"/>
      <use xlink:href="#DejaVuSans-28" x="888.720703"/>
      <use xlink:href="#DejaVuSans-61" x="927.734375"/>
      <use xlink:href="#DejaVuSans-2e" x="989.013672"/>
      <use xlink:href="#DejaVuSans-75" x="1020.800781"/>
      <use xlink:href="#DejaVuSans-2e" x="1084.179688"/>
      <use xlink:href="#DejaVuSans-29" x="1115.966797"/>
     </g>
    </g>
   </g>
   <g id="line2d_18">
    <path d="M 53.999461 146.400843
L 57.557482 146.290109
L 57.75544 145.94851
L 58.252069 144.708566
L 58.312846 144.752273
L 58.583735 144.890676
L 58.590681 144.883721
L 58.792111 144.511986
L 59.056054 144.227747
L 59.252275 144.303556
L 59.413766 144.642943
L 60.078833 146.364448
L 60.490376 146.400734
L 120.280424 146.400843
L 167.538387 146.291244
L 167.727662 145.94679
L 168.358 144.565366
L 168.839001 144.814953
L 169.215815 145.661692
L 169.267909 145.615371
L 169.441555 145.190155
L 169.675978 144.771619
L 169.69508 144.781917
L 169.816632 145.01331
L 170.398349 146.362083
L 170.802946 146.400613
L 171.839617 146.293387
L 172.023682 145.975014
L 172.473428 144.780322
L 172.556778 144.880514
L 172.770363 145.549249
L 173.096819 146.303977
L 173.372918 146.395483
L 174.282827 146.346481
L 174.477311 146.119126
L 174.711734 145.398896
L 174.993042 144.779883
L 174.996515 144.780914
L 175.09723 144.93185
L 175.734513 146.293175
L 175.743196 146.289544
L 175.90816 146.092453
L 176.154739 145.319938
L 176.413472 144.777877
L 176.420418 144.780428
L 176.52287 144.948917
L 177.182727 146.379481
L 177.755762 146.400831
L 181.284264 146.29155
L 181.471802 145.957651
L 181.923284 144.782901
L 181.987533 144.851902
L 182.164653 145.399312
L 182.525838 146.292608
L 182.788044 146.393201
L 184.036565 146.400844
L 184.878751 146.291433
L 185.054134 145.955657
L 185.298976 144.894406
L 185.680999 143.397515
L 185.814707 143.437061
L 186.080387 143.908101
L 186.337384 144.695439
L 186.830541 146.274654
L 187.084065 146.391834
L 188.197141 146.400843
L 191.248114 146.290804
L 191.43218 145.960258
L 191.88887 144.780698
L 191.95312 144.851149
L 192.137185 145.405545
L 192.489688 146.292326
L 192.762314 146.393025
L 193.123499 146.304043
L 193.309301 145.996503
L 193.778147 144.781139
L 193.852815 144.878398
L 194.094184 145.661574
L 194.403275 146.315118
L 194.684583 146.396708
L 195.488568 146.324826
L 195.676106 146.05901
L 195.957414 145.134363
L 196.164053 144.781623
L 196.177945 144.787827
L 196.287343 144.981932
L 196.88816 146.366616
L 197.261501 146.37744
L 197.490715 146.201695
L 197.692145 145.707257
L 198.05333 144.773704
L 198.072431 144.782938
L 198.188774 144.99854
L 198.63852 146.066022
L 198.664567 146.050764
L 198.800011 145.793288
L 199.201135 144.776103
L 199.258438 144.834903
L 199.437295 145.347646
L 199.821054 146.304262
L 200.097152 146.395519
L 201.906551 146.400843
L 203.203693 146.291294
L 203.399913 145.938577
L 203.844449 144.782186
L 203.917381 144.867043
L 204.118811 145.496282
L 204.450476 146.296511
L 204.723102 146.394826
L 206.2182 146.400843
L 248.91099 146.290403
L 249.096792 145.970953
L 249.555219 144.779322
L 249.621205 144.858728
L 249.831317 145.51925
L 250.169929 146.30581
L 250.44429 146.395678
L 252.427336 146.400843
L 253.500473 146.291316
L 253.642864 145.945027
L 253.813037 144.80963
L 254.038778 141.4889
L 254.358288 137.688203
L 254.408646 137.80887
L 254.521516 138.870971
L 255.172691 146.172423
L 255.388013 146.376606
L 255.879434 146.400815
L 258.392102 146.290481
L 258.577904 145.955183
L 259.024176 144.780639
L 259.102317 144.872925
L 259.30722 145.508114
L 259.642359 146.30194
L 259.916721 146.395244
L 261.545527 146.400842
L 262.434598 146.291176
L 262.576989 145.926548
L 262.731534 144.792412
L 262.913863 141.406463
L 263.398338 130.148518
L 263.452168 130.366739
L 263.566775 132.256945
L 264.263099 145.926344
L 264.485366 146.343915
L 264.775357 146.399316
L 266.596911 146.3277
L 266.746247 146.072873
L 266.893847 145.246145
L 267.081385 142.607859
L 267.459935 136.905827
L 267.492928 136.988791
L 267.591907 138.026632
L 268.243082 146.247275
L 268.463614 146.389052
L 269.22245 146.400843
L 270.222655 146.291046
L 270.384147 145.961303
L 270.55953 144.951038
L 270.807845 141.991714
L 271.22286 137.10748
L 271.229806 137.10979
L 271.285373 137.276847
L 271.412135 138.590695
L 272.049419 146.148496
L 272.268214 146.374345
L 272.70754 146.400704
L 273.214589 146.291062
L 273.372607 145.965796
L 273.565355 144.904558
L 274.490892 138.761696
L 274.732261 138.664193
L 274.970157 138.786764
L 275.143804 139.12219
L 275.317451 140.054108
L 275.636961 142.286287
L 275.690791 142.139342
L 275.794979 140.956853
L 275.996409 135.386861
L 276.296818 128.863336
L 276.303764 128.868978
L 276.348912 129.160315
L 276.473938 131.889487
L 277.001824 144.325437
L 277.085175 144.442028
L 277.135532 144.388
L 277.389056 143.726373
L 277.734613 142.479349
L 278.219088 140.382405
L 278.335431 140.485399
L 278.858108 141.117187
L 279.002235 140.909817
L 279.158517 140.218157
L 279.354738 138.135104
L 279.952082 131.063913
L 280.047588 131.134872
L 280.176087 131.259951
L 280.217762 131.201242
L 280.325423 130.682683
L 280.658825 127.958862
L 280.742175 128.328869
L 280.903667 130.652844
L 281.270061 135.686649
L 281.28048 135.680537
L 281.344729 135.44402
L 281.506221 133.745685
L 281.912554 129.822985
L 282.463014 126.900195
L 282.567202 127.141949
L 282.84851 128.594476
L 282.930124 128.269613
L 283.063832 126.230983
L 283.46322 118.61497
L 283.518787 118.800706
L 283.652495 120.390597
L 284.159543 126.77524
L 284.16128 126.774973
L 284.21511 126.644242
L 284.324507 125.596345
L 284.498154 121.401863
L 284.973946 104.474851
L 285.064243 105.583269
L 285.227471 112.367935
L 285.692844 131.86471
L 285.739728 132.082069
L 285.795295 131.802593
L 285.923794 129.435906
L 286.222466 118.870448
L 286.535031 111.047963
L 286.566287 110.978784
L 286.616645 111.18774
L 286.765981 113.235254
L 286.944837 115.037217
L 286.983039 114.933428
L 287.094173 113.764549
L 287.318177 111.128644
L 287.368535 111.323435
L 287.474459 113.018928
L 287.78876 119.895361
L 287.849536 119.414085
L 287.976299 115.742299
L 288.294072 104.915052
L 288.33922 105.260744
L 288.448618 108.686118
L 288.97824 131.276141
L 289.044226 130.897663
L 289.193562 128.005656
L 290.093052 106.409308
L 290.146883 106.706268
L 290.259753 109.161738
L 290.660877 120.80928
L 290.719917 120.44513
L 290.843206 117.529684
L 291.178345 109.314437
L 291.206128 109.362353
L 291.313789 110.132526
L 291.411031 110.659703
L 291.459652 110.449107
L 291.56905 108.413536
L 291.85904 101.405957
L 291.923289 101.902726
L 292.055261 105.702743
L 292.241063 110.047779
L 292.277529 109.803459
L 292.366088 107.067058
L 292.595302 90.772986
L 292.78805 83.13463
L 292.807151 83.207557
L 292.874873 84.632551
L 293.088459 95.511762
L 293.265579 100.603753
L 293.293362 100.489923
L 293.376712 98.837252
L 293.816039 85.212036
L 293.913281 85.771526
L 294.121657 87.432456
L 294.175488 87.278657
L 294.284885 85.993438
L 294.52799 79.789509
L 294.903067 71.935802
L 294.975999 71.706751
L 295.028093 71.837416
L 295.144436 72.935449
L 295.46221 78.798953
L 295.762619 88.050042
L 296.649954 119.13394
L 296.672528 119.13301
L 296.707257 119.042471
L 296.813182 118.117586
L 297.004193 114.11184
L 297.313284 102.127635
L 297.922784 76.968433
L 297.92973 76.972577
L 297.980088 77.204504
L 298.105113 79.111323
L 298.48019 89.599546
L 298.874369 98.039362
L 298.914307 98.146864
L 298.966401 97.945715
L 299.086218 96.193874
L 299.376208 91.179489
L 299.423092 91.385349
L 299.530753 93.326912
L 299.985708 103.28071
L 300.02391 103.184752
L 300.115943 102.137417
L 300.28438 97.130862
L 300.824422 79.501358
L 300.862624 79.546097
L 300.878252 79.596072
L 301.036271 80.618064
L 301.578048 85.299689
L 302.062523 98.06772
L 302.156292 97.144402
L 302.310838 92.008812
L 302.553943 75.318084
L 303.01758 44.668231
L 303.029735 44.64
L 303.067937 44.922759
L 303.163443 48.033047
L 303.937908 90.651286
L 304.517888 134.958951
L 304.623812 135.807055
L 304.670697 135.682412
L 304.790513 134.499872
L 305.158644 130.231787
L 305.202056 130.325501
L 305.314926 131.277691
L 305.728206 135.717315
L 305.782036 135.615819
L 305.898379 134.759643
L 306.315132 130.384132
L 306.3898 130.628155
L 306.530454 132.31815
L 307.263243 143.646957
L 307.325756 143.551554
L 307.464673 142.797889
L 308.688883 134.158882
L 308.718403 134.186202
L 308.806963 134.555649
L 308.971927 136.449973
L 309.571008 144.055026
L 309.631785 144.072277
L 309.676933 144.011787
L 309.867944 143.407815
L 310.161407 142.746188
L 310.263859 142.868718
L 310.503491 143.685095
L 310.711867 144.018143
L 310.717077 144.01639
L 310.838629 143.851702
L 311.135565 142.921096
L 311.333523 142.62921
L 311.347414 142.635685
L 311.484595 142.846074
L 311.668661 143.063021
L 311.698181 143.041452
L 311.844044 142.736804
L 312.040265 142.429289
L 312.066312 142.446727
L 312.184392 142.717168
L 312.418815 143.964332
L 312.821675 145.831586
L 312.910235 145.841495
L 312.941492 145.801561
L 313.076936 145.360759
L 313.285312 143.785989
L 313.613505 139.280755
L 314.130972 131.572905
L 314.177856 131.700103
L 314.280308 132.891438
L 314.52515 139.112908
L 314.853342 145.122777
L 315.040881 145.849225
L 315.047827 145.847647
L 315.138123 145.699502
L 315.304824 144.881082
L 315.641699 143.244118
L 315.662536 143.255389
L 315.754569 143.499291
L 315.999411 145.042773
L 316.303293 146.223716
L 316.527297 146.374939
L 316.773875 146.289734
L 316.961414 145.949423
L 317.405949 144.780182
L 317.484091 144.8693
L 317.706358 145.522294
L 317.857431 145.774499
L 317.893897 145.737884
L 317.996348 145.342641
L 318.156103 143.641169
L 318.411364 137.896898
L 318.706564 133.259803
L 318.76734 133.151729
L 318.822907 133.249668
L 318.972243 134.097349
L 319.305645 137.46508
L 319.684195 140.751206
L 320.007178 141.722155
L 320.238128 142.518858
L 320.653144 144.619682
L 320.727812 144.481001
L 320.864993 143.581281
L 321.257434 140.7308
L 321.283481 140.753154
L 321.368568 141.101594
L 321.635984 143.569784
L 321.858252 144.665812
L 321.870407 144.661173
L 321.948548 144.466174
L 322.125668 143.247398
L 322.564994 139.770351
L 322.610143 139.833476
L 322.723013 140.448774
L 323.09288 143.048149
L 323.144975 142.962169
L 323.252636 142.225408
L 323.466221 138.773619
L 323.818724 133.593308
L 323.836089 133.610676
L 323.905547 133.996754
L 324.070512 136.491674
L 324.471636 142.109579
L 324.709532 142.59615
L 325.12802 143.395297
L 325.178378 143.351227
L 325.339869 142.960322
L 325.688899 141.920658
L 325.740993 141.9846
L 325.872965 142.522516
L 326.215049 144.232094
L 326.265407 144.16442
L 326.390432 143.552062
L 326.709942 140.523941
L 327.015561 138.636475
L 327.100647 138.589539
L 327.144059 138.633534
L 327.675418 139.188992
L 327.86643 139.555782
L 328.184203 140.725544
L 328.686042 142.654826
L 329.057646 143.710251
L 329.34069 144.428977
L 329.351109 144.425144
L 329.455297 144.245392
L 329.722713 143.137714
L 329.939772 142.746832
L 329.943245 142.747867
L 330.063061 142.906141
L 330.377362 143.505129
L 330.429456 143.447
L 330.566637 142.970063
L 330.853154 141.879425
L 330.887883 141.912104
L 330.995544 142.324727
L 331.396668 144.449755
L 331.46439 144.357152
L 331.639773 143.638553
L 332.042634 142.184033
L 332.287476 141.91429
L 332.532318 141.819698
L 332.705964 141.234392
L 332.895239 140.768916
L 332.924759 140.791442
L 333.022002 141.099694
L 333.303309 143.061472
L 333.584617 144.183569
L 334.096875 144.848686
L 334.192381 144.683408
L 334.40423 143.637279
L 334.588295 143.105046
L 334.616079 143.122546
L 334.728949 143.407852
L 334.907805 143.889561
L 334.952953 143.820362
L 335.050196 143.192694
L 335.227315 140.169887
L 335.734364 131.370382
L 335.767357 131.387425
L 335.79514 131.459221
L 335.918429 132.29973
L 336.777981 139.556828
L 336.929053 139.521462
L 337.153058 139.467867
L 337.16174 139.479728
L 337.298921 139.877152
L 337.557655 141.501032
L 337.832016 142.644387
L 338.016082 142.649799
L 338.144581 142.826992
L 338.43978 143.447287
L 338.502293 143.370334
L 338.667257 142.777405
L 338.981558 141.936128
L 339.177779 141.329473
L 339.60495 139.795982
L 339.636206 139.812301
L 339.856738 139.944263
L 339.893203 139.875177
L 340.019966 139.237742
L 340.344685 137.349706
L 340.39157 137.408346
L 340.507913 137.97336
L 341.093102 141.266736
L 341.393511 141.674628
L 341.593205 141.704884
L 341.721704 141.420239
L 341.909242 140.333704
L 342.371142 137.299602
L 342.400662 137.323103
L 342.494432 137.660852
L 342.685443 139.407171
L 343.077885 142.528935
L 343.29668 142.753414
L 343.473799 143.135365
L 343.626608 143.375196
L 343.664811 143.338803
L 343.772472 142.962491
L 344.012104 141.032838
L 344.277784 139.655824
L 344.355925 139.743165
L 344.491369 140.397686
L 344.955006 143.08648
L 344.991472 143.049787
L 345.107815 142.612783
L 345.463791 140.981759
L 345.512412 141.047237
L 345.640911 141.663773
L 346.071555 144.231796
L 346.125385 144.168886
L 346.257357 143.620784
L 346.556029 141.181607
L 346.896377 139.067617
L 346.950207 139.082047
L 346.981464 139.140969
L 347.122118 139.784505
L 347.439891 141.025399
L 347.53887 140.942418
L 347.700361 140.37711
L 348.155316 138.599805
L 348.184836 138.616598
L 348.311598 138.884621
L 348.566858 140.064203
L 348.954091 141.871597
L 348.98882 141.832932
L 349.087799 141.374
L 349.277074 139.201795
L 349.679934 134.866251
L 349.744183 134.960484
L 349.883101 135.755277
L 350.534276 139.926718
L 351.293112 143.403401
L 351.695973 146.052103
L 351.933869 146.364919
L 352.239487 146.3726
L 352.44439 146.1988
L 352.626719 145.658839
L 352.862879 144.137707
L 353.606087 137.618363
L 353.703329 137.903524
L 353.861348 139.470057
L 354.357978 144.777315
L 354.36145 144.776553
L 354.42049 144.639977
L 354.548989 143.61278
L 355.11855 137.247834
L 355.205374 137.354623
L 355.530093 137.758623
L 355.667274 137.887399
L 355.799246 138.459961
L 356.346233 141.239664
L 356.551136 141.252741
L 357.021719 140.977217
L 357.191892 140.439051
L 357.379431 138.963354
L 357.858696 134.948274
L 357.863905 134.949255
L 357.947256 135.091373
L 358.31886 136.482933
L 358.546337 137.917068
L 359.022129 142.243128
L 359.10548 141.97507
L 359.24787 140.386731
L 359.899045 131.853871
L 359.99976 131.739696
L 360.043172 131.789998
L 360.154306 132.250557
L 360.322743 134.105284
L 360.850629 140.341022
L 361.151038 141.620616
L 361.157984 141.618506
L 361.230916 141.458137
L 361.364624 140.452324
L 361.994962 134.943211
L 362.076575 134.987407
L 362.090467 135.013382
L 362.234594 135.566268
L 362.482909 136.516063
L 362.521111 136.465247
L 362.621826 135.913253
L 362.833675 133.16622
L 363.05768 131.345618
L 363.073308 131.355728
L 363.146239 131.630625
L 363.326832 133.420019
L 364.321828 144.222567
L 364.712533 146.045608
L 364.953902 146.351331
L 365.183116 146.320318
L 365.330716 146.063674
L 365.499153 145.209362
L 365.70232 142.826883
L 366.299664 135.002802
L 366.346549 134.994864
L 366.389961 135.065088
L 366.5966 135.834678
L 366.732045 136.092542
L 366.771984 136.047852
L 366.872699 135.598363
L 367.037663 133.608604
L 367.490881 126.482691
L 367.549921 126.686227
L 367.674947 128.316866
L 368.135111 134.971011
L 368.149002 134.966221
L 368.367797 134.763175
L 368.421628 134.911641
L 368.669943 136.393067
L 368.805387 136.692317
L 368.843589 136.668341
L 368.987716 136.596369
L 369.020709 136.65246
L 369.126633 137.195408
L 369.328064 139.795332
L 369.677094 143.565668
L 369.835112 143.763538
L 369.847267 143.759359
L 370.097319 143.776223
L 370.269229 144.241022
L 370.590476 144.961752
L 370.708555 144.815201
L 371.328474 143.244993
L 371.51254 141.366446
L 371.964021 134.199026
L 372.063 134.775931
L 372.257484 138.367364
L 372.549211 142.141764
L 372.596095 142.190818
L 372.64819 142.094526
L 372.780161 141.282778
L 373.207332 138.101166
L 373.25248 138.163779
L 373.360141 138.777229
L 374.351664 146.141967
L 374.598242 146.371551
L 375.054933 146.400804
L 388.80081 146.400843
L 388.80081 146.400843
" clip-path="url(#p99bd1fbef8)" style="fill: none; stroke: #ed0345; stroke-width: 2; stroke-linecap: square"/>
   </g>
   <g id="line2d_19">
    <path d="M 53.999461 146.400843
L 60.844615 146.510301
L 61.032154 146.850948
L 61.523574 148.088829
L 61.591296 148.036052
L 61.860449 147.857186
L 61.87955 147.876378
L 62.100081 148.29179
L 62.362288 148.566807
L 62.561982 148.480601
L 62.72521 148.127369
L 63.367703 146.441338
L 63.73757 146.401228
L 81.621449 146.400843
L 168.408357 146.510974
L 168.594159 146.844302
L 169.328685 148.56278
L 169.493649 148.389221
L 169.731545 147.656237
L 169.992016 147.132129
L 169.997225 147.133932
L 170.106622 147.301078
L 170.457389 148.022382
L 170.504273 147.979482
L 170.651873 147.573624
L 171.063416 146.505765
L 171.325623 146.407235
L 172.466482 146.429832
L 172.692222 146.619795
L 172.893653 147.146946
L 173.240946 148.026902
L 173.256574 148.020043
L 173.367708 147.823034
L 173.977208 146.433343
L 174.400906 146.400997
L 174.963522 146.510725
L 175.147587 146.84384
L 175.595596 148.023393
L 175.670264 147.933741
L 175.880377 147.283595
L 176.205096 146.535236
L 176.380479 146.55412
L 176.54718 146.85812
L 176.989979 148.023594
L 177.064648 147.935115
L 177.273024 147.29221
L 177.609898 146.498371
L 177.885997 146.406252
L 179.606836 146.400843
L 181.301628 146.510826
L 181.489167 146.84705
L 181.940648 148.019976
L 182.001425 147.955319
L 182.182017 147.401952
L 182.546675 146.504793
L 182.814091 146.407528
L 184.170273 146.400843
L 187.384474 146.51161
L 187.559857 146.863429
L 187.773443 147.890188
L 188.164148 149.703831
L 188.266599 149.606075
L 188.593055 148.73431
L 188.950767 147.350676
L 189.270278 146.528498
L 189.522065 146.410224
L 190.595202 146.400843
L 193.170383 146.511783
L 193.354449 146.845151
L 193.804194 148.025345
L 193.871916 147.945505
L 194.080292 147.300814
L 194.42064 146.498429
L 194.688056 146.413758
L 194.972837 146.530615
L 195.160375 146.897905
L 195.58581 148.023268
L 195.64485 147.96582
L 195.806341 147.505046
L 196.186627 146.519563
L 196.447098 146.408446
L 197.204197 146.45079
L 197.398682 146.675259
L 197.640051 147.381608
L 197.919622 148.020615
L 197.926568 148.018173
L 198.035965 147.849415
L 198.713188 146.420377
L 199.022279 146.477951
L 199.209817 146.747723
L 199.701238 148.022678
L 199.800216 147.86934
L 200.246488 146.815979
L 200.310738 146.880913
L 200.494803 147.377723
L 200.779584 148.026035
L 200.796949 148.017082
L 200.916765 147.79219
L 201.51411 146.437291
L 201.930862 146.401016
L 204.551191 146.502658
L 204.740466 146.829899
L 205.195421 148.018326
L 205.278771 147.916015
L 205.497566 147.216174
L 205.813603 146.497136
L 206.089702 146.406054
L 207.796649 146.400843
L 248.91099 146.511025
L 249.096792 146.830016
L 249.555219 148.022247
L 249.622941 147.939801
L 249.838263 147.258908
L 250.169929 146.49617
L 250.44429 146.406026
L 252.422127 146.400843
L 253.500473 146.510157
L 253.642864 146.855804
L 253.813037 147.989437
L 254.038778 151.306092
L 254.358288 155.110332
L 254.408646 154.991492
L 254.521516 153.933892
L 255.174428 146.62655
L 255.38975 146.424732
L 255.88638 146.40087
L 258.392102 146.510125
L 258.577904 146.843446
L 259.024176 148.021334
L 259.104054 147.927801
L 259.310693 147.285194
L 259.644095 146.499208
L 259.918457 146.406397
L 261.557682 146.400843
L 262.436335 146.510564
L 262.578725 146.875201
L 262.733271 148.01041
L 262.9156 151.405206
L 263.400074 162.66246
L 263.453905 162.433556
L 263.570248 160.487013
L 264.257889 146.901572
L 264.480157 146.462287
L 264.761465 146.402734
L 266.588229 146.466821
L 266.741038 146.710095
L 266.886901 147.488436
L 267.06923 149.953939
L 267.459935 155.894645
L 267.501611 155.769869
L 267.614481 154.430925
L 268.190988 146.664794
L 268.401101 146.42841
L 268.823062 146.400937
L 270.231337 146.508236
L 270.391092 146.830017
L 270.564739 147.819375
L 270.807845 150.709693
L 271.22807 155.747439
L 271.236752 155.743747
L 271.294055 155.553506
L 271.427763 154.087091
L 272.032054 146.704103
L 272.249113 146.435267
L 272.625926 146.401115
L 273.23369 146.509926
L 273.389972 146.831374
L 273.584456 147.889965
L 273.987317 151.755107
L 274.331137 153.777051
L 274.572506 154.216674
L 274.819084 154.225727
L 275.044825 154.003664
L 275.213263 153.466187
L 275.419902 151.871812
L 275.638697 150.487967
L 275.67169 150.542109
L 275.756777 151.206436
L 275.909586 154.582607
L 276.298555 163.969582
L 276.329811 163.86321
L 276.418371 162.469174
L 276.753509 152.006343
L 276.998351 148.449691
L 277.088647 148.304508
L 277.137269 148.352093
L 277.392529 148.972651
L 277.732877 150.092618
L 278.259027 152.400297
L 278.272918 152.395682
L 278.423991 152.201196
L 278.785176 151.82954
L 278.939722 151.942861
L 279.096004 152.382872
L 279.273124 153.701353
L 279.571796 158.181125
L 279.898252 161.659398
L 279.974656 161.743032
L 280.025014 161.687057
L 280.183033 161.479504
L 280.229917 161.552018
L 280.339315 162.143448
L 280.662298 164.880379
L 280.735229 164.590891
L 280.884565 162.575354
L 281.271798 157.101075
L 281.294372 157.124626
L 281.375986 157.550247
L 281.606936 160.353814
L 281.9195 162.959392
L 282.315415 165.560429
L 282.457805 165.96943
L 282.494271 165.932204
L 282.598459 165.510272
L 282.85372 164.089423
L 282.911023 164.253994
L 283.02042 165.560563
L 283.46322 174.082435
L 283.570881 173.42109
L 283.829614 169.254521
L 284.128287 166.159771
L 284.163016 166.131745
L 284.209901 166.238059
L 284.315825 167.156919
L 284.484262 170.949675
L 284.975683 188.358979
L 285.079871 186.871564
L 285.2622 178.623852
L 285.677216 161.181414
L 285.741465 160.767308
L 285.797032 161.04551
L 285.923794 163.380608
L 286.222466 173.960785
L 286.535031 181.774694
L 286.564551 181.840409
L 286.614908 181.636781
L 286.762508 179.606382
L 286.944837 177.734201
L 286.981303 177.827931
L 287.087227 178.905634
L 287.319914 181.684397
L 287.373744 181.461666
L 287.483142 179.617941
L 287.78876 172.951842
L 287.844327 173.342413
L 287.964143 176.559322
L 288.294072 187.795703
L 288.349639 187.283642
L 288.472928 182.917949
L 288.97824 161.609534
L 289.004287 161.665179
L 289.085901 162.530013
L 289.320324 168.126046
L 290.093052 186.383145
L 290.134728 186.210361
L 290.233706 184.435938
L 290.662614 171.976643
L 290.75812 172.947318
L 290.95955 179.248451
L 291.178345 183.444466
L 291.192236 183.432588
L 291.261695 183.06946
L 291.412768 182.086941
L 291.464862 182.342624
L 291.581205 184.656212
L 291.85904 191.387327
L 291.916343 190.990385
L 292.03616 187.77099
L 292.241063 182.675336
L 292.279265 182.929762
L 292.367825 185.70096
L 292.600512 202.282815
L 292.789786 209.594743
L 292.808888 209.514608
L 292.878346 208.0018
L 293.10756 196.275567
L 293.267315 192.107505
L 293.300308 192.273013
L 293.392341 194.346203
L 293.817775 207.589149
L 293.885497 207.297647
L 294.119921 205.446282
L 294.192852 205.734851
L 294.323087 207.66214
L 294.974263 221.104992
L 295.057613 220.798962
L 295.208686 218.90957
L 295.592445 210.726938
L 295.920637 197.893714
L 296.524928 174.521438
L 296.665582 173.601479
L 296.700311 173.658817
L 296.79408 174.350586
L 296.969464 177.637231
L 297.254244 187.901183
L 297.921048 215.855095
L 297.978351 215.621172
L 298.103377 213.726359
L 298.466299 203.578719
L 298.872632 194.710881
L 298.914307 194.595812
L 298.966401 194.801238
L 299.086218 196.563581
L 299.376208 201.577615
L 299.423092 201.372115
L 299.530753 199.433887
L 299.985708 189.595512
L 300.020437 189.674021
L 300.108997 190.606433
L 300.272225 195.208069
L 300.831367 213.301385
L 300.843523 213.294919
L 300.912981 213.053888
L 301.487752 209.276561
L 301.666608 204.849673
L 302.069469 194.188629
L 302.102462 194.309708
L 302.192758 195.774226
L 302.368141 202.923021
L 302.661604 225.981005
L 302.996742 246.099282
L 303.024526 246.24
L 303.073147 245.778485
L 303.184281 241.519758
L 304.080298 186.69261
L 304.444956 160.017962
L 304.632495 157.24249
L 304.637704 157.243981
L 304.689798 157.404594
L 304.823506 158.756945
L 305.163854 162.4044
L 305.193374 162.359894
L 305.285406 161.752742
L 305.733415 156.846503
L 305.841076 157.27766
L 306.028615 159.604224
L 306.315132 162.419629
L 306.32555 162.414795
L 306.38459 162.206899
L 306.518298 160.675596
L 306.902058 152.84845
L 307.192048 149.278895
L 307.268452 149.149542
L 307.320546 149.228317
L 307.452518 149.907171
L 308.683673 158.615224
L 308.747923 158.501303
L 308.864266 157.690418
L 309.100426 154.027797
L 309.485921 149.011711
L 309.616156 148.705346
L 309.650886 148.730407
L 309.78633 149.070778
L 310.182245 150.059127
L 310.189191 150.056537
L 310.298588 149.884986
L 310.730968 148.850072
L 310.796954 148.909913
L 310.979283 149.353728
L 311.33005 150.157219
L 311.342205 150.152323
L 311.474177 149.959677
L 311.666924 149.72231
L 311.696444 149.743872
L 311.844044 150.050701
L 312.038529 150.352998
L 312.064576 150.336218
L 312.182655 150.071062
L 312.417078 148.842489
L 312.825148 146.967121
L 312.913708 146.963123
L 312.943228 147.002049
L 313.078673 147.444397
L 313.288785 149.03639
L 313.616977 153.554949
L 314.130972 161.248284
L 314.177856 161.122819
L 314.278572 159.963276
L 314.518204 153.897774
L 314.851606 147.692676
L 315.044354 146.934832
L 315.049563 146.935811
L 315.139859 147.076125
L 315.303087 147.858887
L 315.650381 149.560058
L 315.672955 149.546509
L 315.766724 149.285383
L 316.056714 147.468134
L 316.338022 146.537586
L 316.565499 146.424944
L 316.803395 146.535776
L 316.999616 146.937243
L 317.412895 148.020892
L 317.468462 147.97165
L 317.635163 147.536603
L 317.859168 147.045266
L 317.890424 147.072993
L 317.987666 147.413984
L 318.142212 148.946981
L 318.376635 154.015215
L 318.703091 159.529327
L 318.769076 159.655483
L 318.822907 159.561016
L 318.96877 158.737171
L 319.298699 155.389562
L 319.677249 152.094697
L 320.005441 151.100282
L 320.238128 150.292934
L 320.658353 148.155888
L 320.733021 148.297767
L 320.871939 149.219393
L 321.26438 152.061985
L 321.288691 152.042602
L 321.372041 151.7135
L 321.625565 149.409461
L 321.861725 148.194379
L 321.870407 148.196945
L 321.945075 148.36402
L 322.113513 149.453597
L 322.566731 152.997398
L 322.622298 152.904466
L 322.747323 152.135817
L 323.096353 149.740033
L 323.12761 149.771028
L 323.21617 150.190501
L 323.381134 152.313218
L 323.823933 159.220812
L 323.881237 159.040707
L 324.004526 157.584428
L 324.546304 150.41871
L 325.147122 149.429087
L 325.230472 149.53826
L 325.444057 150.19744
L 325.697582 150.867032
L 325.728838 150.841563
L 325.838236 150.509426
L 326.23415 148.486031
L 326.331392 148.716774
L 326.510249 150.01287
L 327.04508 153.990307
L 327.124958 154.01672
L 327.166633 153.971193
L 327.51219 153.49918
L 327.578176 153.560479
L 327.786552 153.669729
L 327.805653 153.649543
L 327.963672 153.27895
L 328.260608 151.920005
L 328.719035 150.065941
L 329.391048 148.529719
L 329.425777 148.555023
L 329.559485 148.857789
L 330.004021 150.008117
L 330.019649 150.000989
L 330.148148 149.793802
L 330.445084 149.184668
L 330.493705 149.235861
L 330.620467 149.67743
L 330.917403 150.820707
L 330.957342 150.779993
L 331.066739 150.346437
L 331.480018 147.969952
L 331.551214 148.076615
L 331.704023 148.840712
L 332.164187 151.092397
L 332.249274 151.104968
L 332.282266 151.062112
L 332.426393 150.593007
L 332.752849 149.418132
L 332.789315 149.446434
L 332.907395 149.794964
L 333.318937 151.466585
L 333.384923 151.378233
L 333.52905 150.730812
L 334.015261 148.383675
L 334.643862 146.60547
L 334.702902 146.661194
L 334.827928 147.072286
L 334.998102 148.549867
L 335.220369 152.895325
L 335.696161 161.63953
L 335.769093 161.797644
L 335.822924 161.699053
L 335.947949 160.878275
L 336.423741 155.340125
L 336.878696 151.914672
L 337.300657 149.299252
L 337.705254 147.169939
L 337.77124 147.161166
L 337.809442 147.218992
L 337.937941 147.75554
L 338.241823 150.335566
L 338.398105 150.909703
L 338.431098 150.876222
L 338.531813 150.456738
L 339.002396 147.579525
L 339.073591 147.691438
L 339.2264 148.497502
L 340.23876 154.840985
L 340.365523 155.214518
L 340.407198 155.160924
L 340.509649 154.611965
L 341.22681 149.460551
L 341.263276 149.485426
L 341.376147 149.806171
L 341.9596 151.787769
L 342.166239 152.676093
L 342.428446 153.501458
L 342.440601 153.496599
L 342.530897 153.31279
L 342.782685 152.018288
L 343.013635 151.454123
L 343.116087 151.587023
L 343.518947 152.416972
L 343.579724 152.35913
L 343.81762 152.080394
L 343.864505 152.139691
L 343.998213 152.629179
L 344.395864 154.191774
L 344.411492 154.18546
L 344.519153 153.990037
L 345.074822 152.755936
L 345.277989 152.500376
L 345.543669 151.633236
L 345.731207 151.311297
L 345.753781 151.324807
L 345.859706 151.571386
L 346.069818 152.811165
L 346.413639 154.485918
L 346.498726 154.492787
L 346.529982 154.452186
L 346.696683 153.958942
L 347.366959 151.585011
L 347.429472 151.647303
L 347.632639 152.203944
L 347.910474 152.684961
L 348.084121 153.099671
L 348.566858 154.750577
L 348.627635 154.711337
L 348.862058 154.327909
L 349.093008 154.091128
L 349.108636 154.102391
L 349.216297 154.348566
L 349.376052 155.40228
L 349.747656 157.940256
L 349.765021 157.931205
L 349.851844 157.704393
L 350.485655 154.575561
L 351.030906 150.045223
L 351.079527 150.080472
L 351.473705 150.622744
L 351.553583 150.511814
L 351.727229 149.911729
L 352.296791 147.181893
L 352.369722 147.255704
L 352.548578 147.799127
L 353.138977 150.387278
L 353.684228 156.214683
L 353.790153 155.780995
L 353.962063 153.486341
L 354.378815 148.347587
L 354.406599 148.345411
L 354.444801 148.432524
L 354.561144 149.273448
L 355.104659 154.913412
L 355.196691 154.806301
L 355.439797 154.548735
L 355.457161 154.559399
L 355.672483 154.596335
L 355.681166 154.582751
L 355.804455 154.158839
L 356.474731 151.297647
L 356.625804 151.331388
L 356.820288 151.735492
L 357.44368 153.705599
L 357.785764 157.336577
L 358.002823 158.341449
L 358.084437 158.233457
L 358.280658 157.447164
L 358.561965 155.398427
L 359.042967 150.745846
L 359.117635 150.960183
L 359.251343 152.368713
L 359.91641 160.761467
L 360.020598 160.88157
L 360.06401 160.833856
L 360.171671 160.397282
L 360.333162 158.588044
L 360.850629 152.390949
L 361.184031 151.339506
L 361.255226 151.456803
L 361.373306 152.251379
L 361.974124 158.102713
L 362.066157 157.940633
L 362.257168 156.935802
L 362.517638 155.843369
L 362.538476 155.856732
L 362.62009 156.126695
L 362.769426 157.584597
L 363.104564 160.950626
L 363.132348 160.919981
L 363.217435 160.468322
L 363.960643 153.315347
L 364.518049 147.621301
L 364.775046 146.860037
L 364.88097 146.940386
L 365.068509 147.492044
L 365.580767 149.83161
L 365.78567 152.823823
L 366.211105 158.764675
L 366.242361 158.779599
L 366.285773 158.682461
L 366.40038 157.79682
L 366.867489 152.620245
L 366.947367 152.92339
L 367.082811 154.803723
L 367.542975 162.373995
L 367.575968 162.322686
L 367.680156 161.661166
L 368.124692 158.657326
L 368.315703 158.568476
L 368.43031 158.770192
L 368.643895 159.796304
L 368.793232 160.270181
L 368.834907 160.220271
L 368.942568 159.708325
L 369.190883 157.113424
L 370.019178 148.493974
L 370.206716 148.250843
L 370.479342 148.142184
L 370.734602 148.046353
L 371.007228 148.097984
L 371.186084 147.678528
L 371.352785 147.424945
L 371.385778 147.456001
L 371.486493 147.81466
L 371.646248 149.401172
L 372.231437 156.585034
L 372.271376 156.54686
L 372.422449 156.053642
L 372.894768 153.903774
L 373.40008 150.489531
L 373.422654 150.500859
L 373.519896 150.743474
L 373.804677 151.741168
L 373.865453 151.631387
L 373.993952 150.81915
L 374.56525 146.564789
L 374.792727 146.411944
L 375.721737 146.400843
L 388.80081 146.400843
L 388.80081 146.400843
" clip-path="url(#p99bd1fbef8)" style="fill: none; stroke: #ed0345; stroke-width: 2; stroke-linecap: square"/>
   </g>
   <g id="patch_3">
    <path d="M 54 256.32
L 54 34.56
" style="fill: none; stroke: #000000; stroke-linejoin: miter; stroke-linecap: square"/>
   </g>
   <g id="patch_4">
    <path d="M 388.8 256.32
L 388.8 34.56
" style="fill: none; stroke: #000000; stroke-linejoin: miter; stroke-linecap: square"/>
   </g>
   <g id="patch_5">
    <path d="M 54 256.32
L 388.8 256.32
" style="fill: none; stroke: #000000; stroke-linejoin: miter; stroke-linecap: square"/>
   </g>
   <g id="patch_6">
    <path d="M 54 34.56
L 388.8 34.56
" style="fill: none; stroke: #000000; stroke-linejoin: miter; stroke-linecap: square"/>
   </g>
  </g>
 </g>
 <defs>
  <clipPath id="p99bd1fbef8">
   <rect x="54" y="34.56" width="334.8" height="221.76"/>
  </clipPath>
 </defs>
</svg>
