<?xml version="1.0" encoding="utf-8" standalone="no"?>
<!DOCTYPE svg PUBLIC "-//W3C//DTD SVG 1.1//EN"
  "http://www.w3.org/Graphics/SVG/1.1/DTD/svg11.dtd">
<svg xmlns:xlink="http://www.w3.org/1999/xlink" width="432pt" height="288pt" viewBox="0 0 432 288" xmlns="http://www.w3.org/2000/svg" version="1.1">
 <metadata>
  <rdf:RDF xmlns:dc="http://purl.org/dc/elements/1.1/" xmlns:cc="http://creativecommons.org/ns#" xmlns:rdf="http://www.w3.org/1999/02/22-rdf-syntax-ns#">
   <cc:Work>
    <dc:type rdf:resource="http://purl.org/dc/dcmitype/StillImage"/>
    <dc:date>2022-08-04T21:38:29.387482</dc:date>
    <dc:format>image/svg+xml</dc:format>
    <dc:creator>
     <cc:Agent>
      <dc:title>Matplotlib v3.5.2, https://matplotlib.org/</dc:title>
     </cc:Agent>
    </dc:creator>
   </cc:Work>
  </rdf:RDF>
 </metadata>
 <defs>
  <style type="text/css">*{stroke-linejoin: round; stroke-linecap: butt}</style>
 </defs>
 <g id="figure_1">
  <g id="patch_1">
   <path d="M 0 288 
L 432 288 
L 432 0 
L 0 0 
z
" style="fill: #ffffff"/>
  </g>
  <g id="axes_1">
   <g id="patch_2">
    <path d="M 54 256.32 
L 388.8 256.32 
L 388.8 34.56 
L 54 34.56 
z
" style="fill: #ffffff"/>
   </g>
   <g id="matplotlib.axis_1">
    <g id="xtick_1">
     <g id="line2d_1">
      <defs>
       <path id="m645f708cec" d="M 0 0 
L 0 3.5 
" style="stroke: #000000; stroke-width: 0.8"/>
      </defs>
      <g>
       <use xlink:href="#m645f708cec" x="54" y="256.32" style="stroke: #000000; stroke-width: 0.8"/>
      </g>
     </g>
     <g id="text_1">
      <!-- −35 -->
      <g transform="translate(43.447656 270.918437)scale(0.1 -0.1)">
       <defs>
        <path id="DejaVuSans-2212" d="M 678 2272 
L 4684 2272 
L 4684 1741 
L 678 1741 
L 678 2272 
z
" transform="scale(0.015625)"/>
        <path id="DejaVuSans-33" d="M 2597 2516 
Q 3050 2419 3304 2112 
Q 3559 1806 3559 1356 
Q 3559 666 3084 287 
Q 2609 -91 1734 -91 
Q 1441 -91 1130 -33 
Q 819 25 488 141 
L 488 750 
Q 750 597 1062 519 
Q 1375 441 1716 441 
Q 2309 441 2620 675 
Q 2931 909 2931 1356 
Q 2931 1769 2642 2001 
Q 2353 2234 1838 2234 
L 1294 2234 
L 1294 2753 
L 1863 2753 
Q 2328 2753 2575 2939 
Q 2822 3125 2822 3475 
Q 2822 3834 2567 4026 
Q 2313 4219 1838 4219 
Q 1578 4219 1281 4162 
Q 984 4106 628 3988 
L 628 4550 
Q 988 4650 1302 4700 
Q 1616 4750 1894 4750 
Q 2613 4750 3031 4423 
Q 3450 4097 3450 3541 
Q 3450 3153 3228 2886 
Q 3006 2619 2597 2516 
z
" transform="scale(0.015625)"/>
        <path id="DejaVuSans-35" d="M 691 4666 
L 3169 4666 
L 3169 4134 
L 1269 4134 
L 1269 2991 
Q 1406 3038 1543 3061 
Q 1681 3084 1819 3084 
Q 2600 3084 3056 2656 
Q 3513 2228 3513 1497 
Q 3513 744 3044 326 
Q 2575 -91 1722 -91 
Q 1428 -91 1123 -41 
Q 819 9 494 109 
L 494 744 
Q 775 591 1075 516 
Q 1375 441 1709 441 
Q 2250 441 2565 725 
Q 2881 1009 2881 1497 
Q 2881 1984 2565 2268 
Q 2250 2553 1709 2553 
Q 1456 2553 1204 2497 
Q 953 2441 691 2322 
L 691 4666 
z
" transform="scale(0.015625)"/>
       </defs>
       <use xlink:href="#DejaVuSans-2212"/>
       <use xlink:href="#DejaVuSans-33" x="83.789062"/>
       <use xlink:href="#DejaVuSans-35" x="147.412109"/>
      </g>
     </g>
    </g>
    <g id="xtick_2">
     <g id="line2d_2">
      <g>
       <use xlink:href="#m645f708cec" x="91.2" y="256.32" style="stroke: #000000; stroke-width: 0.8"/>
      </g>
     </g>
     <g id="text_2">
      <!-- −30 -->
      <g transform="translate(80.647656 270.918437)scale(0.1 -0.1)">
       <defs>
        <path id="DejaVuSans-30" d="M 2034 4250 
Q 1547 4250 1301 3770 
Q 1056 3291 1056 2328 
Q 1056 1369 1301 889 
Q 1547 409 2034 409 
Q 2525 409 2770 889 
Q 3016 1369 3016 2328 
Q 3016 3291 2770 3770 
Q 2525 4250 2034 4250 
z
M 2034 4750 
Q 2819 4750 3233 4129 
Q 3647 3509 3647 2328 
Q 3647 1150 3233 529 
Q 2819 -91 2034 -91 
Q 1250 -91 836 529 
Q 422 1150 422 2328 
Q 422 3509 836 4129 
Q 1250 4750 2034 4750 
z
" transform="scale(0.015625)"/>
       </defs>
       <use xlink:href="#DejaVuSans-2212"/>
       <use xlink:href="#DejaVuSans-33" x="83.789062"/>
       <use xlink:href="#DejaVuSans-30" x="147.412109"/>
      </g>
     </g>
    </g>
    <g id="xtick_3">
     <g id="line2d_3">
      <g>
       <use xlink:href="#m645f708cec" x="128.4" y="256.32" style="stroke: #000000; stroke-width: 0.8"/>
      </g>
     </g>
     <g id="text_3">
      <!-- −25 -->
      <g transform="translate(117.847656 270.918437)scale(0.1 -0.1)">
       <defs>
        <path id="DejaVuSans-32" d="M 1228 531 
L 3431 531 
L 3431 0 
L 469 0 
L 469 531 
Q 828 903 1448 1529 
Q 2069 2156 2228 2338 
Q 2531 2678 2651 2914 
Q 2772 3150 2772 3378 
Q 2772 3750 2511 3984 
Q 2250 4219 1831 4219 
Q 1534 4219 1204 4116 
Q 875 4013 500 3803 
L 500 4441 
Q 881 4594 1212 4672 
Q 1544 4750 1819 4750 
Q 2544 4750 2975 4387 
Q 3406 4025 3406 3419 
Q 3406 3131 3298 2873 
Q 3191 2616 2906 2266 
Q 2828 2175 2409 1742 
Q 1991 1309 1228 531 
z
" transform="scale(0.015625)"/>
       </defs>
       <use xlink:href="#DejaVuSans-2212"/>
       <use xlink:href="#DejaVuSans-32" x="83.789062"/>
       <use xlink:href="#DejaVuSans-35" x="147.412109"/>
      </g>
     </g>
    </g>
    <g id="xtick_4">
     <g id="line2d_4">
      <g>
       <use xlink:href="#m645f708cec" x="165.6" y="256.32" style="stroke: #000000; stroke-width: 0.8"/>
      </g>
     </g>
     <g id="text_4">
      <!-- −20 -->
      <g transform="translate(155.047656 270.918437)scale(0.1 -0.1)">
       <use xlink:href="#DejaVuSans-2212"/>
       <use xlink:href="#DejaVuSans-32" x="83.789062"/>
       <use xlink:href="#DejaVuSans-30" x="147.412109"/>
      </g>
     </g>
    </g>
    <g id="xtick_5">
     <g id="line2d_5">
      <g>
       <use xlink:href="#m645f708cec" x="202.8" y="256.32" style="stroke: #000000; stroke-width: 0.8"/>
      </g>
     </g>
     <g id="text_5">
      <!-- −15 -->
      <g transform="translate(192.247656 270.918437)scale(0.1 -0.1)">
       <defs>
        <path id="DejaVuSans-31" d="M 794 531 
L 1825 531 
L 1825 4091 
L 703 3866 
L 703 4441 
L 1819 4666 
L 2450 4666 
L 2450 531 
L 3481 531 
L 3481 0 
L 794 0 
L 794 531 
z
" transform="scale(0.015625)"/>
       </defs>
       <use xlink:href="#DejaVuSans-2212"/>
       <use xlink:href="#DejaVuSans-31" x="83.789062"/>
       <use xlink:href="#DejaVuSans-35" x="147.412109"/>
      </g>
     </g>
    </g>
    <g id="xtick_6">
     <g id="line2d_6">
      <g>
       <use xlink:href="#m645f708cec" x="240" y="256.32" style="stroke: #000000; stroke-width: 0.8"/>
      </g>
     </g>
     <g id="text_6">
      <!-- −10 -->
      <g transform="translate(229.447656 270.918437)scale(0.1 -0.1)">
       <use xlink:href="#DejaVuSans-2212"/>
       <use xlink:href="#DejaVuSans-31" x="83.789062"/>
       <use xlink:href="#DejaVuSans-30" x="147.412109"/>
      </g>
     </g>
    </g>
    <g id="xtick_7">
     <g id="line2d_7">
      <g>
       <use xlink:href="#m645f708cec" x="277.2" y="256.32" style="stroke: #000000; stroke-width: 0.8"/>
      </g>
     </g>
     <g id="text_7">
      <!-- −5 -->
      <g transform="translate(269.828906 270.918437)scale(0.1 -0.1)">
       <use xlink:href="#DejaVuSans-2212"/>
       <use xlink:href="#DejaVuSans-35" x="83.789062"/>
      </g>
     </g>
    </g>
    <g id="xtick_8">
     <g id="line2d_8">
      <g>
       <use xlink:href="#m645f708cec" x="314.4" y="256.32" style="stroke: #000000; stroke-width: 0.8"/>
      </g>
     </g>
     <g id="text_8">
      <!-- 0 -->
      <g transform="translate(311.21875 270.918437)scale(0.1 -0.1)">
       <use xlink:href="#DejaVuSans-30"/>
      </g>
     </g>
    </g>
    <g id="xtick_9">
     <g id="line2d_9">
      <g>
       <use xlink:href="#m645f708cec" x="351.6" y="256.32" style="stroke: #000000; stroke-width: 0.8"/>
      </g>
     </g>
     <g id="text_9">
      <!-- 5 -->
      <g transform="translate(348.41875 270.918437)scale(0.1 -0.1)">
       <use xlink:href="#DejaVuSans-35"/>
      </g>
     </g>
    </g>
    <g id="xtick_10">
     <g id="line2d_10">
      <g>
       <use xlink:href="#m645f708cec" x="388.8" y="256.32" style="stroke: #000000; stroke-width: 0.8"/>
      </g>
     </g>
     <g id="text_10">
      <!-- 10 -->
      <g transform="translate(382.4375 270.918437)scale(0.1 -0.1)">
       <use xlink:href="#DejaVuSans-31"/>
       <use xlink:href="#DejaVuSans-30" x="63.623047"/>
      </g>
     </g>
    </g>
    <g id="text_11">
     <!-- Energy (eV) -->
     <g transform="translate(188.956875 285.356406)scale(0.11 -0.11)">
      <defs>
       <path id="DejaVuSans-45" d="M 628 4666 
L 3578 4666 
L 3578 4134 
L 1259 4134 
L 1259 2753 
L 3481 2753 
L 3481 2222 
L 1259 2222 
L 1259 531 
L 3634 531 
L 3634 0 
L 628 0 
L 628 4666 
z
" transform="scale(0.015625)"/>
       <path id="DejaVuSans-6e" d="M 3513 2113 
L 3513 0 
L 2938 0 
L 2938 2094 
Q 2938 2591 2744 2837 
Q 2550 3084 2163 3084 
Q 1697 3084 1428 2787 
Q 1159 2491 1159 1978 
L 1159 0 
L 581 0 
L 581 3500 
L 1159 3500 
L 1159 2956 
Q 1366 3272 1645 3428 
Q 1925 3584 2291 3584 
Q 2894 3584 3203 3211 
Q 3513 2838 3513 2113 
z
" transform="scale(0.015625)"/>
       <path id="DejaVuSans-65" d="M 3597 1894 
L 3597 1613 
L 953 1613 
Q 991 1019 1311 708 
Q 1631 397 2203 397 
Q 2534 397 2845 478 
Q 3156 559 3463 722 
L 3463 178 
Q 3153 47 2828 -22 
Q 2503 -91 2169 -91 
Q 1331 -91 842 396 
Q 353 884 353 1716 
Q 353 2575 817 3079 
Q 1281 3584 2069 3584 
Q 2775 3584 3186 3129 
Q 3597 2675 3597 1894 
z
M 3022 2063 
Q 3016 2534 2758 2815 
Q 2500 3097 2075 3097 
Q 1594 3097 1305 2825 
Q 1016 2553 972 2059 
L 3022 2063 
z
" transform="scale(0.015625)"/>
       <path id="DejaVuSans-72" d="M 2631 2963 
Q 2534 3019 2420 3045 
Q 2306 3072 2169 3072 
Q 1681 3072 1420 2755 
Q 1159 2438 1159 1844 
L 1159 0 
L 581 0 
L 581 3500 
L 1159 3500 
L 1159 2956 
Q 1341 3275 1631 3429 
Q 1922 3584 2338 3584 
Q 2397 3584 2469 3576 
Q 2541 3569 2628 3553 
L 2631 2963 
z
" transform="scale(0.015625)"/>
       <path id="DejaVuSans-67" d="M 2906 1791 
Q 2906 2416 2648 2759 
Q 2391 3103 1925 3103 
Q 1463 3103 1205 2759 
Q 947 2416 947 1791 
Q 947 1169 1205 825 
Q 1463 481 1925 481 
Q 2391 481 2648 825 
Q 2906 1169 2906 1791 
z
M 3481 434 
Q 3481 -459 3084 -895 
Q 2688 -1331 1869 -1331 
Q 1566 -1331 1297 -1286 
Q 1028 -1241 775 -1147 
L 775 -588 
Q 1028 -725 1275 -790 
Q 1522 -856 1778 -856 
Q 2344 -856 2625 -561 
Q 2906 -266 2906 331 
L 2906 616 
Q 2728 306 2450 153 
Q 2172 0 1784 0 
Q 1141 0 747 490 
Q 353 981 353 1791 
Q 353 2603 747 3093 
Q 1141 3584 1784 3584 
Q 2172 3584 2450 3431 
Q 2728 3278 2906 2969 
L 2906 3500 
L 3481 3500 
L 3481 434 
z
" transform="scale(0.015625)"/>
       <path id="DejaVuSans-79" d="M 2059 -325 
Q 1816 -950 1584 -1140 
Q 1353 -1331 966 -1331 
L 506 -1331 
L 506 -850 
L 844 -850 
Q 1081 -850 1212 -737 
Q 1344 -625 1503 -206 
L 1606 56 
L 191 3500 
L 800 3500 
L 1894 763 
L 2988 3500 
L 3597 3500 
L 2059 -325 
z
" transform="scale(0.015625)"/>
       <path id="DejaVuSans-20" transform="scale(0.015625)"/>
       <path id="DejaVuSans-28" d="M 1984 4856 
Q 1566 4138 1362 3434 
Q 1159 2731 1159 2009 
Q 1159 1288 1364 580 
Q 1569 -128 1984 -844 
L 1484 -844 
Q 1016 -109 783 600 
Q 550 1309 550 2009 
Q 550 2706 781 3412 
Q 1013 4119 1484 4856 
L 1984 4856 
z
" transform="scale(0.015625)"/>
       <path id="DejaVuSans-56" d="M 1831 0 
L 50 4666 
L 709 4666 
L 2188 738 
L 3669 4666 
L 4325 4666 
L 2547 0 
L 1831 0 
z
" transform="scale(0.015625)"/>
       <path id="DejaVuSans-29" d="M 513 4856 
L 1013 4856 
Q 1481 4119 1714 3412 
Q 1947 2706 1947 2009 
Q 1947 1309 1714 600 
Q 1481 -109 1013 -844 
L 513 -844 
Q 928 -128 1133 580 
Q 1338 1288 1338 2009 
Q 1338 2731 1133 3434 
Q 928 4138 513 4856 
z
" transform="scale(0.015625)"/>
      </defs>
      <use xlink:href="#DejaVuSans-45"/>
      <use xlink:href="#DejaVuSans-6e" x="63.183594"/>
      <use xlink:href="#DejaVuSans-65" x="126.5625"/>
      <use xlink:href="#DejaVuSans-72" x="188.085938"/>
      <use xlink:href="#DejaVuSans-67" x="227.449219"/>
      <use xlink:href="#DejaVuSans-79" x="290.925781"/>
      <use xlink:href="#DejaVuSans-20" x="350.105469"/>
      <use xlink:href="#DejaVuSans-28" x="381.892578"/>
      <use xlink:href="#DejaVuSans-65" x="420.90625"/>
      <use xlink:href="#DejaVuSans-56" x="482.429688"/>
      <use xlink:href="#DejaVuSans-29" x="550.837891"/>
     </g>
    </g>
   </g>
   <g id="matplotlib.axis_2">
    <g id="ytick_1">
     <g id="line2d_11">
      <defs>
       <path id="m0c492bf962" d="M 0 0 
L -3.5 0 
" style="stroke: #000000; stroke-width: 0.8"/>
      </defs>
      <g>
       <use xlink:href="#m0c492bf962" x="54" y="243.249362" style="stroke: #000000; stroke-width: 0.8"/>
      </g>
     </g>
     <g id="text_12">
      <!-- −6 -->
      <g transform="translate(32.257812 247.048581)scale(0.1 -0.1)">
       <defs>
        <path id="DejaVuSans-36" d="M 2113 2584 
Q 1688 2584 1439 2293 
Q 1191 2003 1191 1497 
Q 1191 994 1439 701 
Q 1688 409 2113 409 
Q 2538 409 2786 701 
Q 3034 994 3034 1497 
Q 3034 2003 2786 2293 
Q 2538 2584 2113 2584 
z
M 3366 4563 
L 3366 3988 
Q 3128 4100 2886 4159 
Q 2644 4219 2406 4219 
Q 1781 4219 1451 3797 
Q 1122 3375 1075 2522 
Q 1259 2794 1537 2939 
Q 1816 3084 2150 3084 
Q 2853 3084 3261 2657 
Q 3669 2231 3669 1497 
Q 3669 778 3244 343 
Q 2819 -91 2113 -91 
Q 1303 -91 875 529 
Q 447 1150 447 2328 
Q 447 3434 972 4092 
Q 1497 4750 2381 4750 
Q 2619 4750 2861 4703 
Q 3103 4656 3366 4563 
z
" transform="scale(0.015625)"/>
       </defs>
       <use xlink:href="#DejaVuSans-2212"/>
       <use xlink:href="#DejaVuSans-36" x="83.789062"/>
      </g>
     </g>
    </g>
    <g id="ytick_2">
     <g id="line2d_12">
      <g>
       <use xlink:href="#m0c492bf962" x="54" y="209.615126" style="stroke: #000000; stroke-width: 0.8"/>
      </g>
     </g>
     <g id="text_13">
      <!-- −4 -->
      <g transform="translate(32.257812 213.414344)scale(0.1 -0.1)">
       <defs>
        <path id="DejaVuSans-34" d="M 2419 4116 
L 825 1625 
L 2419 1625 
L 2419 4116 
z
M 2253 4666 
L 3047 4666 
L 3047 1625 
L 3713 1625 
L 3713 1100 
L 3047 1100 
L 3047 0 
L 2419 0 
L 2419 1100 
L 313 1100 
L 313 1709 
L 2253 4666 
z
" transform="scale(0.015625)"/>
       </defs>
       <use xlink:href="#DejaVuSans-2212"/>
       <use xlink:href="#DejaVuSans-34" x="83.789062"/>
      </g>
     </g>
    </g>
    <g id="ytick_3">
     <g id="line2d_13">
      <g>
       <use xlink:href="#m0c492bf962" x="54" y="175.980889" style="stroke: #000000; stroke-width: 0.8"/>
      </g>
     </g>
     <g id="text_14">
      <!-- −2 -->
      <g transform="translate(32.257812 179.780108)scale(0.1 -0.1)">
       <use xlink:href="#DejaVuSans-2212"/>
       <use xlink:href="#DejaVuSans-32" x="83.789062"/>
      </g>
     </g>
    </g>
    <g id="ytick_4">
     <g id="line2d_14">
      <g>
       <use xlink:href="#m0c492bf962" x="54" y="142.346652" style="stroke: #000000; stroke-width: 0.8"/>
      </g>
     </g>
     <g id="text_15">
      <!-- 0 -->
      <g transform="translate(40.6375 146.145871)scale(0.1 -0.1)">
       <use xlink:href="#DejaVuSans-30"/>
      </g>
     </g>
    </g>
    <g id="ytick_5">
     <g id="line2d_15">
      <g>
       <use xlink:href="#m0c492bf962" x="54" y="108.712415" style="stroke: #000000; stroke-width: 0.8"/>
      </g>
     </g>
     <g id="text_16">
      <!-- 2 -->
      <g transform="translate(40.6375 112.511634)scale(0.1 -0.1)">
       <use xlink:href="#DejaVuSans-32"/>
      </g>
     </g>
    </g>
    <g id="ytick_6">
     <g id="line2d_16">
      <g>
       <use xlink:href="#m0c492bf962" x="54" y="75.078179" style="stroke: #000000; stroke-width: 0.8"/>
      </g>
     </g>
     <g id="text_17">
      <!-- 4 -->
      <g transform="translate(40.6375 78.877397)scale(0.1 -0.1)">
       <use xlink:href="#DejaVuSans-34"/>
      </g>
     </g>
    </g>
    <g id="ytick_7">
     <g id="line2d_17">
      <g>
       <use xlink:href="#m0c492bf962" x="54" y="41.443942" style="stroke: #000000; stroke-width: 0.8"/>
      </g>
     </g>
     <g id="text_18">
      <!-- 6 -->
      <g transform="translate(40.6375 45.243161)scale(0.1 -0.1)">
       <use xlink:href="#DejaVuSans-36"/>
      </g>
     </g>
    </g>
    <g id="text_19">
     <!-- Density of States (a.u.) -->
     <g transform="translate(25.970156 208.962422)rotate(-90)scale(0.11 -0.11)">
      <defs>
       <path id="DejaVuSans-44" d="M 1259 4147 
L 1259 519 
L 2022 519 
Q 2988 519 3436 956 
Q 3884 1394 3884 2338 
Q 3884 3275 3436 3711 
Q 2988 4147 2022 4147 
L 1259 4147 
z
M 628 4666 
L 1925 4666 
Q 3281 4666 3915 4102 
Q 4550 3538 4550 2338 
Q 4550 1131 3912 565 
Q 3275 0 1925 0 
L 628 0 
L 628 4666 
z
" transform="scale(0.015625)"/>
       <path id="DejaVuSans-73" d="M 2834 3397 
L 2834 2853 
Q 2591 2978 2328 3040 
Q 2066 3103 1784 3103 
Q 1356 3103 1142 2972 
Q 928 2841 928 2578 
Q 928 2378 1081 2264 
Q 1234 2150 1697 2047 
L 1894 2003 
Q 2506 1872 2764 1633 
Q 3022 1394 3022 966 
Q 3022 478 2636 193 
Q 2250 -91 1575 -91 
Q 1294 -91 989 -36 
Q 684 19 347 128 
L 347 722 
Q 666 556 975 473 
Q 1284 391 1588 391 
Q 1994 391 2212 530 
Q 2431 669 2431 922 
Q 2431 1156 2273 1281 
Q 2116 1406 1581 1522 
L 1381 1569 
Q 847 1681 609 1914 
Q 372 2147 372 2553 
Q 372 3047 722 3315 
Q 1072 3584 1716 3584 
Q 2034 3584 2315 3537 
Q 2597 3491 2834 3397 
z
" transform="scale(0.015625)"/>
       <path id="DejaVuSans-69" d="M 603 3500 
L 1178 3500 
L 1178 0 
L 603 0 
L 603 3500 
z
M 603 4863 
L 1178 4863 
L 1178 4134 
L 603 4134 
L 603 4863 
z
" transform="scale(0.015625)"/>
       <path id="DejaVuSans-74" d="M 1172 4494 
L 1172 3500 
L 2356 3500 
L 2356 3053 
L 1172 3053 
L 1172 1153 
Q 1172 725 1289 603 
Q 1406 481 1766 481 
L 2356 481 
L 2356 0 
L 1766 0 
Q 1100 0 847 248 
Q 594 497 594 1153 
L 594 3053 
L 172 3053 
L 172 3500 
L 594 3500 
L 594 4494 
L 1172 4494 
z
" transform="scale(0.015625)"/>
       <path id="DejaVuSans-6f" d="M 1959 3097 
Q 1497 3097 1228 2736 
Q 959 2375 959 1747 
Q 959 1119 1226 758 
Q 1494 397 1959 397 
Q 2419 397 2687 759 
Q 2956 1122 2956 1747 
Q 2956 2369 2687 2733 
Q 2419 3097 1959 3097 
z
M 1959 3584 
Q 2709 3584 3137 3096 
Q 3566 2609 3566 1747 
Q 3566 888 3137 398 
Q 2709 -91 1959 -91 
Q 1206 -91 779 398 
Q 353 888 353 1747 
Q 353 2609 779 3096 
Q 1206 3584 1959 3584 
z
" transform="scale(0.015625)"/>
       <path id="DejaVuSans-66" d="M 2375 4863 
L 2375 4384 
L 1825 4384 
Q 1516 4384 1395 4259 
Q 1275 4134 1275 3809 
L 1275 3500 
L 2222 3500 
L 2222 3053 
L 1275 3053 
L 1275 0 
L 697 0 
L 697 3053 
L 147 3053 
L 147 3500 
L 697 3500 
L 697 3744 
Q 697 4328 969 4595 
Q 1241 4863 1831 4863 
L 2375 4863 
z
" transform="scale(0.015625)"/>
       <path id="DejaVuSans-53" d="M 3425 4513 
L 3425 3897 
Q 3066 4069 2747 4153 
Q 2428 4238 2131 4238 
Q 1616 4238 1336 4038 
Q 1056 3838 1056 3469 
Q 1056 3159 1242 3001 
Q 1428 2844 1947 2747 
L 2328 2669 
Q 3034 2534 3370 2195 
Q 3706 1856 3706 1288 
Q 3706 609 3251 259 
Q 2797 -91 1919 -91 
Q 1588 -91 1214 -16 
Q 841 59 441 206 
L 441 856 
Q 825 641 1194 531 
Q 1563 422 1919 422 
Q 2459 422 2753 634 
Q 3047 847 3047 1241 
Q 3047 1584 2836 1778 
Q 2625 1972 2144 2069 
L 1759 2144 
Q 1053 2284 737 2584 
Q 422 2884 422 3419 
Q 422 4038 858 4394 
Q 1294 4750 2059 4750 
Q 2388 4750 2728 4690 
Q 3069 4631 3425 4513 
z
" transform="scale(0.015625)"/>
       <path id="DejaVuSans-61" d="M 2194 1759 
Q 1497 1759 1228 1600 
Q 959 1441 959 1056 
Q 959 750 1161 570 
Q 1363 391 1709 391 
Q 2188 391 2477 730 
Q 2766 1069 2766 1631 
L 2766 1759 
L 2194 1759 
z
M 3341 1997 
L 3341 0 
L 2766 0 
L 2766 531 
Q 2569 213 2275 61 
Q 1981 -91 1556 -91 
Q 1019 -91 701 211 
Q 384 513 384 1019 
Q 384 1609 779 1909 
Q 1175 2209 1959 2209 
L 2766 2209 
L 2766 2266 
Q 2766 2663 2505 2880 
Q 2244 3097 1772 3097 
Q 1472 3097 1187 3025 
Q 903 2953 641 2809 
L 641 3341 
Q 956 3463 1253 3523 
Q 1550 3584 1831 3584 
Q 2591 3584 2966 3190 
Q 3341 2797 3341 1997 
z
" transform="scale(0.015625)"/>
       <path id="DejaVuSans-2e" d="M 684 794 
L 1344 794 
L 1344 0 
L 684 0 
L 684 794 
z
" transform="scale(0.015625)"/>
       <path id="DejaVuSans-75" d="M 544 1381 
L 544 3500 
L 1119 3500 
L 1119 1403 
Q 1119 906 1312 657 
Q 1506 409 1894 409 
Q 2359 409 2629 706 
Q 2900 1003 2900 1516 
L 2900 3500 
L 3475 3500 
L 3475 0 
L 2900 0 
L 2900 538 
Q 2691 219 2414 64 
Q 2138 -91 1772 -91 
Q 1169 -91 856 284 
Q 544 659 544 1381 
z
M 1991 3584 
L 1991 3584 
z
" transform="scale(0.015625)"/>
      </defs>
      <use xlink:href="#DejaVuSans-44"/>
      <use xlink:href="#DejaVuSans-65" x="77.001953"/>
      <use xlink:href="#DejaVuSans-6e" x="138.525391"/>
      <use xlink:href="#DejaVuSans-73" x="201.904297"/>
      <use xlink:href="#DejaVuSans-69" x="254.003906"/>
      <use xlink:href="#DejaVuSans-74" x="281.787109"/>
      <use xlink:href="#DejaVuSans-79" x="320.996094"/>
      <use xlink:href="#DejaVuSans-20" x="380.175781"/>
      <use xlink:href="#DejaVuSans-6f" x="411.962891"/>
      <use xlink:href="#DejaVuSans-66" x="473.144531"/>
      <use xlink:href="#DejaVuSans-20" x="508.349609"/>
      <use xlink:href="#DejaVuSans-53" x="540.136719"/>
      <use xlink:href="#DejaVuSans-74" x="603.613281"/>
      <use xlink:href="#DejaVuSans-61" x="642.822266"/>
      <use xlink:href="#DejaVuSans-74" x="704.101562"/>
      <use xlink:href="#DejaVuSans-65" x="743.310547"/>
      <use xlink:href="#DejaVuSans-73" x="804.833984"/>
      <use xlink:href="#DejaVuSans-20" x="856.933594"/>
      <use xlink:href="#DejaVuSans-28" x="888.720703"/>
      <use xlink:href="#DejaVuSans-61" x="927.734375"/>
      <use xlink:href="#DejaVuSans-2e" x="989.013672"/>
      <use xlink:href="#DejaVuSans-75" x="1020.800781"/>
      <use xlink:href="#DejaVuSans-2e" x="1084.179688"/>
      <use xlink:href="#DejaVuSans-29" x="1115.966797"/>
     </g>
    </g>
   </g>
   <g id="line2d_18">
    <path d="M 53.999461 142.346652 
L 57.736339 142.236248 
L 58.387514 141.925722 
L 58.686186 141.921484 
L 59.094256 141.871173 
L 59.550947 142.117231 
L 60.030212 142.336051 
L 61.231848 142.346652 
L 167.211931 142.236625 
L 167.333484 141.886288 
L 167.458509 140.606796 
L 167.592217 136.425108 
L 167.781492 121.663205 
L 168.191299 84.378653 
L 168.236447 84.910054 
L 168.35279 90.216358 
L 168.929297 118.957904 
L 169.087316 123.575818 
L 169.128991 123.091242 
L 169.22276 117.958411 
L 169.434609 90.992584 
L 169.663823 70.020314 
L 169.686397 70.292075 
L 169.762802 74.797242 
L 169.959023 102.955435 
L 170.27506 137.125548 
L 170.493855 141.751385 
L 170.681393 142.300045 
L 171.025214 142.346542 
L 171.514897 142.235842 
L 171.631241 141.811012 
L 171.759739 140.278477 
L 171.898657 135.528128 
L 172.075776 119.877512 
L 172.457799 79.04151 
L 172.508157 80.149216 
L 172.627973 90.036036 
L 173.171487 140.485768 
L 173.371181 142.133093 
L 173.565666 142.337398 
L 173.947688 142.29829 
L 174.069241 142.044825 
L 174.19253 141.095894 
L 174.31582 138.148602 
L 174.463419 127.99083 
L 174.666586 95.064213 
L 174.980887 50.94923 
L 174.994778 51.05951 
L 175.050345 54.014642 
L 175.197945 77.578402 
L 175.595596 134.949523 
L 175.680683 136.744959 
L 175.732777 136.140693 
L 175.836965 131.234507 
L 175.99672 110.845283 
L 176.401317 47.106716 
L 176.455147 49.17687 
L 176.585383 68.26311 
L 177.052492 137.685853 
L 177.259132 141.821109 
L 177.453616 142.306371 
L 177.727978 142.34568 
L 180.903977 142.268795 
L 181.02032 141.929879 
L 181.145346 140.663344 
L 181.273845 136.675482 
L 181.430127 123.075889 
L 181.687124 75.221631 
L 181.905919 50.081219 
L 181.923284 50.269308 
L 181.987533 54.206976 
L 182.150761 82.451716 
L 182.517155 135.684776 
L 182.723795 141.429021 
L 182.923489 142.293146 
L 183.128392 142.341237 
L 184.597444 142.335095 
L 184.837076 142.192571 
L 184.988149 141.772329 
L 185.194788 140.360049 
L 185.689682 136.744119 
L 185.7001 136.746651 
L 185.802552 136.908801 
L 186.191521 138.182754 
L 186.441572 139.949379 
L 186.799284 142.026645 
L 187.025025 142.312237 
L 187.440041 142.346567 
L 190.93555 142.244006 
L 191.067521 141.875013 
L 191.189074 140.709914 
L 191.333201 136.712403 
L 191.527685 123.511053 
L 191.873242 100.89634 
L 191.89408 101.027196 
L 191.967012 103.449399 
L 192.163232 119.428329 
L 192.484479 139.451117 
L 192.698064 141.975271 
L 192.816144 142.17371 
L 192.854346 142.139801 
L 192.960271 141.775587 
L 193.081824 140.449009 
L 193.227687 135.775975 
L 193.422171 120.602071 
L 193.760782 95.565774 
L 193.78162 95.705944 
L 193.849342 98.252139 
L 194.057718 117.419617 
L 194.385911 139.45047 
L 194.594287 142.009315 
L 194.787035 142.317263 
L 195.092653 142.330779 
L 195.245462 142.177861 
L 195.368751 141.6329 
L 195.49725 139.901337 
L 195.646586 134.065843 
L 195.860172 114.945035 
L 196.150162 94.205328 
L 196.16058 94.240931 
L 196.210938 95.3882 
L 196.334227 104.617419 
L 196.789182 139.645629 
L 196.992348 142.000262 
L 197.108692 142.159844 
L 197.145158 142.134077 
L 197.233717 141.845556 
L 197.35527 140.481047 
L 197.508079 135.677069 
L 197.697354 121.332903 
L 198.039438 94.255659 
L 198.067222 94.488813 
L 198.147099 97.787975 
L 198.378049 120.205417 
L 198.63852 134.585575 
L 198.654148 134.633897 
L 198.695823 134.268178 
L 198.80522 130.416741 
L 199.18898 111.918802 
L 199.258438 113.059341 
L 199.421666 121.619399 
L 199.821054 140.540508 
L 200.031166 142.136954 
L 200.239543 142.333468 
L 200.826469 142.346633 
L 202.988371 142.237513 
L 203.122079 141.891327 
L 203.25926 140.718182 
L 203.450271 136.746681 
L 203.827084 127.385682 
L 203.879178 127.658537 
L 203.997258 130.074721 
L 204.519935 141.832582 
L 204.731784 142.297193 
L 205.006146 142.345073 
L 210.746907 142.346652 
L 249.22529 142.236305 
L 249.657671 142.155744 
L 250.555424 142.346498 
L 253.785254 142.242945 
L 253.990157 141.939893 
L 254.479841 140.857451 
L 254.5493 140.927949 
L 254.740311 141.436415 
L 255.101496 142.229381 
L 255.372385 142.338659 
L 256.666053 142.346652 
L 258.430304 142.236562 
L 258.645626 141.883886 
L 259.034595 141.188107 
L 259.060642 141.204367 
L 259.216924 141.475842 
L 259.673615 142.293375 
L 260.027854 142.345845 
L 262.438071 142.268739 
L 262.59609 141.982587 
L 262.761054 141.129838 
L 262.971167 138.572388 
L 263.460851 132.509999 
L 263.488634 132.503377 
L 263.528573 132.594248 
L 263.644916 133.456972 
L 263.901913 137.452197 
L 264.24747 141.640395 
L 264.478421 142.256564 
L 264.723263 142.342011 
L 266.522243 142.332703 
L 266.758402 142.178614 
L 266.914685 141.725137 
L 267.116115 140.265855 
L 267.466881 137.784943 
L 267.491192 137.808257 
L 267.581488 138.200925 
L 267.918363 141.157198 
L 268.171887 142.184252 
L 268.401101 142.332312 
L 269.118262 142.34665 
L 270.064637 142.237083 
L 270.203554 141.901789 
L 270.345944 140.797026 
L 270.510909 137.349894 
L 270.769642 126.244965 
L 271.155138 111.418437 
L 271.184658 111.535154 
L 271.268008 113.094569 
L 271.453811 121.87797 
L 271.882718 140.001685 
L 272.106722 142.014922 
L 272.316835 142.315732 
L 272.679757 142.345104 
L 272.97322 142.234931 
L 273.105191 141.858424 
L 273.231953 140.591719 
L 273.374344 136.509855 
L 273.572301 122.722899 
L 274.147072 79.717046 
L 274.174855 79.636346 
L 274.223476 79.912958 
L 274.338083 82.410487 
L 274.569033 93.307585 
L 275.421639 137.669181 
L 275.496307 138.073787 
L 275.548401 137.850441 
L 275.654325 135.985558 
L 275.857492 127.460968 
L 276.182211 115.913514 
L 276.185684 115.914626 
L 276.220414 116.111231 
L 276.315919 118.27762 
L 276.626747 132.84202 
L 276.86117 137.693901 
L 276.8959 137.5907 
L 276.991405 136.323679 
L 277.189363 130.19953 
L 277.44636 114.485591 
L 277.781498 78.211239 
L 278.134001 44.910433 
L 278.166994 44.64 
L 278.220824 45.284648 
L 278.349323 51.041767 
L 278.686198 64.112989 
L 279.10295 70.950981 
L 279.792327 101.665117 
L 280.104892 112.288249 
L 280.11531 112.29623 
L 280.148303 112.143556 
L 280.242072 110.29838 
L 280.516434 98.938412 
L 280.785587 92.758707 
L 280.835944 92.609811 
L 280.889775 92.792802 
L 281.013064 94.33277 
L 281.461073 101.550994 
L 281.518376 101.343824 
L 281.62951 99.732649 
L 281.843095 92.646364 
L 282.110511 85.968747 
L 282.122667 85.988491 
L 282.178234 86.548508 
L 282.301523 90.601619 
L 282.756477 109.695048 
L 282.808571 109.254625 
L 282.933597 105.367699 
L 283.49274 86.070473 
L 283.685487 81.048437 
L 284.103976 67.757177 
L 284.138705 67.885847 
L 284.234211 69.428771 
L 284.578032 80.221452 
L 284.857603 85.312289 
L 284.894069 85.36925 
L 284.946163 85.219077 
L 285.076398 83.924859 
L 285.246572 82.45317 
L 285.289983 82.594388 
L 285.382016 83.957639 
L 285.562609 90.88127 
L 286.060975 110.449856 
L 286.536767 120.942193 
L 286.574969 120.834696 
L 286.672212 119.631753 
L 286.903162 113.301419 
L 287.543918 95.877648 
L 287.556073 95.89092 
L 287.608167 96.310249 
L 287.727984 99.606434 
L 288.219404 115.842236 
L 288.25587 115.751733 
L 288.379159 114.629674 
L 288.589272 112.992858 
L 288.624001 113.06393 
L 288.710824 113.898763 
L 288.903572 118.526941 
L 289.33248 128.162262 
L 289.370682 128.210241 
L 289.424512 128.095834 
L 289.957608 126.263714 
L 290.013175 126.318133 
L 290.119099 126.741149 
L 290.270172 128.478103 
L 290.846679 137.342643 
L 290.902246 137.255403 
L 291.063738 136.436674 
L 291.365883 135.324461 
L 291.553422 134.609923 
L 291.841675 133.463367 
L 291.876405 133.492797 
L 291.985802 133.855733 
L 292.277529 135.049538 
L 292.324413 134.989848 
L 292.433811 134.434869 
L 292.64045 131.969485 
L 293.019 127.983216 
L 293.074567 128.084361 
L 293.197856 128.975796 
L 293.63371 132.315311 
L 293.836876 132.414646 
L 294.139022 132.353405 
L 294.314405 131.81841 
L 295.239942 128.021295 
L 295.312874 128.082831 
L 295.608073 128.459773 
L 295.66364 128.375675 
L 295.802558 127.769672 
L 296.059555 125.389685 
L 296.443314 122.46948 
L 296.778452 120.942159 
L 296.818391 120.991832 
L 296.915633 121.515783 
L 297.096226 123.980559 
L 297.591119 130.850387 
L 297.660578 130.92339 
L 297.710935 130.860814 
L 297.886319 130.261824 
L 298.452407 127.552329 
L 298.889997 125.02394 
L 298.966401 125.133917 
L 299.122683 125.924526 
L 299.426565 127.300757 
L 299.43872 127.295842 
L 299.523807 127.10454 
L 299.742602 125.87071 
L 299.989181 125.060361 
L 300.093369 125.166173 
L 300.350366 125.573783 
L 300.40246 125.510466 
L 300.537904 125.013809 
L 300.874779 123.775419 
L 300.888671 123.780463 
L 300.991122 123.964647 
L 301.232491 125.016729 
L 301.635352 127.60783 
L 302.020848 129.646583 
L 302.109407 129.686697 
L 302.149346 129.646139 
L 302.369878 129.149838 
L 302.534842 128.996285 
L 302.557416 129.011735 
L 302.696333 129.288703 
L 303.123504 130.124922 
L 303.264158 130.035157 
L 303.555885 129.683397 
L 303.602769 129.745259 
L 303.750369 130.287892 
L 303.925752 130.926464 
L 303.972637 130.821083 
L 304.076825 129.847544 
L 304.267837 125.500066 
L 304.950268 108.536166 
L 305.382649 102.210136 
L 305.391331 102.214147 
L 305.443425 102.420865 
L 305.556295 104.024673 
L 305.80982 111.840624 
L 306.15885 120.425138 
L 306.195315 120.318379 
L 306.289085 119.051665 
L 306.631169 112.100648 
L 306.711046 112.795364 
L 306.846491 117.186555 
L 307.391742 136.708609 
L 307.433417 136.781169 
L 307.487247 136.636783 
L 307.634847 135.365556 
L 308.148841 130.935344 
L 308.350272 130.632 
L 308.487453 129.453064 
L 308.869475 124.754334 
L 308.937198 125.020386 
L 309.060487 126.865615 
L 309.510232 134.797223 
L 309.541488 134.743735 
L 309.636994 134.016603 
L 310.102367 128.941793 
L 310.178772 129.177676 
L 310.31248 130.695912 
L 310.823001 137.010184 
L 310.897669 136.910136 
L 311.059161 136.132877 
L 311.706863 131.512731 
L 312.043738 126.7373 
L 312.083677 126.826828 
L 312.184392 127.776593 
L 312.408396 132.51883 
L 312.851195 141.034023 
L 313.063044 141.883387 
L 313.148131 141.777304 
L 313.293994 141.114527 
L 313.512789 138.855312 
L 314.120553 132.374217 
L 314.183066 132.479121 
L 314.301146 133.301134 
L 314.542515 136.949839 
L 314.907173 141.279823 
L 314.98705 141.431242 
L 315.037408 141.352126 
L 315.153751 140.679055 
L 315.358654 137.910423 
L 315.641699 134.835283 
L 315.653854 134.842684 
L 315.716367 135.093912 
L 315.860493 136.84702 
L 316.280719 141.820295 
L 316.492568 142.273544 
L 316.685315 142.261514 
L 316.843334 142.015407 
L 317.049974 141.155411 
L 317.393794 139.662179 
L 317.426787 139.687732 
L 317.537921 140.027294 
L 318.072753 142.069189 
L 318.095327 142.060233 
L 318.230772 141.855496 
L 318.439148 141.058646 
L 318.699618 139.084652 
L 319.302172 132.773164 
L 319.383786 132.866852 
L 319.769282 133.849145 
L 320.147832 135.620879 
L 320.406565 137.91128 
L 320.701765 139.914197 
L 320.703501 139.913982 
L 320.766014 139.788965 
L 320.892776 138.858057 
L 321.281745 135.691654 
L 321.311265 135.726164 
L 321.399825 136.197292 
L 321.695024 139.487342 
L 321.912083 140.682499 
L 321.922501 140.679208 
L 321.998906 140.503767 
L 322.160397 139.420967 
L 322.618825 135.536951 
L 322.676128 135.633912 
L 322.804627 136.429971 
L 323.158866 138.454542 
L 323.374188 138.574886 
L 323.612084 138.502024 
L 323.935067 138.034789 
L 323.999317 138.134098 
L 324.166017 138.809874 
L 324.508101 140.034243 
L 325.0985 140.456756 
L 325.107183 140.447026 
L 325.25131 140.100527 
L 325.567347 138.562753 
L 325.723629 138.168117 
L 325.758358 138.198071 
L 325.867756 138.560448 
L 326.253251 140.443103 
L 326.329656 140.316753 
L 326.485938 139.487302 
L 327.286449 134.436028 
L 327.473988 134.539418 
L 327.604223 134.899772 
L 327.824754 136.441039 
L 328.159893 138.297725 
L 328.38737 138.558733 
L 328.61832 138.496245 
L 328.911783 138.423643 
L 329.040282 138.781311 
L 329.495236 140.691288 
L 329.57685 140.583866 
L 329.785226 139.82913 
L 330.047433 139.230252 
L 330.19156 139.323711 
L 330.35826 139.399303 
L 330.382571 139.369543 
L 330.51107 138.964192 
L 330.853154 137.384974 
L 330.924349 137.527056 
L 331.073685 138.522679 
L 331.481755 141.207144 
L 331.58247 141.176833 
L 331.596362 141.15814 
L 331.825575 140.628069 
L 332.586148 138.317716 
L 332.916077 136.757547 
L 332.943861 136.776978 
L 333.041103 137.076403 
L 333.64192 139.371851 
L 333.841614 139.494599 
L 334.02568 139.699723 
L 334.067355 139.640611 
L 334.17328 139.134321 
L 334.397284 136.53657 
L 334.572667 135.333706 
L 334.60566 135.38173 
L 334.697693 135.986866 
L 335.201268 140.75997 
L 335.26899 140.683474 
L 335.484312 139.983019 
L 335.866335 139.077711 
L 336.147643 138.200632 
L 336.484518 136.408308 
L 337.034978 131.685623 
L 337.137429 132.031137 
L 337.311076 133.98791 
L 337.727828 138.308408 
L 337.774713 138.307211 
L 337.814652 138.240632 
L 338.101169 137.562997 
L 338.182783 137.671149 
L 338.368585 138.004763 
L 338.420679 137.921916 
L 338.543968 137.270417 
L 339.117002 131.880557 
L 339.577166 127.454872 
L 339.584112 127.457112 
L 339.650098 127.623912 
L 339.844582 128.954401 
L 340.129363 130.276429 
L 340.461028 131.149415 
L 341.058373 133.901503 
L 341.360518 134.826066 
L 341.561949 134.937504 
L 341.704339 134.715729 
L 341.990856 133.721338 
L 342.22007 132.020312 
L 342.546526 129.541242 
L 342.577782 129.578701 
L 342.675024 130.083463 
L 343.263687 133.810071 
L 343.430388 134.403943 
L 343.553677 134.791739 
L 343.600561 134.68456 
L 343.70475 133.719262 
L 343.909653 129.194872 
L 344.204852 124.310453 
L 344.25 124.413259 
L 344.357661 125.469538 
L 344.618131 130.841269 
L 344.994945 136.796539 
L 345.06614 136.945189 
L 345.119971 136.849016 
L 345.279726 135.953265 
L 345.456845 135.272269 
L 345.491575 135.315489 
L 345.594026 135.851375 
L 346.090656 139.957861 
L 346.198317 139.668948 
L 346.371964 138.196148 
L 346.915478 132.404362 
L 346.976254 132.525798 
L 347.10128 133.465674 
L 347.526714 136.776315 
L 347.589227 136.721756 
L 347.601383 136.691982 
L 347.743773 135.986213 
L 348.226511 133.474531 
L 348.403631 133.502921 
L 348.540811 133.817954 
L 348.716195 134.925887 
L 349.129474 137.744835 
L 349.153784 137.729661 
L 349.257973 137.444879 
L 349.593111 136.316886 
L 349.639995 136.356791 
L 349.813642 136.805089 
L 349.956032 137.008601 
L 349.992498 136.972688 
L 350.105369 136.567564 
L 350.341528 134.70128 
L 350.990967 128.878773 
L 351.020487 128.9129 
L 351.102101 129.391002 
L 351.25491 131.89919 
L 351.793215 141.788266 
L 352.006801 142.292863 
L 352.262061 142.322742 
L 352.484329 142.164919 
L 352.682286 141.679083 
L 352.944493 140.325528 
L 353.361245 138.434573 
L 353.477589 138.36957 
L 353.510581 138.400537 
L 353.658181 138.765388 
L 353.936016 140.145229 
L 354.351032 141.924491 
L 354.529888 142.021375 
L 354.700062 141.799139 
L 355.319981 140.356802 
L 355.861758 139.003761 
L 356.287193 138.825412 
L 356.469522 138.889337 
L 356.933159 139.183593 
L 357.127643 138.992554 
L 357.33081 138.453639 
L 357.782291 136.898336 
L 357.829176 136.942659 
L 357.96462 137.388342 
L 358.777287 140.565342 
L 359.062068 140.980045 
L 359.232242 140.880011 
L 359.782702 140.136973 
L 360.399148 139.063686 
L 360.843684 139.188938 
L 361.171876 139.62801 
L 361.229179 139.552002 
L 361.378516 139.006458 
L 361.868199 137.142486 
L 362.090467 136.992374 
L 362.267587 137.152792 
L 362.500274 137.306562 
L 362.514165 137.294318 
L 362.647873 136.997804 
L 363.121929 135.560602 
L 363.177496 135.594146 
L 363.43623 135.961827 
L 363.63245 136.586845 
L 363.912022 138.475967 
L 364.361767 140.81809 
L 364.778519 142.164698 
L 365.025097 142.327191 
L 365.363708 142.271985 
L 365.568612 142.004927 
L 365.773515 141.297746 
L 366.546243 138.162516 
L 366.80324 138.042815 
L 366.936948 137.465695 
L 367.117541 135.477885 
L 367.548185 130.243562 
L 367.575968 130.279665 
L 367.666264 130.796765 
L 368.08128 134.604095 
L 368.183732 134.369607 
L 368.359115 133.947013 
L 368.40079 133.999993 
L 368.511924 134.548652 
L 368.913048 136.556156 
L 369.107532 136.728625 
L 369.251659 137.509064 
L 369.763917 140.724335 
L 369.779545 140.719119 
L 369.892416 140.531408 
L 370.159832 140.079622 
L 370.187615 140.099993 
L 370.321323 140.400099 
L 370.798852 141.578884 
L 371.224286 141.55742 
L 371.361467 141.202254 
L 371.543796 139.973022 
L 371.953603 136.537292 
L 372.002224 136.614442 
L 372.118567 137.325302 
L 372.625615 140.803893 
L 372.816627 140.879912 
L 373.379242 140.808639 
L 374.410704 142.312124 
L 374.959428 142.346595 
L 388.80081 142.346652 
L 388.80081 142.346652 
" clip-path="url(#p5a1df47540)" style="fill: none; stroke: #ed0345; stroke-width: 2; stroke-linecap: square"/>
   </g>
   <g id="line2d_19">
    <path d="M 53.999461 142.346652 
L 60.997425 142.456655 
L 61.667701 142.802311 
L 61.959428 142.783403 
L 62.410909 142.844761 
L 62.864127 142.582614 
L 63.298244 142.362574 
L 64.14564 142.346652 
L 168.076692 142.457101 
L 168.194772 142.864964 
L 168.326743 144.351011 
L 168.462188 148.965164 
L 168.639307 164.408068 
L 169.08037 210.379318 
L 169.115099 209.986847 
L 169.208869 205.363962 
L 169.853098 161.298659 
L 169.919084 162.505281 
L 170.030218 170.952117 
L 170.438288 220.570773 
L 170.528584 216.421674 
L 170.709177 188.847456 
L 171.05647 147.73833 
L 171.264846 142.989436 
L 171.454121 142.408057 
L 171.692017 142.347223 
L 172.254633 142.450947 
L 172.367503 142.723804 
L 172.48211 143.853015 
L 172.621027 147.912664 
L 172.787728 160.55281 
L 173.227054 213.656739 
L 173.324297 209.289863 
L 173.520517 181.430472 
L 173.840027 147.653731 
L 174.058822 142.883442 
L 174.241151 142.404423 
L 174.477311 142.364022 
L 174.63012 142.529359 
L 174.753409 143.118716 
L 174.871489 145.10565 
L 175.00867 151.934871 
L 175.184053 174.731012 
L 175.579968 238.750163 
L 175.640744 236.147571 
L 175.781398 215.329392 
L 176.224197 149.826707 
L 176.278028 149.141633 
L 176.331858 149.912241 
L 176.43431 156.225574 
L 176.616639 184.797379 
L 176.974351 246.24 
L 177.016026 244.914752 
L 177.125424 231.091042 
L 177.714086 144.622631 
L 177.912044 142.592781 
L 178.099582 142.357344 
L 178.731656 142.346631 
L 180.942179 142.45707 
L 181.058523 142.874585 
L 181.187021 144.400047 
L 181.317256 149.282219 
L 181.480484 165.612175 
L 181.923284 231.653378 
L 182.006634 227.389618 
L 182.183754 197.130277 
L 182.541466 148.345207 
L 182.749842 143.15195 
L 182.946063 142.391447 
L 183.177013 142.349309 
L 184.998567 142.346652 
L 187.325434 142.456512 
L 187.47998 142.80266 
L 187.672727 143.902518 
L 188.155465 147.312593 
L 188.205823 147.270836 
L 188.410726 146.779864 
L 188.749337 145.698861 
L 189.395303 142.420551 
L 189.673138 142.349442 
L 192.626869 142.348561 
L 192.88213 142.463524 
L 193.014101 142.849536 
L 193.140864 144.132236 
L 193.2902 148.384545 
L 193.528096 163.665882 
L 193.790302 176.397858 
L 193.807667 176.320679 
L 193.873653 174.609969 
L 194.069874 161.965212 
L 194.413694 144.519493 
L 194.620334 142.673466 
L 194.68111 142.635756 
L 194.727995 142.70402 
L 194.832183 143.256431 
L 194.969364 145.407814 
L 195.129119 152.341949 
L 195.570182 181.787012 
L 195.66916 179.277962 
L 195.856699 164.576941 
L 196.179682 145.409821 
L 196.393267 142.687238 
L 196.592961 142.374984 
L 196.89337 142.382096 
L 197.042706 142.5764 
L 197.167732 143.263176 
L 197.294494 145.534502 
L 197.464668 153.594759 
L 197.90573 185.614419 
L 198.004709 182.904433 
L 198.204403 165.998816 
L 198.523913 145.538107 
L 198.739235 142.767982 
L 198.794802 142.699634 
L 198.848632 142.78362 
L 198.951084 143.37922 
L 199.083055 145.828074 
L 199.244547 153.859808 
L 199.685609 185.302841 
L 199.762014 183.357507 
L 199.94608 168.860774 
L 200.251698 151.053996 
L 200.262117 151.035239 
L 200.296846 151.28474 
L 200.395825 154.191492 
L 200.767429 170.277345 
L 200.849043 168.948135 
L 201.027899 159.949876 
L 201.394293 144.202154 
L 201.613088 142.54909 
L 201.805836 142.362617 
L 202.578564 142.346658 
L 204.334133 142.456573 
L 204.479996 142.820308 
L 204.613704 143.933918 
L 204.804716 147.894678 
L 205.178056 157.021779 
L 205.228414 156.773129 
L 205.343021 154.58504 
L 205.888271 142.779309 
L 206.094911 142.390685 
L 206.39011 142.347483 
L 217.243032 142.346652 
L 249.227027 142.457524 
L 249.657671 142.537392 
L 250.557161 142.346803 
L 253.785254 142.449558 
L 253.990157 142.7507 
L 254.479841 143.831865 
L 254.551036 143.759634 
L 254.743784 143.245365 
L 255.103233 142.462516 
L 255.374122 142.354513 
L 256.685155 142.346652 
L 258.432041 142.456889 
L 258.647363 142.808856 
L 259.036332 143.500098 
L 259.060642 143.485113 
L 259.215188 143.220878 
L 259.677088 142.398553 
L 260.036537 142.347356 
L 262.446754 142.428087 
L 262.604772 142.720679 
L 262.769737 143.589251 
L 262.983322 146.227091 
L 263.460851 152.150198 
L 263.490371 152.161675 
L 263.533782 152.060893 
L 263.653599 151.142262 
L 263.922751 146.891697 
L 264.25268 143.033678 
L 264.48363 142.433089 
L 264.731945 142.350903 
L 266.54829 142.365466 
L 266.768821 142.528429 
L 266.925103 143.006404 
L 267.135216 144.57407 
L 267.466881 146.857277 
L 267.485982 146.843424 
L 267.567596 146.536514 
L 267.803756 144.487855 
L 268.114584 142.618905 
L 268.338588 142.37622 
L 268.803961 142.346726 
L 270.076792 142.454341 
L 270.212236 142.774054 
L 270.35289 143.826835 
L 270.516118 147.13315 
L 270.769642 157.77357 
L 271.162084 172.940555 
L 271.16382 172.940139 
L 271.195077 172.796106 
L 271.283637 171.001747 
L 271.490276 160.870648 
L 271.889664 144.620447 
L 272.113668 142.665138 
L 272.325517 142.374988 
L 272.705804 142.347896 
L 272.994057 142.459727 
L 273.124292 142.830495 
L 273.252791 144.11201 
L 273.395181 148.251453 
L 273.598348 162.418595 
L 274.167909 205.021993 
L 274.190483 205.078172 
L 274.237368 204.811488 
L 274.348502 202.362932 
L 274.577716 191.366985 
L 275.416429 147.085547 
L 275.501516 146.55023 
L 275.55361 146.764273 
L 275.659535 148.596959 
L 275.862701 156.98788 
L 276.187421 168.302469 
L 276.190894 168.30062 
L 276.22736 168.082352 
L 276.326338 165.770627 
L 276.871589 146.720076 
L 276.956676 147.286985 
L 277.116431 150.77935 
L 277.350854 161.334897 
L 277.652999 186.744724 
L 278.199987 240.42112 
L 278.252081 239.743761 
L 278.390998 233.25487 
L 278.700089 221.957908 
L 279.104686 216.074554 
L 279.695085 188.650069 
L 280.122256 172.467041 
L 280.127466 172.471017 
L 280.169141 172.751162 
L 280.280275 175.441322 
L 280.844627 193.198221 
L 280.893248 193.030481 
L 281.011328 191.477171 
L 281.469755 183.612576 
L 281.527058 183.813293 
L 281.639929 185.388357 
L 281.856987 192.262731 
L 282.115721 198.355539 
L 282.131349 198.328662 
L 282.190389 197.679896 
L 282.317151 193.246548 
L 282.784261 172.751691 
L 282.836355 173.14254 
L 282.957908 176.621985 
L 284.090084 217.915392 
L 284.123077 218.027289 
L 284.175171 217.734678 
L 284.30367 215.064976 
L 284.880177 201.571086 
L 284.894069 201.582857 
L 284.961791 201.905133 
L 285.236153 204.637278 
L 285.328186 203.908666 
L 285.46363 199.85853 
L 286.357911 166.572786 
L 286.541976 164.254816 
L 286.564551 164.293356 
L 286.639219 164.949668 
L 286.812865 168.924189 
L 287.545655 189.263961 
L 287.597749 188.977024 
L 287.701937 186.529753 
L 288.219404 169.232118 
L 288.302754 169.640401 
L 288.594481 172.203885 
L 288.665676 171.883163 
L 288.795911 169.637612 
L 289.368946 156.635511 
L 289.436668 156.797327 
L 289.955872 158.669257 
L 289.974973 158.660501 
L 290.067005 158.459246 
L 290.197241 157.483781 
L 290.40388 153.773618 
L 290.801531 147.502455 
L 290.853625 147.437073 
L 290.907456 147.534057 
L 291.082839 148.442974 
L 291.36762 149.417753 
L 291.544739 150.072419 
L 291.843412 151.30799 
L 291.88335 151.268684 
L 291.997957 150.840185 
L 292.284474 149.614632 
L 292.324413 149.662615 
L 292.428601 150.164023 
L 292.626559 152.456459 
L 293.010318 156.47453 
L 293.012054 156.474278 
L 293.067621 156.346741 
L 293.199593 155.289275 
L 293.602453 152.037943 
L 293.769154 151.991214 
L 294.151177 152.198368 
L 294.349134 152.962321 
L 295.236469 156.862294 
L 295.364968 156.819744 
L 295.621965 156.581474 
L 295.66364 156.640154 
L 295.795612 157.148716 
L 296.024825 159.144348 
L 296.438105 162.393809 
L 296.771506 163.763742 
L 296.807972 163.724427 
L 296.901741 163.283692 
L 297.075388 161.164829 
L 297.618903 154.090541 
L 297.677942 154.061487 
L 297.724827 154.124151 
L 297.910629 154.745514 
L 298.45588 157.245356 
L 298.89347 159.661243 
L 298.969874 159.539778 
L 299.129629 158.710051 
L 299.428302 157.3601 
L 299.43872 157.364179 
L 299.522071 157.549491 
L 299.716555 158.699192 
L 300.003072 159.915337 
L 300.114206 159.85381 
L 300.353839 159.545432 
L 300.405933 159.615679 
L 300.541377 160.148554 
L 300.886934 161.527303 
L 300.900826 161.52212 
L 301.001541 161.336135 
L 301.253329 160.223846 
L 301.65098 157.668972 
L 302.046895 155.555149 
L 302.14761 155.512916 
L 302.182339 155.544675 
L 302.540051 155.985699 
L 302.60951 155.882702 
L 303.173862 154.819363 
L 303.222483 154.853069 
L 303.509 155.061794 
L 303.547203 155.00187 
L 303.68612 154.462609 
L 303.920543 153.385436 
L 303.970901 153.517742 
L 304.078562 154.683522 
L 304.276519 159.777041 
L 304.81656 174.055219 
L 305.1708 180.705531 
L 305.377439 183.16374 
L 305.40175 183.119455 
L 305.478154 182.420559 
L 305.634436 178.424282 
L 306.146694 163.88699 
L 306.171005 163.935265 
L 306.247409 164.715194 
L 306.457522 169.901815 
L 306.632905 172.6642 
L 306.665898 172.546207 
L 306.750985 171.106044 
L 306.938524 162.989702 
L 307.315337 148.60477 
L 307.429944 147.91723 
L 307.473355 148.008081 
L 307.596645 148.946497 
L 308.193989 153.941393 
L 308.325961 154.130056 
L 308.450987 154.966505 
L 308.70972 158.838287 
L 308.867739 160.057236 
L 308.902468 159.987322 
L 308.992765 159.157069 
L 309.209823 154.358925 
L 309.499813 149.990632 
L 309.518914 149.981542 
L 309.560589 150.098362 
L 309.682142 151.259241 
L 310.109313 155.844141 
L 310.137097 155.814579 
L 310.218711 155.372108 
L 310.394094 152.825722 
L 310.770907 147.889678 
L 310.849048 147.777369 
L 310.899406 147.845979 
L 311.04006 148.464528 
L 311.684289 152.880501 
L 312.042001 158.045893 
L 312.092359 157.910333 
L 312.205229 156.689027 
L 312.463963 150.827185 
L 312.851195 143.680373 
L 313.063044 142.813584 
L 313.148131 142.917369 
L 313.292258 143.567326 
L 313.509316 145.804758 
L 314.124026 152.428175 
L 314.125762 152.42797 
L 314.188275 152.305722 
L 314.309828 151.404553 
L 314.566825 147.393775 
L 314.915855 143.377466 
L 314.990523 143.245489 
L 315.042617 143.327769 
L 315.160697 144.02115 
L 315.3656 146.841042 
L 315.650381 149.977861 
L 315.662536 149.969122 
L 315.726785 149.695389 
L 315.874385 147.823105 
L 316.285928 142.888667 
L 316.497777 142.421664 
L 316.690525 142.429579 
L 316.846807 142.666131 
L 317.049974 143.488292 
L 317.402477 145.015937 
L 317.438942 144.985278 
L 317.553549 144.61857 
L 318.076226 142.631452 
L 318.086645 142.634594 
L 318.215143 142.802893 
L 318.413101 143.503671 
L 318.671834 145.340834 
L 318.96877 149.423859 
L 319.244869 151.842856 
L 319.314327 151.890175 
L 319.364685 151.835729 
L 319.720661 151.066023 
L 319.98634 149.986398 
L 320.285013 148.09688 
L 320.705238 144.768371 
L 320.746913 144.822796 
L 320.849365 145.396347 
L 321.286954 149.06617 
L 321.365095 148.837866 
L 321.533533 147.220649 
L 321.906873 144.073963 
L 321.971123 144.14538 
L 321.978068 144.164222 
L 322.113513 144.891531 
L 322.426077 148.166018 
L 322.620561 149.150955 
L 322.639662 149.139167 
L 322.71954 148.879984 
L 323.341195 146.145755 
L 323.599929 146.190001 
L 323.942013 146.718506 
L 324.021891 146.573003 
L 324.207693 145.711662 
L 324.504629 144.670333 
L 325.122811 144.145078 
L 325.16275 144.202694 
L 325.329451 144.737834 
L 325.740993 146.42979 
L 325.803506 146.345472 
L 325.942424 145.714426 
L 326.277562 144.117183 
L 326.308818 144.141019 
L 326.414743 144.469468 
L 326.640484 146.080104 
L 327.149269 149.58621 
L 327.263875 149.618241 
L 327.289922 149.596383 
L 327.779606 148.968116 
L 328.448146 146.74402 
L 328.816277 146.365643 
L 329.012498 146.191684 
L 329.182672 145.561654 
L 329.557749 144.147763 
L 329.564695 144.149862 
L 329.663673 144.307141 
L 330.12731 145.581439 
L 330.21587 145.494265 
L 330.406882 145.313116 
L 330.441611 145.352133 
L 330.559691 145.74988 
L 330.919139 147.603436 
L 330.993808 147.445321 
L 331.136198 146.415055 
L 331.568578 143.234581 
L 331.653665 143.228955 
L 331.686658 143.268852 
L 331.867251 143.742163 
L 332.410765 145.294632 
L 332.424657 145.289622 
L 332.679917 145.299077 
L 332.846618 145.912326 
L 333.305046 147.769859 
L 333.32762 147.757975 
L 333.433544 147.517619 
L 334.204536 144.332834 
L 334.600451 142.602543 
L 334.732422 142.550015 
L 334.756733 142.571501 
L 334.89565 142.889109 
L 335.090134 143.98383 
L 335.779512 148.569628 
L 336.939472 151.339803 
L 337.017613 151.229584 
L 337.146112 150.512029 
L 337.403109 147.398375 
L 337.778186 143.721825 
L 337.814652 143.712971 
L 337.858063 143.799465 
L 337.97788 144.553879 
L 338.405051 148.563197 
L 338.491874 148.30162 
L 338.656839 146.672077 
L 338.946829 144.493339 
L 338.948565 144.493638 
L 339.005869 144.625324 
L 339.120475 145.65257 
L 339.363581 150.356052 
L 339.764705 157.263031 
L 339.787279 157.259718 
L 339.822008 157.169605 
L 339.95398 156.187086 
L 340.311692 153.786482 
L 340.530487 152.517538 
L 341.105258 148.346924 
L 341.133041 148.378952 
L 341.218128 148.835182 
L 341.400457 151.306025 
L 341.676555 154.462823 
L 341.695657 154.439822 
L 341.770325 153.9944 
L 341.964809 151.100935 
L 342.199232 148.982235 
L 342.204442 148.983971 
L 342.266954 149.149769 
L 342.5691 150.765236 
L 342.671551 150.48407 
L 342.987588 148.912665 
L 343.062257 149.101362 
L 343.215066 150.427078 
L 343.553677 153.244574 
L 343.572778 153.22811 
L 343.657865 152.871646 
L 343.939173 151.397284 
L 343.993003 151.483744 
L 344.126711 152.237012 
L 344.432329 153.849658 
L 344.447958 153.842573 
L 344.534781 153.624695 
L 344.760522 152.253427 
L 345.493311 147.892659 
L 345.59229 147.805921 
L 345.633965 147.845198 
L 345.774619 148.239803 
L 346.05419 149.806017 
L 346.498726 152.63409 
L 346.543874 152.563307 
L 346.661954 151.851558 
L 347.373905 146.703962 
L 347.375642 146.704169 
L 347.485039 146.832848 
L 347.929575 147.473154 
L 348.061546 147.71891 
L 348.233457 148.668597 
L 348.677992 151.132274 
L 348.849903 151.136887 
L 349.021813 150.917843 
L 349.21977 150.22372 
L 349.702508 148.494404 
L 349.879628 148.315593 
L 349.907411 148.341571 
L 350.001181 148.66339 
L 350.173091 150.325568 
L 350.487391 153.146676 
L 350.506493 153.131261 
L 350.582897 152.785573 
L 350.96492 150.637272 
L 351.001386 150.653163 
L 351.249701 150.691461 
L 351.433766 150.226185 
L 351.659507 149.095439 
L 351.916504 146.371235 
L 352.185657 144.414536 
L 352.190866 144.415888 
L 352.249906 144.568143 
L 352.374932 145.713326 
L 352.748272 150.033799 
L 352.805576 149.868895 
L 352.951439 148.42182 
L 353.253584 146.007332 
L 353.255321 146.00753 
L 353.321306 146.131309 
L 353.500163 147.167589 
L 353.699856 147.951828 
L 353.72764 147.930103 
L 353.817936 147.599966 
L 354.028049 145.685827 
L 354.406599 142.921521 
L 354.56809 142.764821 
L 354.581982 142.771464 
L 354.743473 142.991324 
L 355.43806 144.568076 
L 355.795773 145.429313 
L 356.038878 145.426428 
L 356.229889 145.562568 
L 356.481677 145.654532 
L 356.773404 145.638845 
L 357.332546 146.29242 
L 357.546132 146.848775 
L 357.872588 147.723285 
L 357.903844 147.702256 
L 358.02366 147.411751 
L 358.403947 145.586696 
L 358.879739 144.124758 
L 359.119371 143.825358 
L 359.284336 143.962423 
L 360.081374 145.187914 
L 360.338372 145.497356 
L 360.579741 145.381904 
L 361.067688 145.034464 
L 361.220497 144.959489 
L 361.244808 144.983941 
L 361.364624 145.318015 
L 362.007117 147.733014 
L 362.052265 147.7088 
L 362.224175 147.420043 
L 362.512429 147.017119 
L 362.521111 147.021622 
L 362.639191 147.223298 
L 362.857986 148.18131 
L 363.106301 148.864662 
L 363.11151 148.863242 
L 363.220908 148.707556 
L 363.528262 148.241057 
L 363.536945 148.245037 
L 363.734902 148.246828 
L 363.743584 148.228461 
L 363.882502 147.640864 
L 364.825403 142.619357 
L 364.97474 142.699673 
L 365.660644 143.655825 
L 365.884649 144.859258 
L 366.224996 146.377467 
L 366.310083 146.321071 
L 366.318766 146.303532 
L 366.473311 145.702458 
L 366.825814 144.39823 
L 366.841442 144.406475 
L 366.926529 144.624148 
L 367.079338 145.779877 
L 367.569022 150.151409 
L 367.598542 150.130327 
L 367.709676 149.799569 
L 368.089962 148.669611 
L 368.218461 148.756459 
L 368.37127 149.219053 
L 368.583119 150.742726 
L 368.89742 152.757499 
L 368.909575 152.751836 
L 368.984243 152.548939 
L 369.15789 151.23926 
L 369.99834 144.144289 
L 370.180669 143.966381 
L 370.505389 143.912014 
L 370.718974 143.904709 
L 370.998545 144.015634 
L 371.005491 144.007141 
L 371.16351 143.620444 
L 371.446554 143.01954 
L 371.465655 143.029801 
L 371.57158 143.252688 
L 371.7678 144.34156 
L 372.15156 146.282969 
L 372.227964 146.272845 
L 372.257484 146.227674 
L 372.431131 145.656752 
L 373.078833 143.483223 
L 373.323675 143.291918 
L 373.48864 143.441646 
L 373.846352 143.854285 
L 373.872399 143.832251 
L 374.026945 143.509506 
L 374.50621 142.423831 
L 374.82051 142.348818 
L 379.576695 142.346652 
L 388.80081 142.346652 
L 388.80081 142.346652 
" clip-path="url(#p5a1df47540)" style="fill: none; stroke: #ed0345; stroke-width: 2; stroke-linecap: square"/>
   </g>
   <g id="patch_3">
    <path d="M 54 256.32 
L 54 34.56 
" style="fill: none; stroke: #000000; stroke-linejoin: miter; stroke-linecap: square"/>
   </g>
   <g id="patch_4">
    <path d="M 388.8 256.32 
L 388.8 34.56 
" style="fill: none; stroke: #000000; stroke-linejoin: miter; stroke-linecap: square"/>
   </g>
   <g id="patch_5">
    <path d="M 54 256.32 
L 388.8 256.32 
" style="fill: none; stroke: #000000; stroke-linejoin: miter; stroke-linecap: square"/>
   </g>
   <g id="patch_6">
    <path d="M 54 34.56 
L 388.8 34.56 
" style="fill: none; stroke: #000000; stroke-linejoin: miter; stroke-linecap: square"/>
   </g>
  </g>
 </g>
 <defs>
  <clipPath id="p5a1df47540">
   <rect x="54" y="34.56" width="334.8" height="221.76"/>
  </clipPath>
 </defs>
</svg>
