<?xml version="1.0" encoding="utf-8" standalone="no"?>
<!DOCTYPE svg PUBLIC "-//W3C//DTD SVG 1.1//EN"
  "http://www.w3.org/Graphics/SVG/1.1/DTD/svg11.dtd">
<svg xmlns:xlink="http://www.w3.org/1999/xlink" width="432pt" height="288pt" viewBox="0 0 432 288" xmlns="http://www.w3.org/2000/svg" version="1.1">
 <metadata>
  <rdf:RDF xmlns:dc="http://purl.org/dc/elements/1.1/" xmlns:cc="http://creativecommons.org/ns#" xmlns:rdf="http://www.w3.org/1999/02/22-rdf-syntax-ns#">
   <cc:Work>
    <dc:type rdf:resource="http://purl.org/dc/dcmitype/StillImage"/>
    <dc:date>2022-08-04T21:50:25.607278</dc:date>
    <dc:format>image/svg+xml</dc:format>
    <dc:creator>
     <cc:Agent>
      <dc:title>Matplotlib v3.5.2, https://matplotlib.org/</dc:title>
     </cc:Agent>
    </dc:creator>
   </cc:Work>
  </rdf:RDF>
 </metadata>
 <defs>
  <style type="text/css">*{stroke-linejoin: round; stroke-linecap: butt}</style>
 </defs>
 <g id="figure_1">
  <g id="patch_1">
   <path d="M 0 288
L 432 288
L 432 0
L 0 0
z
" style="fill: #ffffff"/>
  </g>
  <g id="axes_1">
   <g id="patch_2">
    <path d="M 54 256.32
L 388.8 256.32
L 388.8 34.56
L 54 34.56
z
" style="fill: #ffffff"/>
   </g>
   <g id="matplotlib.axis_1">
    <g id="xtick_1">
     <g id="line2d_1">
      <defs>
       <path id="m8e68dd2944" d="M 0 0
L 0 3.5
" style="stroke: #000000; stroke-width: 0.8"/>
      </defs>
      <g>
       <use xlink:href="#m8e68dd2944" x="54" y="256.32" style="stroke: #000000; stroke-width: 0.8"/>
      </g>
     </g>
     <g id="text_1">
      <!-- −35 -->
      <g transform="translate(43.447656 270.918437)scale(0.1 -0.1)">
       <defs>
        <path id="DejaVuSans-2212" d="M 678 2272
L 4684 2272
L 4684 1741
L 678 1741
L 678 2272
z
" transform="scale(0.015625)"/>
        <path id="DejaVuSans-33" d="M 2597 2516
Q 3050 2419 3304 2112
Q 3559 1806 3559 1356
Q 3559 666 3084 287
Q 2609 -91 1734 -91
Q 1441 -91 1130 -33
Q 819 25 488 141
L 488 750
Q 750 597 1062 519
Q 1375 441 1716 441
Q 2309 441 2620 675
Q 2931 909 2931 1356
Q 2931 1769 2642 2001
Q 2353 2234 1838 2234
L 1294 2234
L 1294 2753
L 1863 2753
Q 2328 2753 2575 2939
Q 2822 3125 2822 3475
Q 2822 3834 2567 4026
Q 2313 4219 1838 4219
Q 1578 4219 1281 4162
Q 984 4106 628 3988
L 628 4550
Q 988 4650 1302 4700
Q 1616 4750 1894 4750
Q 2613 4750 3031 4423
Q 3450 4097 3450 3541
Q 3450 3153 3228 2886
Q 3006 2619 2597 2516
z
" transform="scale(0.015625)"/>
        <path id="DejaVuSans-35" d="M 691 4666
L 3169 4666
L 3169 4134
L 1269 4134
L 1269 2991
Q 1406 3038 1543 3061
Q 1681 3084 1819 3084
Q 2600 3084 3056 2656
Q 3513 2228 3513 1497
Q 3513 744 3044 326
Q 2575 -91 1722 -91
Q 1428 -91 1123 -41
Q 819 9 494 109
L 494 744
Q 775 591 1075 516
Q 1375 441 1709 441
Q 2250 441 2565 725
Q 2881 1009 2881 1497
Q 2881 1984 2565 2268
Q 2250 2553 1709 2553
Q 1456 2553 1204 2497
Q 953 2441 691 2322
L 691 4666
z
" transform="scale(0.015625)"/>
       </defs>
       <use xlink:href="#DejaVuSans-2212"/>
       <use xlink:href="#DejaVuSans-33" x="83.789062"/>
       <use xlink:href="#DejaVuSans-35" x="147.412109"/>
      </g>
     </g>
    </g>
    <g id="xtick_2">
     <g id="line2d_2">
      <g>
       <use xlink:href="#m8e68dd2944" x="91.2" y="256.32" style="stroke: #000000; stroke-width: 0.8"/>
      </g>
     </g>
     <g id="text_2">
      <!-- −30 -->
      <g transform="translate(80.647656 270.918437)scale(0.1 -0.1)">
       <defs>
        <path id="DejaVuSans-30" d="M 2034 4250
Q 1547 4250 1301 3770
Q 1056 3291 1056 2328
Q 1056 1369 1301 889
Q 1547 409 2034 409
Q 2525 409 2770 889
Q 3016 1369 3016 2328
Q 3016 3291 2770 3770
Q 2525 4250 2034 4250
z
M 2034 4750
Q 2819 4750 3233 4129
Q 3647 3509 3647 2328
Q 3647 1150 3233 529
Q 2819 -91 2034 -91
Q 1250 -91 836 529
Q 422 1150 422 2328
Q 422 3509 836 4129
Q 1250 4750 2034 4750
z
" transform="scale(0.015625)"/>
       </defs>
       <use xlink:href="#DejaVuSans-2212"/>
       <use xlink:href="#DejaVuSans-33" x="83.789062"/>
       <use xlink:href="#DejaVuSans-30" x="147.412109"/>
      </g>
     </g>
    </g>
    <g id="xtick_3">
     <g id="line2d_3">
      <g>
       <use xlink:href="#m8e68dd2944" x="128.4" y="256.32" style="stroke: #000000; stroke-width: 0.8"/>
      </g>
     </g>
     <g id="text_3">
      <!-- −25 -->
      <g transform="translate(117.847656 270.918437)scale(0.1 -0.1)">
       <defs>
        <path id="DejaVuSans-32" d="M 1228 531
L 3431 531
L 3431 0
L 469 0
L 469 531
Q 828 903 1448 1529
Q 2069 2156 2228 2338
Q 2531 2678 2651 2914
Q 2772 3150 2772 3378
Q 2772 3750 2511 3984
Q 2250 4219 1831 4219
Q 1534 4219 1204 4116
Q 875 4013 500 3803
L 500 4441
Q 881 4594 1212 4672
Q 1544 4750 1819 4750
Q 2544 4750 2975 4387
Q 3406 4025 3406 3419
Q 3406 3131 3298 2873
Q 3191 2616 2906 2266
Q 2828 2175 2409 1742
Q 1991 1309 1228 531
z
" transform="scale(0.015625)"/>
       </defs>
       <use xlink:href="#DejaVuSans-2212"/>
       <use xlink:href="#DejaVuSans-32" x="83.789062"/>
       <use xlink:href="#DejaVuSans-35" x="147.412109"/>
      </g>
     </g>
    </g>
    <g id="xtick_4">
     <g id="line2d_4">
      <g>
       <use xlink:href="#m8e68dd2944" x="165.6" y="256.32" style="stroke: #000000; stroke-width: 0.8"/>
      </g>
     </g>
     <g id="text_4">
      <!-- −20 -->
      <g transform="translate(155.047656 270.918437)scale(0.1 -0.1)">
       <use xlink:href="#DejaVuSans-2212"/>
       <use xlink:href="#DejaVuSans-32" x="83.789062"/>
       <use xlink:href="#DejaVuSans-30" x="147.412109"/>
      </g>
     </g>
    </g>
    <g id="xtick_5">
     <g id="line2d_5">
      <g>
       <use xlink:href="#m8e68dd2944" x="202.8" y="256.32" style="stroke: #000000; stroke-width: 0.8"/>
      </g>
     </g>
     <g id="text_5">
      <!-- −15 -->
      <g transform="translate(192.247656 270.918437)scale(0.1 -0.1)">
       <defs>
        <path id="DejaVuSans-31" d="M 794 531
L 1825 531
L 1825 4091
L 703 3866
L 703 4441
L 1819 4666
L 2450 4666
L 2450 531
L 3481 531
L 3481 0
L 794 0
L 794 531
z
" transform="scale(0.015625)"/>
       </defs>
       <use xlink:href="#DejaVuSans-2212"/>
       <use xlink:href="#DejaVuSans-31" x="83.789062"/>
       <use xlink:href="#DejaVuSans-35" x="147.412109"/>
      </g>
     </g>
    </g>
    <g id="xtick_6">
     <g id="line2d_6">
      <g>
       <use xlink:href="#m8e68dd2944" x="240" y="256.32" style="stroke: #000000; stroke-width: 0.8"/>
      </g>
     </g>
     <g id="text_6">
      <!-- −10 -->
      <g transform="translate(229.447656 270.918437)scale(0.1 -0.1)">
       <use xlink:href="#DejaVuSans-2212"/>
       <use xlink:href="#DejaVuSans-31" x="83.789062"/>
       <use xlink:href="#DejaVuSans-30" x="147.412109"/>
      </g>
     </g>
    </g>
    <g id="xtick_7">
     <g id="line2d_7">
      <g>
       <use xlink:href="#m8e68dd2944" x="277.2" y="256.32" style="stroke: #000000; stroke-width: 0.8"/>
      </g>
     </g>
     <g id="text_7">
      <!-- −5 -->
      <g transform="translate(269.828906 270.918437)scale(0.1 -0.1)">
       <use xlink:href="#DejaVuSans-2212"/>
       <use xlink:href="#DejaVuSans-35" x="83.789062"/>
      </g>
     </g>
    </g>
    <g id="xtick_8">
     <g id="line2d_8">
      <g>
       <use xlink:href="#m8e68dd2944" x="314.4" y="256.32" style="stroke: #000000; stroke-width: 0.8"/>
      </g>
     </g>
     <g id="text_8">
      <!-- 0 -->
      <g transform="translate(311.21875 270.918437)scale(0.1 -0.1)">
       <use xlink:href="#DejaVuSans-30"/>
      </g>
     </g>
    </g>
    <g id="xtick_9">
     <g id="line2d_9">
      <g>
       <use xlink:href="#m8e68dd2944" x="351.6" y="256.32" style="stroke: #000000; stroke-width: 0.8"/>
      </g>
     </g>
     <g id="text_9">
      <!-- 5 -->
      <g transform="translate(348.41875 270.918437)scale(0.1 -0.1)">
       <use xlink:href="#DejaVuSans-35"/>
      </g>
     </g>
    </g>
    <g id="xtick_10">
     <g id="line2d_10">
      <g>
       <use xlink:href="#m8e68dd2944" x="388.8" y="256.32" style="stroke: #000000; stroke-width: 0.8"/>
      </g>
     </g>
     <g id="text_10">
      <!-- 10 -->
      <g transform="translate(382.4375 270.918437)scale(0.1 -0.1)">
       <use xlink:href="#DejaVuSans-31"/>
       <use xlink:href="#DejaVuSans-30" x="63.623047"/>
      </g>
     </g>
    </g>
    <g id="text_11">
     <!-- Energy (eV) -->
     <g transform="translate(188.956875 285.356406)scale(0.11 -0.11)">
      <defs>
       <path id="DejaVuSans-45" d="M 628 4666
L 3578 4666
L 3578 4134
L 1259 4134
L 1259 2753
L 3481 2753
L 3481 2222
L 1259 2222
L 1259 531
L 3634 531
L 3634 0
L 628 0
L 628 4666
z
" transform="scale(0.015625)"/>
       <path id="DejaVuSans-6e" d="M 3513 2113
L 3513 0
L 2938 0
L 2938 2094
Q 2938 2591 2744 2837
Q 2550 3084 2163 3084
Q 1697 3084 1428 2787
Q 1159 2491 1159 1978
L 1159 0
L 581 0
L 581 3500
L 1159 3500
L 1159 2956
Q 1366 3272 1645 3428
Q 1925 3584 2291 3584
Q 2894 3584 3203 3211
Q 3513 2838 3513 2113
z
" transform="scale(0.015625)"/>
       <path id="DejaVuSans-65" d="M 3597 1894
L 3597 1613
L 953 1613
Q 991 1019 1311 708
Q 1631 397 2203 397
Q 2534 397 2845 478
Q 3156 559 3463 722
L 3463 178
Q 3153 47 2828 -22
Q 2503 -91 2169 -91
Q 1331 -91 842 396
Q 353 884 353 1716
Q 353 2575 817 3079
Q 1281 3584 2069 3584
Q 2775 3584 3186 3129
Q 3597 2675 3597 1894
z
M 3022 2063
Q 3016 2534 2758 2815
Q 2500 3097 2075 3097
Q 1594 3097 1305 2825
Q 1016 2553 972 2059
L 3022 2063
z
" transform="scale(0.015625)"/>
       <path id="DejaVuSans-72" d="M 2631 2963
Q 2534 3019 2420 3045
Q 2306 3072 2169 3072
Q 1681 3072 1420 2755
Q 1159 2438 1159 1844
L 1159 0
L 581 0
L 581 3500
L 1159 3500
L 1159 2956
Q 1341 3275 1631 3429
Q 1922 3584 2338 3584
Q 2397 3584 2469 3576
Q 2541 3569 2628 3553
L 2631 2963
z
" transform="scale(0.015625)"/>
       <path id="DejaVuSans-67" d="M 2906 1791
Q 2906 2416 2648 2759
Q 2391 3103 1925 3103
Q 1463 3103 1205 2759
Q 947 2416 947 1791
Q 947 1169 1205 825
Q 1463 481 1925 481
Q 2391 481 2648 825
Q 2906 1169 2906 1791
z
M 3481 434
Q 3481 -459 3084 -895
Q 2688 -1331 1869 -1331
Q 1566 -1331 1297 -1286
Q 1028 -1241 775 -1147
L 775 -588
Q 1028 -725 1275 -790
Q 1522 -856 1778 -856
Q 2344 -856 2625 -561
Q 2906 -266 2906 331
L 2906 616
Q 2728 306 2450 153
Q 2172 0 1784 0
Q 1141 0 747 490
Q 353 981 353 1791
Q 353 2603 747 3093
Q 1141 3584 1784 3584
Q 2172 3584 2450 3431
Q 2728 3278 2906 2969
L 2906 3500
L 3481 3500
L 3481 434
z
" transform="scale(0.015625)"/>
       <path id="DejaVuSans-79" d="M 2059 -325
Q 1816 -950 1584 -1140
Q 1353 -1331 966 -1331
L 506 -1331
L 506 -850
L 844 -850
Q 1081 -850 1212 -737
Q 1344 -625 1503 -206
L 1606 56
L 191 3500
L 800 3500
L 1894 763
L 2988 3500
L 3597 3500
L 2059 -325
z
" transform="scale(0.015625)"/>
       <path id="DejaVuSans-20" transform="scale(0.015625)"/>
       <path id="DejaVuSans-28" d="M 1984 4856
Q 1566 4138 1362 3434
Q 1159 2731 1159 2009
Q 1159 1288 1364 580
Q 1569 -128 1984 -844
L 1484 -844
Q 1016 -109 783 600
Q 550 1309 550 2009
Q 550 2706 781 3412
Q 1013 4119 1484 4856
L 1984 4856
z
" transform="scale(0.015625)"/>
       <path id="DejaVuSans-56" d="M 1831 0
L 50 4666
L 709 4666
L 2188 738
L 3669 4666
L 4325 4666
L 2547 0
L 1831 0
z
" transform="scale(0.015625)"/>
       <path id="DejaVuSans-29" d="M 513 4856
L 1013 4856
Q 1481 4119 1714 3412
Q 1947 2706 1947 2009
Q 1947 1309 1714 600
Q 1481 -109 1013 -844
L 513 -844
Q 928 -128 1133 580
Q 1338 1288 1338 2009
Q 1338 2731 1133 3434
Q 928 4138 513 4856
z
" transform="scale(0.015625)"/>
      </defs>
      <use xlink:href="#DejaVuSans-45"/>
      <use xlink:href="#DejaVuSans-6e" x="63.183594"/>
      <use xlink:href="#DejaVuSans-65" x="126.5625"/>
      <use xlink:href="#DejaVuSans-72" x="188.085938"/>
      <use xlink:href="#DejaVuSans-67" x="227.449219"/>
      <use xlink:href="#DejaVuSans-79" x="290.925781"/>
      <use xlink:href="#DejaVuSans-20" x="350.105469"/>
      <use xlink:href="#DejaVuSans-28" x="381.892578"/>
      <use xlink:href="#DejaVuSans-65" x="420.90625"/>
      <use xlink:href="#DejaVuSans-56" x="482.429688"/>
      <use xlink:href="#DejaVuSans-29" x="550.837891"/>
     </g>
    </g>
   </g>
   <g id="matplotlib.axis_2">
    <g id="ytick_1">
     <g id="line2d_11">
      <defs>
       <path id="med8d883d78" d="M 0 0
L -3.5 0
" style="stroke: #000000; stroke-width: 0.8"/>
      </defs>
      <g>
       <use xlink:href="#med8d883d78" x="54" y="245.136371" style="stroke: #000000; stroke-width: 0.8"/>
      </g>
     </g>
     <g id="text_12">
      <!-- −8 -->
      <g transform="translate(32.257812 248.93559)scale(0.1 -0.1)">
       <defs>
        <path id="DejaVuSans-38" d="M 2034 2216
Q 1584 2216 1326 1975
Q 1069 1734 1069 1313
Q 1069 891 1326 650
Q 1584 409 2034 409
Q 2484 409 2743 651
Q 3003 894 3003 1313
Q 3003 1734 2745 1975
Q 2488 2216 2034 2216
z
M 1403 2484
Q 997 2584 770 2862
Q 544 3141 544 3541
Q 544 4100 942 4425
Q 1341 4750 2034 4750
Q 2731 4750 3128 4425
Q 3525 4100 3525 3541
Q 3525 3141 3298 2862
Q 3072 2584 2669 2484
Q 3125 2378 3379 2068
Q 3634 1759 3634 1313
Q 3634 634 3220 271
Q 2806 -91 2034 -91
Q 1263 -91 848 271
Q 434 634 434 1313
Q 434 1759 690 2068
Q 947 2378 1403 2484
z
M 1172 3481
Q 1172 3119 1398 2916
Q 1625 2713 2034 2713
Q 2441 2713 2670 2916
Q 2900 3119 2900 3481
Q 2900 3844 2670 4047
Q 2441 4250 2034 4250
Q 1625 4250 1398 4047
Q 1172 3844 1172 3481
z
" transform="scale(0.015625)"/>
       </defs>
       <use xlink:href="#DejaVuSans-2212"/>
       <use xlink:href="#DejaVuSans-38" x="83.789062"/>
      </g>
     </g>
    </g>
    <g id="ytick_2">
     <g id="line2d_12">
      <g>
       <use xlink:href="#med8d883d78" x="54" y="220.089639" style="stroke: #000000; stroke-width: 0.8"/>
      </g>
     </g>
     <g id="text_13">
      <!-- −6 -->
      <g transform="translate(32.257812 223.888858)scale(0.1 -0.1)">
       <defs>
        <path id="DejaVuSans-36" d="M 2113 2584
Q 1688 2584 1439 2293
Q 1191 2003 1191 1497
Q 1191 994 1439 701
Q 1688 409 2113 409
Q 2538 409 2786 701
Q 3034 994 3034 1497
Q 3034 2003 2786 2293
Q 2538 2584 2113 2584
z
M 3366 4563
L 3366 3988
Q 3128 4100 2886 4159
Q 2644 4219 2406 4219
Q 1781 4219 1451 3797
Q 1122 3375 1075 2522
Q 1259 2794 1537 2939
Q 1816 3084 2150 3084
Q 2853 3084 3261 2657
Q 3669 2231 3669 1497
Q 3669 778 3244 343
Q 2819 -91 2113 -91
Q 1303 -91 875 529
Q 447 1150 447 2328
Q 447 3434 972 4092
Q 1497 4750 2381 4750
Q 2619 4750 2861 4703
Q 3103 4656 3366 4563
z
" transform="scale(0.015625)"/>
       </defs>
       <use xlink:href="#DejaVuSans-2212"/>
       <use xlink:href="#DejaVuSans-36" x="83.789062"/>
      </g>
     </g>
    </g>
    <g id="ytick_3">
     <g id="line2d_13">
      <g>
       <use xlink:href="#med8d883d78" x="54" y="195.042907" style="stroke: #000000; stroke-width: 0.8"/>
      </g>
     </g>
     <g id="text_14">
      <!-- −4 -->
      <g transform="translate(32.257812 198.842125)scale(0.1 -0.1)">
       <defs>
        <path id="DejaVuSans-34" d="M 2419 4116
L 825 1625
L 2419 1625
L 2419 4116
z
M 2253 4666
L 3047 4666
L 3047 1625
L 3713 1625
L 3713 1100
L 3047 1100
L 3047 0
L 2419 0
L 2419 1100
L 313 1100
L 313 1709
L 2253 4666
z
" transform="scale(0.015625)"/>
       </defs>
       <use xlink:href="#DejaVuSans-2212"/>
       <use xlink:href="#DejaVuSans-34" x="83.789062"/>
      </g>
     </g>
    </g>
    <g id="ytick_4">
     <g id="line2d_14">
      <g>
       <use xlink:href="#med8d883d78" x="54" y="169.996174" style="stroke: #000000; stroke-width: 0.8"/>
      </g>
     </g>
     <g id="text_15">
      <!-- −2 -->
      <g transform="translate(32.257812 173.795393)scale(0.1 -0.1)">
       <use xlink:href="#DejaVuSans-2212"/>
       <use xlink:href="#DejaVuSans-32" x="83.789062"/>
      </g>
     </g>
    </g>
    <g id="ytick_5">
     <g id="line2d_15">
      <g>
       <use xlink:href="#med8d883d78" x="54" y="144.949442" style="stroke: #000000; stroke-width: 0.8"/>
      </g>
     </g>
     <g id="text_16">
      <!-- 0 -->
      <g transform="translate(40.6375 148.748661)scale(0.1 -0.1)">
       <use xlink:href="#DejaVuSans-30"/>
      </g>
     </g>
    </g>
    <g id="ytick_6">
     <g id="line2d_16">
      <g>
       <use xlink:href="#med8d883d78" x="54" y="119.90271" style="stroke: #000000; stroke-width: 0.8"/>
      </g>
     </g>
     <g id="text_17">
      <!-- 2 -->
      <g transform="translate(40.6375 123.701929)scale(0.1 -0.1)">
       <use xlink:href="#DejaVuSans-32"/>
      </g>
     </g>
    </g>
    <g id="ytick_7">
     <g id="line2d_17">
      <g>
       <use xlink:href="#med8d883d78" x="54" y="94.855978" style="stroke: #000000; stroke-width: 0.8"/>
      </g>
     </g>
     <g id="text_18">
      <!-- 4 -->
      <g transform="translate(40.6375 98.655197)scale(0.1 -0.1)">
       <use xlink:href="#DejaVuSans-34"/>
      </g>
     </g>
    </g>
    <g id="ytick_8">
     <g id="line2d_18">
      <g>
       <use xlink:href="#med8d883d78" x="54" y="69.809246" style="stroke: #000000; stroke-width: 0.8"/>
      </g>
     </g>
     <g id="text_19">
      <!-- 6 -->
      <g transform="translate(40.6375 73.608465)scale(0.1 -0.1)">
       <use xlink:href="#DejaVuSans-36"/>
      </g>
     </g>
    </g>
    <g id="ytick_9">
     <g id="line2d_19">
      <g>
       <use xlink:href="#med8d883d78" x="54" y="44.762514" style="stroke: #000000; stroke-width: 0.8"/>
      </g>
     </g>
     <g id="text_20">
      <!-- 8 -->
      <g transform="translate(40.6375 48.561732)scale(0.1 -0.1)">
       <use xlink:href="#DejaVuSans-38"/>
      </g>
     </g>
    </g>
    <g id="text_21">
     <!-- Density of States (a.u.) -->
     <g transform="translate(25.970156 208.962422)rotate(-90)scale(0.11 -0.11)">
      <defs>
       <path id="DejaVuSans-44" d="M 1259 4147
L 1259 519
L 2022 519
Q 2988 519 3436 956
Q 3884 1394 3884 2338
Q 3884 3275 3436 3711
Q 2988 4147 2022 4147
L 1259 4147
z
M 628 4666
L 1925 4666
Q 3281 4666 3915 4102
Q 4550 3538 4550 2338
Q 4550 1131 3912 565
Q 3275 0 1925 0
L 628 0
L 628 4666
z
" transform="scale(0.015625)"/>
       <path id="DejaVuSans-73" d="M 2834 3397
L 2834 2853
Q 2591 2978 2328 3040
Q 2066 3103 1784 3103
Q 1356 3103 1142 2972
Q 928 2841 928 2578
Q 928 2378 1081 2264
Q 1234 2150 1697 2047
L 1894 2003
Q 2506 1872 2764 1633
Q 3022 1394 3022 966
Q 3022 478 2636 193
Q 2250 -91 1575 -91
Q 1294 -91 989 -36
Q 684 19 347 128
L 347 722
Q 666 556 975 473
Q 1284 391 1588 391
Q 1994 391 2212 530
Q 2431 669 2431 922
Q 2431 1156 2273 1281
Q 2116 1406 1581 1522
L 1381 1569
Q 847 1681 609 1914
Q 372 2147 372 2553
Q 372 3047 722 3315
Q 1072 3584 1716 3584
Q 2034 3584 2315 3537
Q 2597 3491 2834 3397
z
" transform="scale(0.015625)"/>
       <path id="DejaVuSans-69" d="M 603 3500
L 1178 3500
L 1178 0
L 603 0
L 603 3500
z
M 603 4863
L 1178 4863
L 1178 4134
L 603 4134
L 603 4863
z
" transform="scale(0.015625)"/>
       <path id="DejaVuSans-74" d="M 1172 4494
L 1172 3500
L 2356 3500
L 2356 3053
L 1172 3053
L 1172 1153
Q 1172 725 1289 603
Q 1406 481 1766 481
L 2356 481
L 2356 0
L 1766 0
Q 1100 0 847 248
Q 594 497 594 1153
L 594 3053
L 172 3053
L 172 3500
L 594 3500
L 594 4494
L 1172 4494
z
" transform="scale(0.015625)"/>
       <path id="DejaVuSans-6f" d="M 1959 3097
Q 1497 3097 1228 2736
Q 959 2375 959 1747
Q 959 1119 1226 758
Q 1494 397 1959 397
Q 2419 397 2687 759
Q 2956 1122 2956 1747
Q 2956 2369 2687 2733
Q 2419 3097 1959 3097
z
M 1959 3584
Q 2709 3584 3137 3096
Q 3566 2609 3566 1747
Q 3566 888 3137 398
Q 2709 -91 1959 -91
Q 1206 -91 779 398
Q 353 888 353 1747
Q 353 2609 779 3096
Q 1206 3584 1959 3584
z
" transform="scale(0.015625)"/>
       <path id="DejaVuSans-66" d="M 2375 4863
L 2375 4384
L 1825 4384
Q 1516 4384 1395 4259
Q 1275 4134 1275 3809
L 1275 3500
L 2222 3500
L 2222 3053
L 1275 3053
L 1275 0
L 697 0
L 697 3053
L 147 3053
L 147 3500
L 697 3500
L 697 3744
Q 697 4328 969 4595
Q 1241 4863 1831 4863
L 2375 4863
z
" transform="scale(0.015625)"/>
       <path id="DejaVuSans-53" d="M 3425 4513
L 3425 3897
Q 3066 4069 2747 4153
Q 2428 4238 2131 4238
Q 1616 4238 1336 4038
Q 1056 3838 1056 3469
Q 1056 3159 1242 3001
Q 1428 2844 1947 2747
L 2328 2669
Q 3034 2534 3370 2195
Q 3706 1856 3706 1288
Q 3706 609 3251 259
Q 2797 -91 1919 -91
Q 1588 -91 1214 -16
Q 841 59 441 206
L 441 856
Q 825 641 1194 531
Q 1563 422 1919 422
Q 2459 422 2753 634
Q 3047 847 3047 1241
Q 3047 1584 2836 1778
Q 2625 1972 2144 2069
L 1759 2144
Q 1053 2284 737 2584
Q 422 2884 422 3419
Q 422 4038 858 4394
Q 1294 4750 2059 4750
Q 2388 4750 2728 4690
Q 3069 4631 3425 4513
z
" transform="scale(0.015625)"/>
       <path id="DejaVuSans-61" d="M 2194 1759
Q 1497 1759 1228 1600
Q 959 1441 959 1056
Q 959 750 1161 570
Q 1363 391 1709 391
Q 2188 391 2477 730
Q 2766 1069 2766 1631
L 2766 1759
L 2194 1759
z
M 3341 1997
L 3341 0
L 2766 0
L 2766 531
Q 2569 213 2275 61
Q 1981 -91 1556 -91
Q 1019 -91 701 211
Q 384 513 384 1019
Q 384 1609 779 1909
Q 1175 2209 1959 2209
L 2766 2209
L 2766 2266
Q 2766 2663 2505 2880
Q 2244 3097 1772 3097
Q 1472 3097 1187 3025
Q 903 2953 641 2809
L 641 3341
Q 956 3463 1253 3523
Q 1550 3584 1831 3584
Q 2591 3584 2966 3190
Q 3341 2797 3341 1997
z
" transform="scale(0.015625)"/>
       <path id="DejaVuSans-2e" d="M 684 794
L 1344 794
L 1344 0
L 684 0
L 684 794
z
" transform="scale(0.015625)"/>
       <path id="DejaVuSans-75" d="M 544 1381
L 544 3500
L 1119 3500
L 1119 1403
Q 1119 906 1312 657
Q 1506 409 1894 409
Q 2359 409 2629 706
Q 2900 1003 2900 1516
L 2900 3500
L 3475 3500
L 3475 0
L 2900 0
L 2900 538
Q 2691 219 2414 64
Q 2138 -91 1772 -91
Q 1169 -91 856 284
Q 544 659 544 1381
z
M 1991 3584
L 1991 3584
z
" transform="scale(0.015625)"/>
      </defs>
      <use xlink:href="#DejaVuSans-44"/>
      <use xlink:href="#DejaVuSans-65" x="77.001953"/>
      <use xlink:href="#DejaVuSans-6e" x="138.525391"/>
      <use xlink:href="#DejaVuSans-73" x="201.904297"/>
      <use xlink:href="#DejaVuSans-69" x="254.003906"/>
      <use xlink:href="#DejaVuSans-74" x="281.787109"/>
      <use xlink:href="#DejaVuSans-79" x="320.996094"/>
      <use xlink:href="#DejaVuSans-20" x="380.175781"/>
      <use xlink:href="#DejaVuSans-6f" x="411.962891"/>
      <use xlink:href="#DejaVuSans-66" x="473.144531"/>
      <use xlink:href="#DejaVuSans-20" x="508.349609"/>
      <use xlink:href="#DejaVuSans-53" x="540.136719"/>
      <use xlink:href="#DejaVuSans-74" x="603.613281"/>
      <use xlink:href="#DejaVuSans-61" x="642.822266"/>
      <use xlink:href="#DejaVuSans-74" x="704.101562"/>
      <use xlink:href="#DejaVuSans-65" x="743.310547"/>
      <use xlink:href="#DejaVuSans-73" x="804.833984"/>
      <use xlink:href="#DejaVuSans-20" x="856.933594"/>
      <use xlink:href="#DejaVuSans-28" x="888.720703"/>
      <use xlink:href="#DejaVuSans-61" x="927.734375"/>
      <use xlink:href="#DejaVuSans-2e" x="989.013672"/>
      <use xlink:href="#DejaVuSans-75" x="1020.800781"/>
      <use xlink:href="#DejaVuSans-2e" x="1084.179688"/>
      <use xlink:href="#DejaVuSans-29" x="1115.966797"/>
     </g>
    </g>
   </g>
   <g id="line2d_20">
    <path d="M 53.999461 144.949442
L 58.047166 144.838528
L 59.052581 144.731667
L 59.575258 144.833687
L 60.16913 144.948066
L 67.875572 144.949442
L 167.602636 144.838928
L 167.844005 144.473105
L 168.238183 143.918028
L 168.578531 144.059219
L 168.863312 144.263389
L 169.273118 144.625
L 169.526642 144.377191
L 169.736755 144.329354
L 169.962496 144.604205
L 170.306316 144.913714
L 170.806419 144.949356
L 172.008054 144.840054
L 172.607136 144.552271
L 173.294777 144.945699
L 174.433899 144.879662
L 174.716944 144.600697
L 175.020825 144.401165
L 175.21531 144.57797
L 175.632062 144.912422
L 175.911633 144.841637
L 176.568018 144.498708
L 177.120215 144.93528
L 178.016232 144.949442
L 181.42839 144.839471
L 182.063937 144.504256
L 182.635235 144.936808
L 183.675379 144.949443
L 184.873542 144.839662
L 185.043716 144.50911
L 185.274666 143.468626
L 185.715729 141.523832
L 185.832072 141.595399
L 186.075177 142.177872
L 186.386005 143.371645
L 186.787129 144.759862
L 187.031971 144.932363
L 187.733504 144.949442
L 191.234222 144.839592
L 191.413078 144.509237
L 191.887134 143.119711
L 191.968748 143.233794
L 192.180597 144.00878
L 192.491425 144.828758
L 192.755368 144.939876
L 193.093979 144.853263
L 193.271099 144.542552
L 193.528096 143.473659
L 193.767728 142.835692
L 193.779884 142.840366
L 193.871916 143.023799
L 194.573449 144.930007
L 195.169058 144.948876
L 195.696944 144.83424
L 196.287343 144.532432
L 196.948937 144.943979
L 197.488978 144.863774
L 197.739029 144.57391
L 198.074168 144.245055
L 198.244341 144.416649
L 198.628101 144.79882
L 198.800011 144.665828
L 199.256702 144.21463
L 199.270594 144.226069
L 199.525854 144.602858
L 199.85231 144.91543
L 200.329839 144.949386
L 203.214111 144.842817
L 203.419015 144.49333
L 203.847922 143.516998
L 203.903489 143.569013
L 204.082345 144.02909
L 204.453949 144.859808
L 204.742203 144.945318
L 206.796444 144.949442
L 253.856449 144.839144
L 254.104764 144.514452
L 254.467686 144.091445
L 254.629177 144.24807
L 255.18311 144.919735
L 255.693632 144.949395
L 258.485871 144.842047
L 258.770652 144.46684
L 259.048487 144.230845
L 259.227343 144.421729
L 259.680561 144.918294
L 260.180664 144.949388
L 262.486692 144.841012
L 262.64992 144.491897
L 262.821831 143.50034
L 263.12224 139.99311
L 263.405284 137.936031
L 263.448695 137.922602
L 263.490371 138.000475
L 263.617133 138.728348
L 263.941852 142.285273
L 264.250943 144.523172
L 264.485366 144.898174
L 264.799667 144.948441
L 266.713254 144.865718
L 266.879955 144.582398
L 267.062284 143.720425
L 267.466881 141.482772
L 267.512029 141.542596
L 267.640528 142.150039
L 268.164941 144.81926
L 268.408047 144.93959
L 269.392624 144.949444
L 270.085474 144.8387
L 270.222655 144.516556
L 270.366782 143.469811
L 270.538692 140.209288
L 270.823473 129.674829
L 271.13951 120.583844
L 271.151665 120.576401
L 271.184658 120.713403
L 271.276691 122.275104
L 271.492013 130.845668
L 271.877509 143.110964
L 272.103249 144.69284
L 272.316835 144.926421
L 272.761371 144.946513
L 273.00274 144.823498
L 273.132975 144.432495
L 273.264946 143.088733
L 273.414282 138.774108
L 273.643496 123.908854
L 274.114079 94.411836
L 274.197429 93.767292
L 274.249523 94.019246
L 274.36413 96.155509
L 274.586398 105.323878
L 275.369545 140.691563
L 275.498043 141.645436
L 275.537982 141.546057
L 275.631751 140.497601
L 275.807134 135.414718
L 276.194367 123.627204
L 276.218677 123.694794
L 276.296818 124.772414
L 276.477411 131.174755
L 276.819495 140.930638
L 276.871589 141.127337
L 276.927156 140.900487
L 277.055655 139.011638
L 277.276186 132.11193
L 277.555757 115.424727
L 277.932571 78.351078
L 278.210405 62.235291
L 278.267709 61.800075
L 278.325012 62.173055
L 278.48824 65.545211
L 278.830324 77.288401
L 279.566587 102.321664
L 279.823584 110.928177
L 280.125729 118.633371
L 280.158722 118.527451
L 280.249018 117.138775
L 280.479968 109.136115
L 280.776904 102.156955
L 280.835944 101.955765
L 280.889775 102.134401
L 281.016537 103.656903
L 281.438499 109.39589
L 281.466282 109.35693
L 281.549632 108.80881
L 281.707651 105.968543
L 282.115721 96.534079
L 282.176497 96.897714
L 282.291104 99.650186
L 282.732167 114.114999
L 282.796416 113.530739
L 282.940543 108.933146
L 283.392024 94.598198
L 283.586509 91.094509
L 283.780993 81.803661
L 284.147388 66.359933
L 284.175171 66.284839
L 284.225529 66.543791
L 284.354027 68.885087
L 284.97221 84.140479
L 285.064243 83.836037
L 285.185795 83.357743
L 285.234416 83.512532
L 285.336868 84.851533
L 285.526143 90.977046
L 286.041874 107.624339
L 286.550659 121.597166
L 286.637482 120.950633
L 286.80071 116.929385
L 287.431048 100.182358
L 287.521344 99.638248
L 287.571702 99.844715
L 287.668944 101.618404
L 287.927678 111.993547
L 288.186411 118.111696
L 288.202039 118.101595
L 288.22635 118.011579
L 288.340957 116.769176
L 288.577116 114.393451
L 288.611846 114.475133
L 288.698669 115.412018
L 288.900099 120.772677
L 289.308169 130.472605
L 289.353317 130.550908
L 289.407148 130.417342
L 289.575585 129.163572
L 289.891622 127.435194
L 289.976709 127.359795
L 290.020121 127.422996
L 290.122572 127.969283
L 290.284064 130.305725
L 290.791112 138.798852
L 290.810214 138.783211
L 290.888355 138.441748
L 291.138406 135.957649
L 292.004903 128.755348
L 292.114301 128.483213
L 292.23238 127.293614
L 292.416446 122.721664
L 293.321146 95.627402
L 293.69275 91.349381
L 293.739634 91.290558
L 293.791728 91.400265
L 293.904599 92.301977
L 294.097346 96.006486
L 294.774569 110.672766
L 295.177429 113.356305
L 295.785193 123.228655
L 295.839023 123.147576
L 295.969258 122.428703
L 296.478043 119.356059
L 296.903478 118.085567
L 296.983355 118.294325
L 297.110118 119.547148
L 297.391425 125.167878
L 297.691834 129.315527
L 297.806441 129.514982
L 297.84638 129.489238
L 298.16068 129.0186
L 298.358638 128.451928
L 298.589588 126.92266
L 298.936881 124.973075
L 299.009813 125.095677
L 299.164359 125.950313
L 299.466504 127.30404
L 299.588057 127.24911
L 299.897148 127.059557
L 300.095105 127.350144
L 300.253124 127.480214
L 300.282644 127.451049
L 300.392041 127.105181
L 300.607363 125.489203
L 300.897353 123.935339
L 300.956393 123.952664
L 300.984177 124.004453
L 301.116148 124.607369
L 301.397456 127.15496
L 301.968754 132.333991
L 302.111144 132.537919
L 302.140664 132.521439
L 302.317784 132.231977
L 302.84046 131.420982
L 303.146079 131.188949
L 303.335353 131.33414
L 303.509 131.778092
L 303.727795 133.092245
L 303.97611 134.580336
L 304.019522 134.498207
L 304.120237 133.699982
L 304.314721 129.945875
L 304.873864 118.854739
L 305.415642 112.593444
L 305.438216 112.616829
L 305.512884 113.013478
L 305.665693 115.348483
L 306.174478 125.682264
L 306.254355 125.252758
L 306.440157 122.138886
L 306.613804 120.139971
L 306.65027 120.251263
L 306.740566 121.512205
L 306.931578 128.216954
L 307.308391 139.747063
L 307.429944 140.341225
L 307.469883 140.282688
L 307.587962 139.626593
L 308.850374 129.674632
L 308.944143 130.087476
L 309.09348 132.385451
L 309.520651 138.849261
L 309.557116 138.807068
L 309.572745 138.755745
L 309.696034 137.829537
L 310.100631 134.609689
L 310.119732 134.622605
L 310.197873 134.901529
L 310.357628 136.539877
L 310.763961 140.501566
L 310.819528 140.519317
L 310.864676 140.451947
L 311.012276 139.850273
L 311.44292 138.133315
L 311.59052 137.520813
L 311.781531 135.364285
L 312.042001 132.904017
L 312.062839 132.92206
L 312.139244 133.283348
L 312.305944 135.420495
L 312.939755 144.371568
L 313.073463 144.580646
L 313.106456 144.557237
L 313.228009 144.250628
L 313.408601 143.086509
L 314.108398 136.985936
L 314.184802 137.120608
L 314.31851 137.992381
L 314.660594 142.255719
L 314.945375 144.215615
L 314.995733 144.231615
L 315.039144 144.161842
L 315.162434 143.55899
L 315.382965 141.118634
L 315.638226 139.072487
L 315.652117 139.080144
L 315.721576 139.324422
L 315.879595 140.933049
L 316.266827 144.496826
L 316.482149 144.888655
L 316.697471 144.875169
L 316.865908 144.637492
L 317.091649 143.820439
L 317.395531 142.826956
L 317.418105 142.838599
L 317.525766 143.072742
L 318.072753 144.716753
L 318.116165 144.692595
L 318.272447 144.417758
L 318.491242 143.510396
L 318.748239 141.404722
L 319.253551 136.61712
L 319.270916 136.624589
L 319.368158 136.84308
L 320.250283 140.155475
L 320.698292 143.006352
L 320.764278 142.895466
L 320.896249 142.090555
L 321.276536 139.624521
L 321.300846 139.643071
L 321.384196 139.959693
L 321.623829 142.06708
L 321.898191 143.601659
L 321.976332 143.507293
L 322.123932 142.808647
L 322.60667 139.541414
L 322.695229 139.724751
L 322.882768 140.927191
L 323.158866 142.078314
L 323.351614 142.142517
L 323.603402 141.97931
L 323.935067 141.54745
L 323.981952 141.602687
L 324.13997 142.085386
L 324.530676 143.251372
L 325.115865 143.564578
L 325.277357 143.207343
L 325.721892 141.862154
L 325.793087 141.950172
L 325.961525 142.565583
L 326.218522 143.348668
L 326.242833 143.332971
L 326.350493 143.055038
L 326.598808 141.621495
L 327.032925 139.451516
L 327.333334 139.060475
L 327.533028 138.951492
L 327.552129 138.972514
L 327.666736 139.315953
L 327.939361 141.09198
L 328.229351 142.217
L 328.41689 142.302862
L 328.686042 142.082581
L 328.904837 142.024159
L 329.038545 142.293414
L 329.472662 143.576398
L 329.540384 143.503587
L 329.738342 142.923007
L 330.00923 142.390536
L 330.142938 142.504183
L 330.377362 142.710818
L 330.405145 142.683355
L 330.54059 142.331531
L 330.851417 141.341321
L 330.896565 141.3904
L 331.021591 141.876166
L 331.506065 144.062482
L 331.52343 144.056675
L 331.664084 143.865867
L 332.492379 141.962029
L 332.891766 140.275082
L 332.968171 140.397822
L 333.136608 141.258639
L 333.447436 142.492402
L 333.55857 142.422858
L 333.843351 142.161691
L 333.858979 142.173746
L 334.011788 142.232258
L 334.039572 142.185309
L 334.147232 141.668675
L 334.329562 139.373043
L 334.574403 136.982507
L 334.596978 137.009482
L 334.675119 137.478145
L 334.867866 140.406211
L 335.152647 143.301843
L 335.232525 143.394322
L 335.281146 143.339138
L 335.473894 142.752302
L 335.819451 141.993377
L 336.137224 141.315985
L 336.456734 140.064694
L 336.718941 137.808056
L 337.04887 135.538972
L 337.099227 135.583323
L 337.114855 135.626082
L 337.231199 136.372585
L 337.762558 140.954261
L 337.832016 140.867809
L 338.115061 140.278909
L 338.181046 140.35202
L 338.361639 140.617743
L 338.411997 140.53661
L 338.538759 139.882697
L 339.505971 131.635211
L 339.823745 129.078174
L 340.167565 128.122477
L 340.256125 128.252546
L 340.408934 129.023625
L 340.686769 131.743264
L 341.325789 138.379087
L 341.534165 138.658058
L 341.678292 138.535885
L 341.949181 137.911647
L 342.129774 136.902325
L 342.588201 132.718291
L 342.699335 133.156041
L 342.935494 135.786055
L 343.20812 137.655614
L 343.466853 138.122617
L 343.482482 138.111642
L 343.553677 137.866984
L 343.676966 136.390782
L 343.947855 129.705685
L 344.19617 126.202854
L 344.237845 126.266153
L 344.246527 126.298034
L 344.362871 127.236181
L 344.632023 131.689114
L 345.113025 138.775504
L 345.161646 138.820439
L 345.215476 138.73899
L 345.436008 138.222782
L 345.496784 138.340168
L 345.633965 139.251054
L 346.059399 142.558741
L 346.102811 142.503218
L 346.213945 141.9376
L 346.427531 139.460991
L 346.882485 134.273238
L 346.887694 134.274654
L 346.944998 134.427002
L 347.073496 135.599986
L 347.526714 140.105412
L 347.530187 140.104874
L 347.594437 139.974704
L 347.748982 138.964763
L 348.14316 136.578218
L 348.26124 136.638519
L 348.495663 137.07885
L 348.676256 137.974059
L 349.134683 140.933764
L 349.191987 140.863895
L 349.344796 140.257373
L 349.617421 139.404136
L 349.624367 139.406029
L 349.725082 139.561883
L 350.018545 140.159243
L 350.06543 140.11332
L 350.20782 139.688929
L 350.437034 138.218018
L 350.766963 134.3976
L 351.039588 131.89193
L 351.063899 131.92749
L 351.14204 132.483914
L 351.301795 135.600685
L 351.741121 144.109458
L 351.963389 144.863588
L 352.182184 144.934048
L 352.440917 144.813324
L 352.630192 144.411638
L 352.861143 143.305507
L 353.389029 140.674442
L 353.474116 140.710785
L 353.489744 140.738513
L 353.644289 141.293358
L 354.463902 144.708812
L 354.628866 144.623677
L 354.934485 144.120891
L 356.057979 142.304722
L 356.443475 142.155414
L 356.888011 142.266946
L 357.216203 142.017495
L 357.415897 141.546948
L 357.777082 140.70495
L 357.79271 140.713087
L 357.900371 140.928774
L 358.225091 142.315464
L 358.52029 143.03697
L 359.143682 143.67137
L 359.794857 143.220998
L 360.32448 142.627591
L 361.170139 142.843369
L 361.333367 142.332799
L 361.784849 140.858301
L 361.984543 140.81221
L 362.185973 141.018594
L 362.55584 141.504064
L 362.588833 141.474703
L 362.726014 141.140493
L 363.262583 139.604226
L 363.497006 139.539703
L 363.615086 139.817386
L 363.797415 140.961122
L 364.274943 144.015707
L 364.601399 144.712641
L 364.905281 144.925775
L 365.335925 144.905071
L 365.572085 144.688636
L 365.787406 144.126848
L 366.560135 141.74691
L 366.770247 141.490233
L 366.949103 140.785426
L 367.167898 138.831253
L 367.542975 135.730428
L 367.549921 135.732474
L 367.61417 135.891268
L 367.763506 137.03879
L 368.076071 139.126544
L 368.079544 139.125985
L 368.157685 138.9913
L 368.390371 138.463162
L 368.437256 138.521697
L 368.591801 139.112053
L 368.874846 139.902912
L 369.086695 140.126062
L 369.24124 140.901488
L 369.739606 143.581563
L 369.85074 143.479326
L 370.159832 143.072321
L 370.194561 143.103
L 370.354316 143.465989
L 370.776278 144.413998
L 371.073214 144.411558
L 371.259016 144.2524
L 371.427453 143.725403
L 371.644511 142.16135
L 371.962285 140.22122
L 371.967494 140.222444
L 372.038689 140.364916
L 372.194971 141.350594
L 372.557893 143.342644
L 372.780161 143.51942
L 373.045841 143.436912
L 373.302838 143.425361
L 373.507741 143.72901
L 374.141552 144.760983
L 374.478426 144.931111
L 375.306721 144.949442
L 388.80081 144.949442
L 388.80081 144.949442
" clip-path="url(#p1dd0cafc7b)" style="fill: none; stroke: #ed0345; stroke-width: 2; stroke-linecap: square"/>
   </g>
   <g id="line2d_21">
    <path d="M 53.999461 144.949442
L 61.308252 145.060338
L 61.936853 145.107292
L 62.621022 145.159878
L 64.239409 144.949442
L 168.479552 145.060078
L 168.705293 145.403135
L 169.137674 146.059634
L 169.361678 145.987059
L 169.620411 145.693767
L 170.023272 145.255062
L 170.221229 145.425667
L 170.492118 145.565286
L 170.684866 145.356172
L 171.08599 144.982268
L 171.566992 144.949527
L 172.779046 145.058759
L 173.374654 145.338861
L 174.024093 144.954696
L 175.013879 145.002946
L 175.307342 145.253911
L 175.632062 145.454401
L 175.866485 145.244943
L 176.239826 144.986902
L 176.514187 145.069978
L 177.123687 145.39892
L 177.778336 144.95529
L 179.698869 144.949442
L 181.449228 145.059607
L 182.074356 145.388713
L 182.668228 144.960199
L 183.887228 144.949442
L 187.367109 145.058816
L 187.53381 145.407077
L 187.733504 146.440999
L 188.176303 149.054551
L 188.200614 149.041518
L 188.308275 148.78884
L 188.844843 146.484224
L 189.225129 145.150631
L 189.468235 144.968235
L 190.115937 144.949444
L 193.144336 145.058785
L 193.31972 145.390166
L 193.800721 146.96772
L 193.901436 146.787477
L 194.616861 144.969282
L 194.894696 145.045807
L 195.064869 145.338362
L 195.283664 146.288375
L 195.575391 147.316121
L 195.584073 147.313407
L 195.67437 147.150287
L 195.882746 146.144441
L 196.191837 145.114616
L 196.427996 144.963329
L 197.155576 144.959906
L 197.476823 145.106078
L 198.02381 145.460388
L 198.817376 144.955597
L 199.171615 145.07769
L 199.447713 145.490157
L 199.716866 145.73123
L 199.880094 145.546553
L 200.251698 145.159394
L 200.420135 145.327187
L 200.821259 145.769256
L 200.831678 145.76198
L 201.031372 145.471137
L 201.413395 144.996905
L 201.831883 144.949802
L 204.547718 145.048943
L 204.735257 145.368869
L 205.195421 146.58128
L 205.282244 146.470903
L 205.511458 145.721997
L 205.817076 145.043575
L 206.094911 144.954349
L 207.888682 144.949442
L 253.858186 145.060018
L 254.1065 145.384146
L 254.469422 145.80312
L 254.630914 145.645842
L 255.18311 144.979198
L 255.693632 144.94949
L 258.489344 145.058068
L 258.777598 145.438048
L 259.050223 145.66304
L 259.230816 145.470163
L 259.680561 144.980719
L 260.180664 144.949497
L 262.491902 145.057928
L 262.65513 145.404779
L 262.82704 146.393793
L 263.129185 149.906746
L 263.410493 151.934868
L 263.452168 151.946616
L 263.493844 151.868359
L 263.620606 151.139016
L 263.947062 147.565575
L 264.254416 145.368975
L 264.488839 144.999508
L 264.804877 144.950386
L 266.716727 145.034403
L 266.883428 145.319756
L 267.067494 146.191603
L 267.466881 148.374403
L 267.510293 148.320923
L 267.635319 147.753356
L 268.173623 145.069027
L 268.420202 144.957878
L 269.528068 144.949446
L 270.099366 145.059683
L 270.236547 145.38524
L 270.380674 146.440846
L 270.556057 149.806254
L 270.842574 160.484852
L 271.146456 169.023653
L 271.158611 169.031841
L 271.19334 168.884377
L 271.28711 167.251587
L 271.516323 158.08259
L 271.887927 146.685904
L 272.111932 145.191705
L 272.327254 144.970048
L 272.7961 144.953771
L 273.030523 145.085581
L 273.153812 145.472966
L 273.28752 146.851301
L 273.436856 151.251688
L 273.669543 166.337754
L 274.134916 195.495833
L 274.213057 196.085305
L 274.265151 195.825089
L 274.379758 193.619594
L 274.603763 184.113603
L 275.355653 149.468375
L 275.504989 148.20231
L 275.536246 148.266137
L 275.621332 149.072594
L 275.782824 153.242738
L 276.19784 165.890263
L 276.242988 165.673294
L 276.347176 163.557863
L 276.880271 148.539517
L 276.939311 148.765652
L 277.071283 150.608713
L 277.288341 157.094732
L 277.566176 173.041396
L 277.904787 205.764875
L 278.217351 227.058071
L 278.288547 227.750783
L 278.344113 227.410636
L 278.529915 224.054754
L 278.852898 214.439738
L 280.096209 171.446969
L 280.137884 171.279467
L 280.189978 171.579079
L 280.309795 174.180504
L 280.844627 188.777183
L 280.884565 188.666964
L 280.99049 187.495445
L 281.445444 180.728253
L 281.509694 180.91818
L 281.631246 182.302954
L 281.856987 187.983725
L 282.12093 192.969444
L 282.136558 192.94542
L 282.197335 192.384805
L 282.32757 188.590273
L 282.75995 173.606758
L 282.801626 173.845232
L 282.911023 176.363552
L 283.86608 211.702228
L 284.16128 222.648187
L 284.208164 222.834906
L 284.263731 222.591406
L 284.400912 220.523812
L 284.977419 208.693176
L 285.069452 209.011028
L 285.184059 209.477048
L 285.23268 209.31511
L 285.333395 207.894683
L 285.515724 201.411193
L 285.998462 184.500342
L 286.281506 175.195948
L 286.555868 169.08742
L 286.56976 169.094354
L 286.59407 169.189989
L 286.68784 170.471031
L 286.922263 177.581102
L 287.403264 190.01025
L 287.519608 190.878776
L 287.564756 190.716307
L 287.656789 189.194669
L 287.879056 180.513641
L 288.177729 172.13535
L 288.195094 172.118123
L 288.236769 172.273034
L 288.372213 173.940823
L 288.584062 176.051816
L 288.617055 175.976634
L 288.700406 175.078808
L 288.89489 169.839353
L 289.315115 159.535747
L 289.35679 159.466766
L 289.410621 159.599589
L 289.577322 160.847034
L 289.893359 162.597292
L 289.978446 162.674313
L 290.021857 162.611369
L 290.124309 162.06546
L 290.284064 159.754054
L 290.799795 151.009249
L 290.822369 151.03019
L 290.905719 151.414543
L 291.483963 156.29968
L 291.933708 159.991363
L 291.952809 159.983956
L 292.117774 159.835462
L 292.162922 159.968543
L 292.275792 161.01994
L 292.454648 165.202593
L 293.392341 191.883831
L 293.810829 198.768405
L 293.890707 198.946689
L 293.941064 198.851218
L 294.046989 198.056425
L 294.244946 194.438842
L 294.892649 182.056947
L 295.120126 180.510605
L 295.337184 176.108184
L 295.7522 168.458676
L 295.83555 168.274668
L 295.885908 168.349644
L 296.019616 169.035661
L 296.417267 171.024318
L 296.712467 171.682895
L 296.931261 172.216744
L 296.969464 172.166734
L 297.061496 171.662377
L 297.238616 169.141179
L 297.768239 161.117646
L 297.87069 161.067405
L 297.90542 161.090566
L 298.263132 161.519112
L 298.436779 162.163343
L 298.935145 165.06317
L 299.034124 164.842469
L 299.251182 163.476131
L 299.476923 162.761548
L 299.589793 162.867042
L 299.942296 163.231297
L 300.296535 163.060464
L 300.333001 163.154547
L 300.487547 164.01834
L 300.916454 166.683763
L 300.933819 166.675989
L 301.020642 166.465774
L 301.206444 165.248563
L 301.628406 160.774038
L 301.996537 157.984905
L 302.163238 157.739411
L 302.178866 157.745553
L 302.354249 157.961021
L 302.651185 158.211413
L 303.22422 158.19463
L 303.42565 157.889042
L 303.611452 157.077437
L 303.958745 154.936155
L 304.02994 155.170353
L 304.158439 156.729755
L 304.427592 163.526795
L 304.773149 170.089718
L 305.172536 175.713649
L 305.398277 177.879371
L 305.415642 177.86345
L 305.483364 177.4938
L 305.624018 175.169944
L 306.160586 163.923618
L 306.221362 164.168509
L 306.358543 166.159729
L 306.617277 169.895461
L 306.657216 169.757714
L 306.750985 168.328809
L 306.957625 160.683477
L 307.304918 150.202267
L 307.428207 149.576985
L 307.468146 149.634931
L 307.584489 150.282696
L 308.848638 160.267523
L 308.940671 159.879566
L 309.08827 157.678332
L 309.52586 151.121986
L 309.577954 151.221375
L 309.704716 152.1795
L 310.109313 155.37903
L 310.124941 155.370378
L 310.197873 155.137014
L 310.347209 153.699869
L 310.784799 149.480654
L 310.840366 149.477048
L 310.878568 149.537362
L 311.024431 150.128094
L 311.451602 151.817855
L 311.597466 152.479479
L 311.802369 154.911158
L 312.042001 157.065144
L 312.061103 157.048259
L 312.135771 156.705193
L 312.300735 154.62902
L 312.95191 145.493746
L 313.0752 145.321305
L 313.111665 145.349645
L 313.234955 145.677244
L 313.41902 146.912778
L 314.110134 152.996
L 314.17612 152.890738
L 314.301146 152.141063
L 314.568562 148.815416
L 314.910646 145.75579
L 314.990523 145.651925
L 315.039144 145.71809
L 315.158961 146.280586
L 315.367337 148.560517
L 315.646908 150.962922
L 315.657327 150.95756
L 315.723313 150.739437
L 315.870912 149.265693
L 316.280719 145.384733
L 316.494304 145.00864
L 316.70789 145.025243
L 316.876327 145.267584
L 317.103804 146.094566
L 317.404213 147.065928
L 317.425051 147.055488
L 317.530975 146.831038
L 318.077962 145.188873
L 318.12832 145.220187
L 318.288075 145.524228
L 318.510343 146.50232
L 318.765604 148.714114
L 319.251814 153.258409
L 319.331692 153.143332
L 319.859578 151.466376
L 320.262438 149.710285
L 320.701765 146.879171
L 320.759068 146.962631
L 320.880621 147.641514
L 321.283481 150.303865
L 321.321684 150.258136
L 321.425872 149.731322
L 321.913819 146.345323
L 321.983278 146.446475
L 322.132614 147.162497
L 322.610143 150.346624
L 322.691757 150.187232
L 322.865403 149.114938
L 323.155393 147.846613
L 323.353351 147.763241
L 323.596456 147.906855
L 323.940277 148.386881
L 323.999317 148.30907
L 324.166017 147.740407
L 324.51852 146.656663
L 325.140176 146.290084
L 325.141912 146.292265
L 325.306877 146.682484
L 325.73752 148.00117
L 325.800033 147.933291
L 325.951106 147.414925
L 326.244569 146.443451
L 326.274089 146.463531
L 326.385223 146.757103
L 326.656112 148.310182
L 327.038135 150.01525
L 327.253457 150.200271
L 327.501771 150.385727
L 327.658054 150.440479
L 327.677155 150.420285
L 327.80218 150.082636
L 328.420363 147.982984
L 328.762447 147.920271
L 328.993397 147.798562
L 329.177463 147.309508
L 329.528229 146.413203
L 329.533438 146.414925
L 329.648045 146.579827
L 330.087372 147.563636
L 330.153357 147.506473
L 330.443347 147.176384
L 330.495441 147.248116
L 330.646514 147.793095
L 330.915667 148.684513
L 330.94345 148.665333
L 331.044165 148.369456
L 331.290743 146.685311
L 331.55295 145.646962
L 331.67103 145.689438
L 331.674503 145.694148
L 331.877669 146.166819
L 332.367353 147.315357
L 332.372563 147.313491
L 332.544473 147.126417
L 332.676445 147.080134
L 332.702492 147.108269
L 332.839672 147.476395
L 333.133135 149.11219
L 333.369295 149.853547
L 333.376241 149.851664
L 333.471747 149.69507
L 334.162861 147.409125
L 334.636916 145.185725
L 334.74805 145.187977
L 334.767151 145.211095
L 334.909542 145.602236
L 335.109235 146.908107
L 335.704844 151.243793
L 336.034773 151.966338
L 336.630381 152.747989
L 336.923844 152.590123
L 337.062761 152.110388
L 337.269401 150.415691
L 337.795551 146.053164
L 337.866746 146.165872
L 338.003927 146.967876
L 338.394632 149.802917
L 338.443253 149.734278
L 338.559596 149.098659
L 338.950302 146.514994
L 338.988504 146.55752
L 339.08401 147.036343
L 339.276757 149.456935
L 339.837636 157.045478
L 339.849792 157.042086
L 339.985236 156.85082
L 340.089424 156.794654
L 340.127626 156.840898
L 340.301273 157.078217
L 340.351631 156.99832
L 340.464501 156.385754
L 340.973286 151.972295
L 341.061846 152.263447
L 341.185135 153.905946
L 341.614043 162.580092
L 341.700866 161.941834
L 341.877986 157.764897
L 342.180131 152.211784
L 342.206178 152.189841
L 342.253063 152.309292
L 342.4215 153.564096
L 342.546526 154.119858
L 342.59341 154.026283
L 342.7167 153.125652
L 343.034473 150.57006
L 343.072675 150.633475
L 343.180336 151.354692
L 343.571042 154.877864
L 343.638764 154.710962
L 343.986057 152.911479
L 344.090245 153.166875
L 344.470532 154.874539
L 344.550409 154.753344
L 344.732738 153.942843
L 345.547142 150.027686
L 345.640911 150.077086
L 345.649593 150.092301
L 345.791983 150.589917
L 346.031616 152.404035
L 346.429267 155.143501
L 346.495253 155.039981
L 346.618542 154.238741
L 347.261035 149.403001
L 347.372169 149.469121
L 347.582281 150.013959
L 347.898318 150.581294
L 348.056337 151.021234
L 348.252558 152.405905
L 348.719668 155.735775
L 348.801282 155.740032
L 348.832538 155.698672
L 348.966246 155.248544
L 349.218034 153.400923
L 349.643468 150.661005
L 349.891783 150.253693
L 349.895256 150.255054
L 349.980343 150.413767
L 350.11926 151.314079
L 350.487391 154.227574
L 350.541222 154.112934
L 350.694031 153.002885
L 350.945819 151.743043
L 350.952765 151.744695
L 351.037852 151.893955
L 351.251437 152.875588
L 351.513644 153.779665
L 351.531008 153.76958
L 351.610886 153.537359
L 351.758486 152.248219
L 352.215177 147.159857
L 352.265534 147.260138
L 352.381878 148.178914
L 352.751745 151.986878
L 352.812521 151.825547
L 352.97054 150.437014
L 353.23101 148.762917
L 353.239692 148.766035
L 353.312624 148.936979
L 353.52621 150.263128
L 353.69291 150.844535
L 353.725903 150.811864
L 353.821409 150.409397
L 354.055832 148.089533
L 354.408335 145.496102
L 354.592401 145.30955
L 354.762574 145.491855
L 355.519674 146.863973
L 355.813137 147.233252
L 356.304558 147.557431
L 356.525089 147.55923
L 356.733465 147.602906
L 356.988726 148.003198
L 357.259615 148.213742
L 357.471464 148.395392
L 357.744089 149.10105
L 357.888216 149.262175
L 357.919472 149.238682
L 358.047971 148.932812
L 358.773814 146.768596
L 359.117635 146.306004
L 359.320802 146.438447
L 359.678514 146.606453
L 359.902518 146.826526
L 360.308852 147.245449
L 361.232652 147.025078
L 361.39588 147.593152
L 361.889037 149.375577
L 362.015799 149.312065
L 362.205074 148.859291
L 362.581888 148.031288
L 362.689548 148.174915
L 362.903134 148.992141
L 363.174023 149.686689
L 363.526526 149.963164
L 363.693227 150.190967
L 363.731429 150.145514
L 363.847772 149.671084
L 364.156864 147.137926
L 364.471164 145.528574
L 364.74379 145.113664
L 364.931328 145.147949
L 365.575557 145.749494
L 365.750941 146.281189
L 366.268408 148.32175
L 366.323975 148.269806
L 366.471575 147.807858
L 366.851861 146.59591
L 366.872699 146.607334
L 366.969941 146.840031
L 367.143588 147.9757
L 367.572495 150.70769
L 367.668001 150.630713
L 368.089962 149.88892
L 368.154212 149.94856
L 368.319176 150.353706
L 368.54839 151.61561
L 368.887001 153.38522
L 368.906102 153.375432
L 368.992925 153.141444
L 369.1822 151.812985
L 369.871578 146.657714
L 370.11642 146.057791
L 370.394255 146.012842
L 370.738075 146.01627
L 371.008964 146.093563
L 371.18782 145.783087
L 371.436135 145.470864
L 371.450027 145.479142
L 371.56637 145.703276
L 371.764328 146.708743
L 372.168924 148.640531
L 372.255748 148.613181
L 372.274849 148.583286
L 372.474543 148.002515
L 373.19865 145.92278
L 373.405289 145.817659
L 373.591091 146.025403
L 373.865453 146.237732
L 374.013053 146.003908
L 374.547885 144.998086
L 374.924698 144.949995
L 388.80081 144.949442
L 388.80081 144.949442
" clip-path="url(#p1dd0cafc7b)" style="fill: none; stroke: #ed0345; stroke-width: 2; stroke-linecap: square"/>
   </g>
   <g id="line2d_22">
    <path d="M 53.999461 144.949442
L 57.713765 144.839494
L 58.373622 144.508298
L 58.757382 144.665032
L 59.457178 144.737133
L 60.16392 144.947527
L 65.722353 144.949442
L 167.210195 144.839071
L 167.331747 144.487158
L 167.456773 143.196632
L 167.590481 138.964943
L 167.778019 124.077799
L 168.297223 79.487635
L 168.489971 78.491132
L 168.635834 76.372665
L 168.687928 76.872661
L 168.785171 81.016754
L 168.993547 102.919149
L 169.19324 117.063975
L 169.221024 116.772696
L 169.304374 112.680903
L 169.662087 82.520981
L 169.759329 86.442097
L 169.95034 109.753495
L 170.27506 140.449403
L 170.493855 144.436419
L 170.68313 144.910016
L 171.065152 144.949321
L 171.513161 144.840243
L 171.627768 144.429308
L 171.756266 142.921585
L 171.895184 138.235018
L 172.070567 122.845499
L 172.457799 80.863495
L 172.51163 82.138706
L 172.636655 93.030109
L 173.155859 142.749425
L 173.357289 144.692481
L 173.551774 144.936866
L 173.933797 144.919945
L 174.065768 144.722392
L 174.189057 143.998611
L 174.312347 141.750038
L 174.459946 133.929947
L 174.661377 108.546866
L 174.980887 72.98672
L 174.996515 73.097922
L 175.053818 75.65459
L 175.2101 95.874934
L 175.592123 139.032642
L 175.682419 140.615397
L 175.734513 140.156463
L 175.838702 136.387793
L 175.998457 120.762403
L 176.401317 72.53722
L 176.453411 74.009908
L 176.580173 87.858714
L 177.057702 141.573439
L 177.264341 144.572691
L 177.460562 144.921969
L 177.806119 144.949293
L 180.909187 144.85702
L 181.023793 144.476046
L 181.148819 143.055931
L 181.277318 138.589734
L 181.4336 123.506413
L 181.699279 69.397616
L 181.905919 44.64
L 181.926757 44.933643
L 181.996215 50.140797
L 182.182017 86.840446
L 182.524101 138.145556
L 182.730741 144.023879
L 182.928698 144.89675
L 183.133601 144.943962
L 184.592234 144.944225
L 184.901325 144.815434
L 185.080181 144.428691
L 185.35628 143.173732
L 185.644533 142.236505
L 185.752194 142.314879
L 185.951888 142.877497
L 186.580489 144.598325
L 186.879162 144.90928
L 187.287232 144.949132
L 190.951178 144.857643
L 191.088359 144.522163
L 191.213385 143.450862
L 191.362721 139.835069
L 191.586725 127.333624
L 191.873242 114.756809
L 191.883661 114.780651
L 191.934019 115.561838
L 192.0712 122.029446
L 192.519208 143.385648
L 192.731057 144.755512
L 192.830036 144.816686
L 192.868238 144.777792
L 192.986318 144.400062
L 193.111344 143.089953
L 193.262416 138.649823
L 193.493366 123.318007
L 193.760782 110.147993
L 193.772938 110.182173
L 193.825032 111.199581
L 193.970895 119.817762
L 194.389384 142.86198
L 194.59776 144.708441
L 194.793981 144.929785
L 195.139538 144.916157
L 195.274982 144.71367
L 195.403481 143.987649
L 195.531979 141.758238
L 195.691734 134.187491
L 196.150162 98.90438
L 196.256086 102.360072
L 196.507874 126.194366
L 196.799601 142.609084
L 197.002767 144.650604
L 197.112165 144.768372
L 197.150367 144.737436
L 197.240663 144.423406
L 197.363952 142.984827
L 197.518498 137.993968
L 197.711246 123.187611
L 198.039438 98.360037
L 198.062012 98.507609
L 198.134944 101.052465
L 198.320746 117.805429
L 198.605527 135.410481
L 198.617682 135.444586
L 198.654148 135.109147
L 198.746181 131.315128
L 198.992759 109.075295
L 199.18898 98.09566
L 199.216763 98.399599
L 199.305323 102.662626
L 200.001647 144.504046
L 200.197867 144.910751
L 200.487857 144.948684
L 202.865081 144.858341
L 202.981425 144.560777
L 203.104714 143.480175
L 203.236685 139.728963
L 203.417278 126.779486
L 203.827084 87.161288
L 203.900016 89.227064
L 204.052825 104.146427
L 204.459159 141.506168
L 204.669271 144.526892
L 204.860283 144.92368
L 205.238832 144.949651
L 219.675823 144.949442
L 254.005785 144.839142
L 254.597921 144.610923
L 255.429689 144.948349
L 258.576168 144.877451
L 259.185668 144.73475
L 259.848998 144.947377
L 262.641238 144.900148
L 262.899972 144.682006
L 263.617133 143.739953
L 263.670963 143.792189
L 263.905386 144.252704
L 264.278727 144.864187
L 264.612129 144.946753
L 266.912948 144.91504
L 267.779445 144.802381
L 268.244819 144.944392
L 270.184453 144.93268
L 270.474443 144.772469
L 270.748805 144.289046
L 271.202023 143.514594
L 271.339204 143.664628
L 272.131033 144.934639
L 273.00274 144.945407
L 273.362188 144.817518
L 273.591402 144.424233
L 274.188747 143.315263
L 274.381495 143.363639
L 274.60029 143.710034
L 275.213263 144.745378
L 275.522354 144.884749
L 275.81929 144.765817
L 276.25688 144.601911
L 276.628484 144.807029
L 276.951467 144.84504
L 277.814491 144.501759
L 278.321539 144.143323
L 278.696616 144.15845
L 279.729815 144.632241
L 280.117047 144.77721
L 280.572001 144.670477
L 281.047793 144.641761
L 282.101829 144.762866
L 292.671707 144.708937
L 293.27947 144.634968
L 294.59224 144.64949
L 296.311343 144.806875
L 298.122478 144.843837
L 299.379681 144.847461
L 300.447608 144.832703
L 302.552207 144.838061
L 304.14802 144.841419
L 306.197052 144.830162
L 307.772028 144.76364
L 308.468351 144.651776
L 309.848843 144.862284
L 310.487863 144.892498
L 310.923716 144.856913
L 311.53148 144.68944
L 311.955178 144.720581
L 312.443125 144.702959
L 313.191543 144.923136
L 313.717693 144.737395
L 314.184802 144.675025
L 314.684905 144.852252
L 315.028726 144.862028
L 315.261412 144.614935
L 315.688583 144.120876
L 315.86223 144.346602
L 316.291137 144.898198
L 316.633221 144.932607
L 316.900637 144.780152
L 317.202783 144.255291
L 317.43026 144.062612
L 317.591752 144.265908
L 318.065807 144.907156
L 318.440884 144.908409
L 319.507075 144.864207
L 319.984604 144.772222
L 320.361417 144.761335
L 320.94487 144.858412
L 321.53006 144.859505
L 322.061419 144.867496
L 322.89666 144.650603
L 323.290838 144.696696
L 324.591452 144.490896
L 324.864077 144.525303
L 325.36418 144.623628
L 325.999727 144.59943
L 326.348757 144.719946
L 326.55366 144.505447
L 326.87838 143.73398
L 327.147532 143.381746
L 327.375009 143.460326
L 327.8317 143.848737
L 328.194622 144.111267
L 329.219138 144.562786
L 329.542121 144.758342
L 329.854685 144.640244
L 330.233235 144.583042
L 330.587474 144.520825
L 330.957342 144.40937
L 331.238649 144.687884
L 331.551214 144.855358
L 332.082573 144.768019
L 332.584412 144.546412
L 333.041103 144.280184
L 333.890235 144.55941
L 334.48758 144.790671
L 335.050196 144.868816
L 336.104231 144.727752
L 336.939472 144.485092
L 337.326704 144.337434
L 337.587175 144.553965
L 337.963988 144.795925
L 338.347747 144.743864
L 338.625582 144.457802
L 339.115266 143.596771
L 339.500762 142.917233
L 339.622314 143.045398
L 339.95398 143.941013
L 340.230078 144.31428
L 340.506176 144.30309
L 340.964604 144.262329
L 341.898823 144.728375
L 343.466853 144.047101
L 343.810674 144.255306
L 344.038151 143.994125
L 344.28473 143.851272
L 344.463586 144.03888
L 344.906385 144.550785
L 345.055721 144.375572
L 345.531513 143.597626
L 345.576661 143.634878
L 345.776355 144.021865
L 346.160115 144.668878
L 346.410166 144.646798
L 347.240197 144.26272
L 347.969514 143.717887
L 348.723141 143.818672
L 348.971455 144.072951
L 349.346532 144.377924
L 349.936931 144.367552
L 350.185246 144.185737
L 350.707923 143.775909
L 350.952765 143.921875
L 351.315686 144.446761
L 351.695973 144.889194
L 352.090151 144.946723
L 352.512113 144.831688
L 352.831623 144.423565
L 353.076465 144.270735
L 353.293523 144.457566
L 353.63908 144.675782
L 354.227742 144.846403
L 354.623657 144.903224
L 355.031727 144.717844
L 355.314771 144.384891
L 355.837448 143.384572
L 355.915589 143.469711
L 356.729992 144.60723
L 357.04082 144.568123
L 357.289135 144.263289
L 357.846541 143.501391
L 358.05839 143.610849
L 358.384846 144.065131
L 358.912732 144.767718
L 359.207931 144.795692
L 359.801803 144.538539
L 360.199454 144.207623
L 360.775961 143.760447
L 360.953081 143.893761
L 361.508751 144.461527
L 361.770957 144.206632
L 362.397822 143.591168
L 362.654819 143.162326
L 363.026423 142.596418
L 363.167077 142.770308
L 363.792205 143.764393
L 364.177701 143.944251
L 364.497211 144.503057
L 364.846241 144.901595
L 365.236946 144.94483
L 365.645016 144.818801
L 365.93327 144.440015
L 366.449001 143.802825
L 366.68516 143.836622
L 366.91611 143.81621
L 367.075865 143.485204
L 367.546448 142.237647
L 367.58465 142.262626
L 367.739196 142.568782
L 368.105591 143.257661
L 368.525816 143.373937
L 368.86269 143.65632
L 369.183937 143.732416
L 369.421833 144.2149
L 369.765653 144.743448
L 370.019178 144.753938
L 370.455031 144.791247
L 370.850946 144.767669
L 371.47781 144.490027
L 372.073419 144.076698
L 372.748905 144.625264
L 375.021941 144.949438
L 388.80081 144.949442
L 388.80081 144.949442
" clip-path="url(#p1dd0cafc7b)" style="fill: none; stroke: #098760; stroke-width: 2; stroke-linecap: square"/>
   </g>
   <g id="line2d_23">
    <path d="M 53.999461 144.949442
L 60.976587 145.060014
L 61.653809 145.439657
L 62.039305 145.245035
L 62.759939 145.178537
L 63.44758 144.95179
L 67.809587 144.949442
L 168.078428 145.060238
L 168.198245 145.47661
L 168.330216 146.975404
L 168.467397 151.70809
L 168.64278 167.143501
L 169.245334 228.949433
L 169.306111 229.316167
L 169.358205 229.004539
L 169.446765 226.418842
L 169.590892 213.944638
L 169.976387 174.501515
L 170.023272 175.516354
L 170.143088 185.67303
L 170.436551 211.581734
L 170.474753 210.983896
L 170.56505 204.488291
L 171.207543 145.979852
L 171.4055 145.049429
L 171.626031 144.952142
L 172.225113 145.024754
L 172.358821 145.281387
L 172.469955 146.24971
L 172.607136 149.841409
L 172.770363 161.028105
L 173.046462 201.012341
L 173.227054 215.229709
L 173.254838 214.892102
L 173.332979 210.123143
L 173.55872 177.494768
L 173.850446 149.742088
L 174.067505 145.42265
L 174.249834 144.999993
L 174.492939 144.968093
L 174.647485 145.133549
L 174.770774 145.702742
L 174.892327 147.666202
L 175.031244 154.211745
L 175.222256 176.669068
L 175.579968 222.415186
L 175.619907 221.484594
L 175.727568 211.472988
L 176.281501 150.267156
L 176.297129 150.318531
L 176.356169 151.447258
L 176.474249 158.916724
L 176.698253 190.959888
L 176.974351 224.031004
L 176.996925 223.728263
L 177.075066 218.554027
L 177.292125 184.985992
L 177.608162 149.766225
L 177.818274 145.528276
L 178.017968 144.988524
L 178.274965 144.950792
L 180.895295 145.006855
L 181.013375 145.288687
L 181.134927 146.337461
L 181.259953 149.657069
L 181.407553 161.012012
L 181.612456 198.031773
L 181.923284 246.24
L 181.937175 246.119639
L 181.992742 242.907156
L 182.136869 217.592441
L 182.544939 151.544382
L 182.751579 145.845148
L 182.946063 145.000244
L 183.163121 144.953509
L 184.616545 144.949442
L 187.436568 145.059341
L 187.643207 145.408114
L 188.14852 146.618919
L 188.219715 146.560478
L 188.686824 145.817224
L 189.364047 144.971426
L 189.975283 144.949446
L 192.904704 145.060039
L 193.038412 145.416999
L 193.170383 146.619273
L 193.324929 150.481138
L 193.790302 169.433811
L 193.892754 167.537833
L 194.158433 154.478489
L 194.441478 146.167232
L 194.642908 145.163066
L 194.722785 145.202041
L 194.738414 145.231954
L 194.851284 145.748811
L 194.988465 147.586792
L 195.156902 153.649587
L 195.570182 173.963971
L 195.643113 172.942784
L 195.78724 165.926408
L 196.1901 147.005692
L 196.400213 145.181815
L 196.605116 144.967191
L 196.929836 145.003059
L 197.061807 145.221421
L 197.186833 145.998331
L 197.317068 148.600221
L 197.49766 157.741155
L 197.90573 185.601079
L 197.978662 184.217587
L 198.126262 174.289628
L 198.543014 147.498206
L 198.753126 145.317146
L 198.798275 145.2897
L 198.848632 145.372839
L 198.951084 145.956932
L 199.083055 148.348911
L 199.244547 156.192188
L 199.685609 186.901779
L 199.762014 185.012165
L 199.947816 170.819484
L 200.225651 155.63732
L 200.23086 155.646204
L 200.270799 156.185307
L 200.383669 161.53913
L 200.767429 187.602177
L 200.847306 185.656231
L 201.022689 172.319596
L 201.39603 147.742625
L 201.614825 145.251879
L 201.802363 144.974716
L 202.340668 144.949419
L 204.235154 145.059013
L 204.358443 145.477523
L 204.492151 146.892199
L 204.627596 151.442701
L 204.825553 167.427171
L 205.17632 198.603767
L 205.219731 197.973175
L 205.322183 191.665424
L 205.938629 145.917087
L 206.143532 145.031161
L 206.351908 144.954068
L 208.902779 144.949442
L 254.005785 145.059579
L 254.597921 145.288882
L 255.433162 144.9505
L 258.579641 145.022601
L 259.183931 145.166099
L 259.855944 144.951383
L 262.653393 145.001497
L 262.908654 145.222952
L 263.617133 146.168026
L 263.670963 146.116509
L 263.901913 145.663171
L 264.280463 145.035206
L 264.612129 144.952205
L 266.907739 144.982351
L 267.789864 145.091255
L 268.248292 144.95438
L 270.201817 144.967366
L 270.486598 145.130341
L 270.759224 145.618468
L 271.205496 146.393519
L 271.34094 146.24859
L 272.148397 144.962462
L 273.079144 144.957133
L 273.388235 145.093456
L 273.624395 145.521689
L 274.193956 146.61953
L 274.383231 146.571808
L 274.60029 146.227099
L 275.230627 145.144532
L 275.534509 145.014178
L 275.833181 145.138211
L 276.260352 145.297645
L 276.621538 145.097472
L 276.94973 145.050738
L 277.831856 145.389465
L 278.385789 145.796791
L 278.773021 145.78642
L 279.54054 145.425966
L 280.068426 145.132156
L 280.467813 145.20223
L 281.018273 145.277516
L 282.787734 145.040159
L 283.77752 145.090556
L 284.532884 145.132644
L 285.388962 145.104372
L 288.868843 145.010934
L 289.869048 145.03359
L 295.576817 145.209038
L 296.900005 145.076418
L 299.060171 145.084906
L 300.273961 145.063373
L 306.106756 145.068231
L 307.615746 145.08649
L 308.551702 145.218177
L 309.548434 145.005919
L 311.076526 145.130353
L 311.451602 145.229747
L 312.040265 145.200242
L 312.429234 145.199192
L 313.229745 144.981142
L 313.853137 145.203543
L 314.2942 145.200395
L 315.127704 145.098757
L 315.384701 145.483837
L 315.669482 145.774032
L 315.827501 145.613225
L 316.341495 144.983165
L 316.714835 144.981745
L 316.952731 145.169969
L 317.463253 145.799437
L 317.515347 145.747454
L 318.274183 144.972644
L 321.653349 145.012442
L 322.082256 145.038243
L 322.868876 145.257688
L 323.276946 145.197933
L 324.579297 145.388354
L 324.841503 145.366446
L 325.383281 145.229195
L 326.020565 145.24661
L 326.380013 145.14761
L 326.616173 145.361168
L 327.411475 146.293671
L 328.427309 146.080694
L 329.281651 145.350517
L 329.608106 145.162385
L 329.922407 145.278415
L 330.283592 145.319085
L 330.604839 145.374645
L 331.037219 145.548129
L 331.306372 145.234374
L 331.622409 145.016469
L 332.011377 145.07028
L 332.705964 145.375259
L 333.086251 145.608661
L 333.338039 145.449128
L 333.739163 145.256604
L 334.214955 145.179553
L 334.71853 144.962405
L 335.220369 145.047029
L 336.152852 145.267117
L 336.69463 145.159271
L 337.318022 145.206478
L 337.783395 145.12791
L 337.97267 145.431699
L 338.443253 146.472946
L 338.500556 146.423221
L 338.67594 146.000911
L 339.000659 145.383864
L 339.132631 145.47462
L 339.441722 146.116349
L 339.709138 146.426605
L 339.879312 146.307906
L 340.336003 145.944771
L 340.71108 145.753132
L 341.424768 145.228135
L 341.891877 145.235887
L 342.211387 145.290315
L 342.791368 145.452926
L 343.09004 145.654886
L 343.461644 145.858691
L 344.124975 145.81263
L 344.406282 145.837168
L 345.944793 145.402644
L 346.359808 145.502929
L 347.280136 145.434145
L 347.658686 145.747062
L 347.900055 145.769997
L 348.285551 145.754093
L 348.90026 146.044085
L 349.712927 145.497433
L 349.978607 145.720446
L 350.478709 146.447091
L 350.544695 146.371619
L 351.173296 145.566145
L 351.668189 145.619436
L 351.973808 145.266566
L 352.322838 145.008471
L 352.659712 145.044916
L 352.979222 145.289599
L 353.329989 145.501377
L 353.741532 145.338829
L 354.877181 145.057003
L 355.332136 145.353733
L 355.604761 145.881258
L 355.974629 146.482394
L 356.117019 146.329069
L 356.856754 145.236226
L 357.105069 145.337725
L 357.38464 145.725444
L 357.82223 146.293432
L 358.05318 146.253921
L 358.360535 145.960192
L 359.102007 145.09636
L 359.435408 145.17702
L 360.317534 145.694016
L 360.9635 146.053592
L 361.151038 145.839447
L 361.54348 145.388685
L 361.746647 145.511952
L 362.604462 146.574072
L 363.101091 147.283933
L 363.142767 147.246905
L 363.323359 146.866264
L 363.63766 146.347655
L 364.146445 146.093765
L 364.9157 145.119343
L 365.834291 145.721124
L 366.257989 146.409709
L 366.264935 146.406223
L 366.403852 146.202288
L 366.88659 145.389456
L 367.03419 145.563501
L 367.655845 146.527287
L 367.947572 146.536102
L 368.345223 146.685464
L 368.657787 146.693789
L 369.095377 146.837522
L 369.317645 146.580877
L 369.697931 145.688615
L 370.015705 145.191756
L 370.312641 145.161821
L 371.694869 145.288267
L 372.132459 145.675939
L 372.370355 145.547172
L 373.042368 145.122274
L 373.481694 145.133941
L 373.966168 145.159634
L 374.728478 144.950305
L 384.313778 144.949442
L 388.80081 144.949442
L 388.80081 144.949442
" clip-path="url(#p1dd0cafc7b)" style="fill: none; stroke: #098760; stroke-width: 2; stroke-linecap: square"/>
   </g>
   <g id="patch_3">
    <path d="M 54 256.32
L 54 34.56
" style="fill: none; stroke: #000000; stroke-linejoin: miter; stroke-linecap: square"/>
   </g>
   <g id="patch_4">
    <path d="M 388.8 256.32
L 388.8 34.56
" style="fill: none; stroke: #000000; stroke-linejoin: miter; stroke-linecap: square"/>
   </g>
   <g id="patch_5">
    <path d="M 54 256.32
L 388.8 256.32
" style="fill: none; stroke: #000000; stroke-linejoin: miter; stroke-linecap: square"/>
   </g>
   <g id="patch_6">
    <path d="M 54 34.56
L 388.8 34.56
" style="fill: none; stroke: #000000; stroke-linejoin: miter; stroke-linecap: square"/>
   </g>
  </g>
 </g>
 <defs>
  <clipPath id="p1dd0cafc7b">
   <rect x="54" y="34.56" width="334.8" height="221.76"/>
  </clipPath>
 </defs>
</svg>
