<?xml version="1.0" encoding="utf-8" standalone="no"?>
<!DOCTYPE svg PUBLIC "-//W3C//DTD SVG 1.1//EN"
  "http://www.w3.org/Graphics/SVG/1.1/DTD/svg11.dtd">
<svg xmlns:xlink="http://www.w3.org/1999/xlink" width="576pt" height="432pt" viewBox="0 0 576 432" xmlns="http://www.w3.org/2000/svg" version="1.1">
 <metadata>
  <rdf:RDF xmlns:dc="http://purl.org/dc/elements/1.1/" xmlns:cc="http://creativecommons.org/ns#" xmlns:rdf="http://www.w3.org/1999/02/22-rdf-syntax-ns#">
   <cc:Work>
    <dc:type rdf:resource="http://purl.org/dc/dcmitype/StillImage"/>
    <dc:date>2023-02-05T13:26:34.322038</dc:date>
    <dc:format>image/svg+xml</dc:format>
    <dc:creator>
     <cc:Agent>
      <dc:title>Matplotlib v3.6.2, https://matplotlib.org/</dc:title>
     </cc:Agent>
    </dc:creator>
   </cc:Work>
  </rdf:RDF>
 </metadata>
 <defs>
  <style type="text/css">*{stroke-linejoin: round; stroke-linecap: butt}</style>
 </defs>
 <g id="figure_1">
  <g id="patch_1">
   <path d="M 0 432
L 576 432
L 576 0
L 0 0
z
" style="fill: #ffffff"/>
  </g>
  <g id="axes_1">
   <g id="patch_2">
    <path d="M 74.84 362.62
L 548.4 362.62
L 548.4 19.44
L 74.84 19.44
z
" style="fill: #ffffff"/>
   </g>
   <g id="matplotlib.axis_1">
    <g id="xtick_1">
     <g id="line2d_1">
      <defs>
       <path id="m4967de3c88" d="M 0 0
L 0 5
" style="stroke: #000000; stroke-width: 2"/>
      </defs>
      <g>
       <use xlink:href="#m4967de3c88" x="106.410667" y="362.62" style="stroke: #000000; stroke-width: 2"/>
      </g>
     </g>
     <g id="text_1">
      <!-- −1.4 -->
      <g transform="translate(82.52451 388.441906) scale(0.242 -0.242)">
       <defs>
        <path id="Arial-BoldMT-2212" d="M 266 1850
L 266 2672
L 3469 2672
L 3469 1850
L 266 1850
z
" transform="scale(0.015625)"/>
        <path id="Arial-BoldMT-31" d="M 2519 0
L 1641 0
L 1641 3309
Q 1159 2859 506 2644
L 506 3441
Q 850 3553 1253 3867
Q 1656 4181 1806 4600
L 2519 4600
L 2519 0
z
" transform="scale(0.015625)"/>
        <path id="Arial-BoldMT-2e" d="M 459 0
L 459 878
L 1338 878
L 1338 0
L 459 0
z
" transform="scale(0.015625)"/>
        <path id="Arial-BoldMT-34" d="M 1994 0
L 1994 922
L 119 922
L 119 1691
L 2106 4600
L 2844 4600
L 2844 1694
L 3413 1694
L 3413 922
L 2844 922
L 2844 0
L 1994 0
z
M 1994 1694
L 1994 3259
L 941 1694
L 1994 1694
z
" transform="scale(0.015625)"/>
       </defs>
       <use xlink:href="#Arial-BoldMT-2212"/>
       <use xlink:href="#Arial-BoldMT-31" x="58.398438"/>
       <use xlink:href="#Arial-BoldMT-2e" x="114.013672"/>
       <use xlink:href="#Arial-BoldMT-34" x="141.796875"/>
      </g>
     </g>
    </g>
    <g id="xtick_2">
     <g id="line2d_2">
      <g>
       <use xlink:href="#m4967de3c88" x="169.552" y="362.62" style="stroke: #000000; stroke-width: 2"/>
      </g>
     </g>
     <g id="text_2">
      <!-- −1.2 -->
      <g transform="translate(145.665844 388.441906) scale(0.242 -0.242)">
       <defs>
        <path id="Arial-BoldMT-32" d="M 3238 816
L 3238 0
L 159 0
Q 209 463 459 877
Q 709 1291 1447 1975
Q 2041 2528 2175 2725
Q 2356 2997 2356 3263
Q 2356 3556 2198 3714
Q 2041 3872 1763 3872
Q 1488 3872 1325 3706
Q 1163 3541 1138 3156
L 263 3244
Q 341 3969 753 4284
Q 1166 4600 1784 4600
Q 2463 4600 2850 4234
Q 3238 3869 3238 3325
Q 3238 3016 3127 2736
Q 3016 2456 2775 2150
Q 2616 1947 2200 1565
Q 1784 1184 1673 1059
Q 1563 934 1494 816
L 3238 816
z
" transform="scale(0.015625)"/>
       </defs>
       <use xlink:href="#Arial-BoldMT-2212"/>
       <use xlink:href="#Arial-BoldMT-31" x="58.398438"/>
       <use xlink:href="#Arial-BoldMT-2e" x="114.013672"/>
       <use xlink:href="#Arial-BoldMT-32" x="141.796875"/>
      </g>
     </g>
    </g>
    <g id="xtick_3">
     <g id="line2d_3">
      <g>
       <use xlink:href="#m4967de3c88" x="232.693333" y="362.62" style="stroke: #000000; stroke-width: 2"/>
      </g>
     </g>
     <g id="text_3">
      <!-- −1.0 -->
      <g transform="translate(208.807177 388.441906) scale(0.242 -0.242)">
       <defs>
        <path id="Arial-BoldMT-30" d="M 1756 4600
Q 2422 4600 2797 4125
Q 3244 3563 3244 2259
Q 3244 959 2794 391
Q 2422 -78 1756 -78
Q 1088 -78 678 436
Q 269 950 269 2269
Q 269 3563 719 4131
Q 1091 4600 1756 4600
z
M 1756 3872
Q 1597 3872 1472 3770
Q 1347 3669 1278 3406
Q 1188 3066 1188 2259
Q 1188 1453 1269 1151
Q 1350 850 1473 750
Q 1597 650 1756 650
Q 1916 650 2041 751
Q 2166 853 2234 1116
Q 2325 1453 2325 2259
Q 2325 3066 2244 3367
Q 2163 3669 2039 3770
Q 1916 3872 1756 3872
z
" transform="scale(0.015625)"/>
       </defs>
       <use xlink:href="#Arial-BoldMT-2212"/>
       <use xlink:href="#Arial-BoldMT-31" x="58.398438"/>
       <use xlink:href="#Arial-BoldMT-2e" x="114.013672"/>
       <use xlink:href="#Arial-BoldMT-30" x="141.796875"/>
      </g>
     </g>
    </g>
    <g id="xtick_4">
     <g id="line2d_4">
      <g>
       <use xlink:href="#m4967de3c88" x="295.834667" y="362.62" style="stroke: #000000; stroke-width: 2"/>
      </g>
     </g>
     <g id="text_4">
      <!-- −0.8 -->
      <g transform="translate(271.94851 388.441906) scale(0.242 -0.242)">
       <defs>
        <path id="Arial-BoldMT-38" d="M 1025 2472
Q 684 2616 529 2867
Q 375 3119 375 3419
Q 375 3931 733 4265
Q 1091 4600 1750 4600
Q 2403 4600 2764 4265
Q 3125 3931 3125 3419
Q 3125 3100 2959 2851
Q 2794 2603 2494 2472
Q 2875 2319 3073 2025
Q 3272 1731 3272 1347
Q 3272 713 2867 316
Q 2463 -81 1791 -81
Q 1166 -81 750 247
Q 259 634 259 1309
Q 259 1681 443 1992
Q 628 2303 1025 2472
z
M 1206 3356
Q 1206 3094 1354 2947
Q 1503 2800 1750 2800
Q 2000 2800 2150 2948
Q 2300 3097 2300 3359
Q 2300 3606 2151 3754
Q 2003 3903 1759 3903
Q 1506 3903 1356 3753
Q 1206 3603 1206 3356
z
M 1125 1394
Q 1125 1031 1311 828
Q 1497 625 1775 625
Q 2047 625 2225 820
Q 2403 1016 2403 1384
Q 2403 1706 2222 1901
Q 2041 2097 1763 2097
Q 1441 2097 1283 1875
Q 1125 1653 1125 1394
z
" transform="scale(0.015625)"/>
       </defs>
       <use xlink:href="#Arial-BoldMT-2212"/>
       <use xlink:href="#Arial-BoldMT-30" x="58.398438"/>
       <use xlink:href="#Arial-BoldMT-2e" x="114.013672"/>
       <use xlink:href="#Arial-BoldMT-38" x="141.796875"/>
      </g>
     </g>
    </g>
    <g id="xtick_5">
     <g id="line2d_5">
      <g>
       <use xlink:href="#m4967de3c88" x="358.976" y="362.62" style="stroke: #000000; stroke-width: 2"/>
      </g>
     </g>
     <g id="text_5">
      <!-- −0.6 -->
      <g transform="translate(335.089844 388.441906) scale(0.242 -0.242)">
       <defs>
        <path id="Arial-BoldMT-36" d="M 3247 3459
L 2397 3366
Q 2366 3628 2234 3753
Q 2103 3878 1894 3878
Q 1616 3878 1423 3628
Q 1231 3378 1181 2588
Q 1509 2975 1997 2975
Q 2547 2975 2939 2556
Q 3331 2138 3331 1475
Q 3331 772 2918 347
Q 2506 -78 1859 -78
Q 1166 -78 719 461
Q 272 1000 272 2228
Q 272 3488 737 4044
Q 1203 4600 1947 4600
Q 2469 4600 2811 4308
Q 3153 4016 3247 3459
z
M 1256 1544
Q 1256 1116 1453 883
Q 1650 650 1903 650
Q 2147 650 2309 840
Q 2472 1031 2472 1466
Q 2472 1913 2297 2120
Q 2122 2328 1859 2328
Q 1606 2328 1431 2129
Q 1256 1931 1256 1544
z
" transform="scale(0.015625)"/>
       </defs>
       <use xlink:href="#Arial-BoldMT-2212"/>
       <use xlink:href="#Arial-BoldMT-30" x="58.398438"/>
       <use xlink:href="#Arial-BoldMT-2e" x="114.013672"/>
       <use xlink:href="#Arial-BoldMT-36" x="141.796875"/>
      </g>
     </g>
    </g>
    <g id="xtick_6">
     <g id="line2d_6">
      <g>
       <use xlink:href="#m4967de3c88" x="422.117333" y="362.62" style="stroke: #000000; stroke-width: 2"/>
      </g>
     </g>
     <g id="text_6">
      <!-- −0.4 -->
      <g transform="translate(398.231177 388.441906) scale(0.242 -0.242)">
       <use xlink:href="#Arial-BoldMT-2212"/>
       <use xlink:href="#Arial-BoldMT-30" x="58.398438"/>
       <use xlink:href="#Arial-BoldMT-2e" x="114.013672"/>
       <use xlink:href="#Arial-BoldMT-34" x="141.796875"/>
      </g>
     </g>
    </g>
    <g id="xtick_7">
     <g id="line2d_7">
      <g>
       <use xlink:href="#m4967de3c88" x="485.258667" y="362.62" style="stroke: #000000; stroke-width: 2"/>
      </g>
     </g>
     <g id="text_7">
      <!-- −0.2 -->
      <g transform="translate(461.37251 388.441906) scale(0.242 -0.242)">
       <use xlink:href="#Arial-BoldMT-2212"/>
       <use xlink:href="#Arial-BoldMT-30" x="58.398438"/>
       <use xlink:href="#Arial-BoldMT-2e" x="114.013672"/>
       <use xlink:href="#Arial-BoldMT-32" x="141.796875"/>
      </g>
     </g>
    </g>
    <g id="xtick_8">
     <g id="line2d_8">
      <g>
       <use xlink:href="#m4967de3c88" x="548.4" y="362.62" style="stroke: #000000; stroke-width: 2"/>
      </g>
     </g>
     <g id="text_8">
      <!-- 0.0 -->
      <g transform="translate(531.581 388.441906) scale(0.242 -0.242)">
       <use xlink:href="#Arial-BoldMT-30"/>
       <use xlink:href="#Arial-BoldMT-2e" x="55.615234"/>
       <use xlink:href="#Arial-BoldMT-30" x="83.398438"/>
      </g>
     </g>
    </g>
    <g id="text_9">
     <!-- Energy (eV) -->
     <g transform="translate(241.603375 415.562437) scale(0.252 -0.252)">
      <defs>
       <path id="Arial-BoldMT-45" d="M 466 0
L 466 4581
L 3863 4581
L 3863 3806
L 1391 3806
L 1391 2791
L 3691 2791
L 3691 2019
L 1391 2019
L 1391 772
L 3950 772
L 3950 0
L 466 0
z
" transform="scale(0.015625)"/>
       <path id="Arial-BoldMT-6e" d="M 3478 0
L 2600 0
L 2600 1694
Q 2600 2231 2544 2389
Q 2488 2547 2361 2634
Q 2234 2722 2056 2722
Q 1828 2722 1647 2597
Q 1466 2472 1398 2265
Q 1331 2059 1331 1503
L 1331 0
L 453 0
L 453 3319
L 1269 3319
L 1269 2831
Q 1703 3394 2363 3394
Q 2653 3394 2893 3289
Q 3134 3184 3257 3021
Q 3381 2859 3429 2653
Q 3478 2447 3478 2063
L 3478 0
z
" transform="scale(0.015625)"/>
       <path id="Arial-BoldMT-65" d="M 2381 1056
L 3256 909
Q 3088 428 2723 176
Q 2359 -75 1813 -75
Q 947 -75 531 491
Q 203 944 203 1634
Q 203 2459 634 2926
Q 1066 3394 1725 3394
Q 2466 3394 2894 2905
Q 3322 2416 3303 1406
L 1103 1406
Q 1113 1016 1316 798
Q 1519 581 1822 581
Q 2028 581 2168 693
Q 2309 806 2381 1056
z
M 2431 1944
Q 2422 2325 2234 2523
Q 2047 2722 1778 2722
Q 1491 2722 1303 2513
Q 1116 2303 1119 1944
L 2431 1944
z
" transform="scale(0.015625)"/>
       <path id="Arial-BoldMT-72" d="M 1300 0
L 422 0
L 422 3319
L 1238 3319
L 1238 2847
Q 1447 3181 1614 3287
Q 1781 3394 1994 3394
Q 2294 3394 2572 3228
L 2300 2463
Q 2078 2606 1888 2606
Q 1703 2606 1575 2504
Q 1447 2403 1373 2137
Q 1300 1872 1300 1025
L 1300 0
z
" transform="scale(0.015625)"/>
       <path id="Arial-BoldMT-67" d="M 378 -219
L 1381 -341
Q 1406 -516 1497 -581
Q 1622 -675 1891 -675
Q 2234 -675 2406 -572
Q 2522 -503 2581 -350
Q 2622 -241 2622 53
L 2622 538
Q 2228 0 1628 0
Q 959 0 569 566
Q 263 1013 263 1678
Q 263 2513 664 2953
Q 1066 3394 1663 3394
Q 2278 3394 2678 2853
L 2678 3319
L 3500 3319
L 3500 341
Q 3500 -247 3403 -537
Q 3306 -828 3131 -993
Q 2956 -1159 2664 -1253
Q 2372 -1347 1925 -1347
Q 1081 -1347 728 -1058
Q 375 -769 375 -325
Q 375 -281 378 -219
z
M 1163 1728
Q 1163 1200 1367 954
Q 1572 709 1872 709
Q 2194 709 2416 961
Q 2638 1213 2638 1706
Q 2638 2222 2425 2472
Q 2213 2722 1888 2722
Q 1572 2722 1367 2476
Q 1163 2231 1163 1728
z
" transform="scale(0.015625)"/>
       <path id="Arial-BoldMT-79" d="M 44 3319
L 978 3319
L 1772 963
L 2547 3319
L 3456 3319
L 2284 125
L 2075 -453
Q 1959 -744 1854 -897
Q 1750 -1050 1614 -1145
Q 1478 -1241 1279 -1294
Q 1081 -1347 831 -1347
Q 578 -1347 334 -1294
L 256 -606
Q 463 -647 628 -647
Q 934 -647 1081 -467
Q 1228 -288 1306 -9
L 44 3319
z
" transform="scale(0.015625)"/>
       <path id="Arial-BoldMT-20" transform="scale(0.015625)"/>
       <path id="Arial-BoldMT-28" d="M 1916 -1347
L 1313 -1347
Q 834 -625 584 153
Q 334 931 334 1659
Q 334 2563 644 3369
Q 913 4069 1325 4659
L 1925 4659
Q 1497 3713 1336 3048
Q 1175 2384 1175 1641
Q 1175 1128 1270 590
Q 1366 53 1531 -431
Q 1641 -750 1916 -1347
z
" transform="scale(0.015625)"/>
       <path id="Arial-BoldMT-56" d="M 1634 0
L -3 4581
L 1000 4581
L 2159 1191
L 3281 4581
L 4263 4581
L 2622 0
L 1634 0
z
" transform="scale(0.015625)"/>
       <path id="Arial-BoldMT-29" d="M 216 -1347
Q 475 -791 581 -494
Q 688 -197 778 190
Q 869 578 912 926
Q 956 1275 956 1641
Q 956 2384 797 3048
Q 638 3713 209 4659
L 806 4659
Q 1278 3988 1539 3234
Q 1800 2481 1800 1706
Q 1800 1053 1594 306
Q 1359 -531 822 -1347
L 216 -1347
z
" transform="scale(0.015625)"/>
      </defs>
      <use xlink:href="#Arial-BoldMT-45"/>
      <use xlink:href="#Arial-BoldMT-6e" x="66.699219"/>
      <use xlink:href="#Arial-BoldMT-65" x="127.783203"/>
      <use xlink:href="#Arial-BoldMT-72" x="183.398438"/>
      <use xlink:href="#Arial-BoldMT-67" x="222.314453"/>
      <use xlink:href="#Arial-BoldMT-79" x="283.398438"/>
      <use xlink:href="#Arial-BoldMT-20" x="339.013672"/>
      <use xlink:href="#Arial-BoldMT-28" x="366.796875"/>
      <use xlink:href="#Arial-BoldMT-65" x="400.097656"/>
      <use xlink:href="#Arial-BoldMT-56" x="455.712891"/>
      <use xlink:href="#Arial-BoldMT-29" x="522.412109"/>
     </g>
    </g>
   </g>
   <g id="matplotlib.axis_2">
    <g id="ytick_1">
     <g id="line2d_9">
      <defs>
       <path id="m901e2f6802" d="M 0 0
L -5 0
" style="stroke: #000000; stroke-width: 2"/>
      </defs>
      <g>
       <use xlink:href="#m901e2f6802" x="74.84" y="362.62" style="stroke: #000000; stroke-width: 2"/>
      </g>
     </g>
     <g id="text_10">
      <!-- −3 -->
      <g transform="translate(38.748219 371.280953) scale(0.242 -0.242)">
       <defs>
        <path id="Arial-BoldMT-33" d="M 241 1216
L 1091 1319
Q 1131 994 1309 822
Q 1488 650 1741 650
Q 2013 650 2198 856
Q 2384 1063 2384 1413
Q 2384 1744 2206 1937
Q 2028 2131 1772 2131
Q 1603 2131 1369 2066
L 1466 2781
Q 1822 2772 2009 2936
Q 2197 3100 2197 3372
Q 2197 3603 2059 3740
Q 1922 3878 1694 3878
Q 1469 3878 1309 3722
Q 1150 3566 1116 3266
L 306 3403
Q 391 3819 561 4067
Q 731 4316 1036 4458
Q 1341 4600 1719 4600
Q 2366 4600 2756 4188
Q 3078 3850 3078 3425
Q 3078 2822 2419 2463
Q 2813 2378 3048 2084
Q 3284 1791 3284 1375
Q 3284 772 2843 347
Q 2403 -78 1747 -78
Q 1125 -78 715 280
Q 306 638 241 1216
z
" transform="scale(0.015625)"/>
       </defs>
       <use xlink:href="#Arial-BoldMT-2212"/>
       <use xlink:href="#Arial-BoldMT-33" x="58.398438"/>
      </g>
     </g>
    </g>
    <g id="ytick_2">
     <g id="line2d_10">
      <g>
       <use xlink:href="#m901e2f6802" x="74.84" y="305.423333" style="stroke: #000000; stroke-width: 2"/>
      </g>
     </g>
     <g id="text_11">
      <!-- −2 -->
      <g transform="translate(38.748219 314.084286) scale(0.242 -0.242)">
       <use xlink:href="#Arial-BoldMT-2212"/>
       <use xlink:href="#Arial-BoldMT-32" x="58.398438"/>
      </g>
     </g>
    </g>
    <g id="ytick_3">
     <g id="line2d_11">
      <g>
       <use xlink:href="#m901e2f6802" x="74.84" y="248.226667" style="stroke: #000000; stroke-width: 2"/>
      </g>
     </g>
     <g id="text_12">
      <!-- −1 -->
      <g transform="translate(38.748219 256.88762) scale(0.242 -0.242)">
       <use xlink:href="#Arial-BoldMT-2212"/>
       <use xlink:href="#Arial-BoldMT-31" x="58.398438"/>
      </g>
     </g>
    </g>
    <g id="ytick_4">
     <g id="line2d_12">
      <g>
       <use xlink:href="#m901e2f6802" x="74.84" y="191.03" style="stroke: #000000; stroke-width: 2"/>
      </g>
     </g>
     <g id="text_13">
      <!-- 0 -->
      <g transform="translate(52.882531 199.690953) scale(0.242 -0.242)">
       <use xlink:href="#Arial-BoldMT-30"/>
      </g>
     </g>
    </g>
    <g id="ytick_5">
     <g id="line2d_13">
      <g>
       <use xlink:href="#m901e2f6802" x="74.84" y="133.833333" style="stroke: #000000; stroke-width: 2"/>
      </g>
     </g>
     <g id="text_14">
      <!-- 1 -->
      <g transform="translate(52.882531 142.494286) scale(0.242 -0.242)">
       <use xlink:href="#Arial-BoldMT-31"/>
      </g>
     </g>
    </g>
    <g id="ytick_6">
     <g id="line2d_14">
      <g>
       <use xlink:href="#m901e2f6802" x="74.84" y="76.636667" style="stroke: #000000; stroke-width: 2"/>
      </g>
     </g>
     <g id="text_15">
      <!-- 2 -->
      <g transform="translate(52.882531 85.29762) scale(0.242 -0.242)">
       <use xlink:href="#Arial-BoldMT-32"/>
      </g>
     </g>
    </g>
    <g id="ytick_7">
     <g id="line2d_15">
      <g>
       <use xlink:href="#m901e2f6802" x="74.84" y="19.44" style="stroke: #000000; stroke-width: 2"/>
      </g>
     </g>
     <g id="text_16">
      <!-- 3 -->
      <g transform="translate(52.882531 28.100953) scale(0.242 -0.242)">
       <use xlink:href="#Arial-BoldMT-33"/>
      </g>
     </g>
    </g>
    <g id="text_17">
     <!-- Density of States (a.u.) -->
     <g transform="translate(29.444406 326.844219) rotate(-90) scale(0.252 -0.252)">
      <defs>
       <path id="Arial-BoldMT-44" d="M 463 4581
L 2153 4581
Q 2725 4581 3025 4494
Q 3428 4375 3715 4072
Q 4003 3769 4153 3330
Q 4303 2891 4303 2247
Q 4303 1681 4163 1272
Q 3991 772 3672 463
Q 3431 228 3022 97
Q 2716 0 2203 0
L 463 0
L 463 4581
z
M 1388 3806
L 1388 772
L 2078 772
Q 2466 772 2638 816
Q 2863 872 3011 1006
Q 3159 1141 3253 1448
Q 3347 1756 3347 2288
Q 3347 2819 3253 3103
Q 3159 3388 2990 3547
Q 2822 3706 2563 3763
Q 2369 3806 1803 3806
L 1388 3806
z
" transform="scale(0.015625)"/>
       <path id="Arial-BoldMT-73" d="M 150 947
L 1031 1081
Q 1088 825 1259 692
Q 1431 559 1741 559
Q 2081 559 2253 684
Q 2369 772 2369 919
Q 2369 1019 2306 1084
Q 2241 1147 2013 1200
Q 950 1434 666 1628
Q 272 1897 272 2375
Q 272 2806 612 3100
Q 953 3394 1669 3394
Q 2350 3394 2681 3172
Q 3013 2950 3138 2516
L 2309 2363
Q 2256 2556 2107 2659
Q 1959 2763 1684 2763
Q 1338 2763 1188 2666
Q 1088 2597 1088 2488
Q 1088 2394 1175 2328
Q 1294 2241 1995 2081
Q 2697 1922 2975 1691
Q 3250 1456 3250 1038
Q 3250 581 2869 253
Q 2488 -75 1741 -75
Q 1063 -75 667 200
Q 272 475 150 947
z
" transform="scale(0.015625)"/>
       <path id="Arial-BoldMT-69" d="M 459 3769
L 459 4581
L 1338 4581
L 1338 3769
L 459 3769
z
M 459 0
L 459 3319
L 1338 3319
L 1338 0
L 459 0
z
" transform="scale(0.015625)"/>
       <path id="Arial-BoldMT-74" d="M 1981 3319
L 1981 2619
L 1381 2619
L 1381 1281
Q 1381 875 1398 808
Q 1416 741 1477 697
Q 1538 653 1625 653
Q 1747 653 1978 738
L 2053 56
Q 1747 -75 1359 -75
Q 1122 -75 931 4
Q 741 84 652 211
Q 563 338 528 553
Q 500 706 500 1172
L 500 2619
L 97 2619
L 97 3319
L 500 3319
L 500 3978
L 1381 4491
L 1381 3319
L 1981 3319
z
" transform="scale(0.015625)"/>
       <path id="Arial-BoldMT-6f" d="M 256 1706
Q 256 2144 472 2553
Q 688 2963 1083 3178
Q 1478 3394 1966 3394
Q 2719 3394 3200 2905
Q 3681 2416 3681 1669
Q 3681 916 3195 420
Q 2709 -75 1972 -75
Q 1516 -75 1102 131
Q 688 338 472 736
Q 256 1134 256 1706
z
M 1156 1659
Q 1156 1166 1390 903
Q 1625 641 1969 641
Q 2313 641 2545 903
Q 2778 1166 2778 1666
Q 2778 2153 2545 2415
Q 2313 2678 1969 2678
Q 1625 2678 1390 2415
Q 1156 2153 1156 1659
z
" transform="scale(0.015625)"/>
       <path id="Arial-BoldMT-66" d="M 75 3319
L 563 3319
L 563 3569
Q 563 3988 652 4194
Q 741 4400 980 4529
Q 1219 4659 1584 4659
Q 1959 4659 2319 4547
L 2200 3934
Q 1991 3984 1797 3984
Q 1606 3984 1523 3895
Q 1441 3806 1441 3553
L 1441 3319
L 2097 3319
L 2097 2628
L 1441 2628
L 1441 0
L 563 0
L 563 2628
L 75 2628
L 75 3319
z
" transform="scale(0.015625)"/>
       <path id="Arial-BoldMT-53" d="M 231 1491
L 1131 1578
Q 1213 1125 1461 912
Q 1709 700 2131 700
Q 2578 700 2804 889
Q 3031 1078 3031 1331
Q 3031 1494 2936 1608
Q 2841 1722 2603 1806
Q 2441 1863 1863 2006
Q 1119 2191 819 2459
Q 397 2838 397 3381
Q 397 3731 595 4036
Q 794 4341 1167 4500
Q 1541 4659 2069 4659
Q 2931 4659 3367 4281
Q 3803 3903 3825 3272
L 2900 3231
Q 2841 3584 2645 3739
Q 2450 3894 2059 3894
Q 1656 3894 1428 3728
Q 1281 3622 1281 3444
Q 1281 3281 1419 3166
Q 1594 3019 2269 2859
Q 2944 2700 3267 2529
Q 3591 2359 3773 2064
Q 3956 1769 3956 1334
Q 3956 941 3737 597
Q 3519 253 3119 86
Q 2719 -81 2122 -81
Q 1253 -81 787 320
Q 322 722 231 1491
z
" transform="scale(0.015625)"/>
       <path id="Arial-BoldMT-61" d="M 1116 2306
L 319 2450
Q 453 2931 781 3162
Q 1109 3394 1756 3394
Q 2344 3394 2631 3255
Q 2919 3116 3036 2902
Q 3153 2688 3153 2116
L 3144 1091
Q 3144 653 3186 445
Q 3228 238 3344 0
L 2475 0
Q 2441 88 2391 259
Q 2369 338 2359 363
Q 2134 144 1878 34
Q 1622 -75 1331 -75
Q 819 -75 523 203
Q 228 481 228 906
Q 228 1188 362 1408
Q 497 1628 739 1745
Q 981 1863 1438 1950
Q 2053 2066 2291 2166
L 2291 2253
Q 2291 2506 2166 2614
Q 2041 2722 1694 2722
Q 1459 2722 1328 2630
Q 1197 2538 1116 2306
z
M 2291 1594
Q 2122 1538 1756 1459
Q 1391 1381 1278 1306
Q 1106 1184 1106 997
Q 1106 813 1243 678
Q 1381 544 1594 544
Q 1831 544 2047 700
Q 2206 819 2256 991
Q 2291 1103 2291 1419
L 2291 1594
z
" transform="scale(0.015625)"/>
       <path id="Arial-BoldMT-75" d="M 2644 0
L 2644 497
Q 2463 231 2167 78
Q 1872 -75 1544 -75
Q 1209 -75 943 72
Q 678 219 559 484
Q 441 750 441 1219
L 441 3319
L 1319 3319
L 1319 1794
Q 1319 1094 1367 936
Q 1416 778 1544 686
Q 1672 594 1869 594
Q 2094 594 2272 717
Q 2450 841 2515 1023
Q 2581 1206 2581 1919
L 2581 3319
L 3459 3319
L 3459 0
L 2644 0
z
" transform="scale(0.015625)"/>
      </defs>
      <use xlink:href="#Arial-BoldMT-44"/>
      <use xlink:href="#Arial-BoldMT-65" x="72.216797"/>
      <use xlink:href="#Arial-BoldMT-6e" x="127.832031"/>
      <use xlink:href="#Arial-BoldMT-73" x="188.916016"/>
      <use xlink:href="#Arial-BoldMT-69" x="244.53125"/>
      <use xlink:href="#Arial-BoldMT-74" x="272.314453"/>
      <use xlink:href="#Arial-BoldMT-79" x="305.615234"/>
      <use xlink:href="#Arial-BoldMT-20" x="361.230469"/>
      <use xlink:href="#Arial-BoldMT-6f" x="389.013672"/>
      <use xlink:href="#Arial-BoldMT-66" x="450.097656"/>
      <use xlink:href="#Arial-BoldMT-20" x="483.398438"/>
      <use xlink:href="#Arial-BoldMT-53" x="511.181641"/>
      <use xlink:href="#Arial-BoldMT-74" x="577.880859"/>
      <use xlink:href="#Arial-BoldMT-61" x="611.181641"/>
      <use xlink:href="#Arial-BoldMT-74" x="666.796875"/>
      <use xlink:href="#Arial-BoldMT-65" x="700.097656"/>
      <use xlink:href="#Arial-BoldMT-73" x="755.712891"/>
      <use xlink:href="#Arial-BoldMT-20" x="811.328125"/>
      <use xlink:href="#Arial-BoldMT-28" x="839.111328"/>
      <use xlink:href="#Arial-BoldMT-61" x="872.412109"/>
      <use xlink:href="#Arial-BoldMT-2e" x="928.027344"/>
      <use xlink:href="#Arial-BoldMT-75" x="955.810547"/>
      <use xlink:href="#Arial-BoldMT-2e" x="1016.894531"/>
      <use xlink:href="#Arial-BoldMT-29" x="1044.677734"/>
     </g>
    </g>
   </g>
   <g id="line2d_16">
    <path d="M 74.836222 189.538512
L 88.464065 190.068305
L 105.658073 190.372689
L 118.458056 190.456921
L 129.474958 190.285046
L 144.822202 190.019333
L 153.100798 190.14812
L 171.250028 190.498025
L 178.127631 190.363333
L 182.776382 190.063509
L 186.151502 189.63029
L 189.399259 188.98649
L 192.83806 188.074645
L 196.849995 186.766217
L 204.937547 184.041933
L 207.357445 183.555785
L 209.649979 183.324522
L 211.81515 183.329183
L 214.107685 183.562197
L 216.654945 184.053197
L 219.647976 184.868883
L 233.530545 188.964637
L 237.287754 189.743932
L 241.044963 190.287237
L 245.311625 190.671476
L 250.533508 190.906715
L 258.430016 191.012885
L 285.367295 191.029992
L 432.280538 190.920084
L 436.801926 190.669215
L 439.540231 190.2961
L 441.769083 189.772065
L 443.615847 189.111794
L 445.271566 188.282158
L 446.799923 187.269978
L 448.264597 186.038885
L 449.729272 184.515266
L 451.193947 182.662621
L 452.658622 180.444446
L 454.186978 177.708891
L 455.842697 174.279116
L 457.689461 169.931875
L 459.790951 164.389096
L 463.293434 154.353013
L 466.09542 146.637455
L 467.878503 142.334518
L 469.343177 139.340478
L 470.553126 137.327382
L 471.635712 135.938965
L 472.590934 135.074625
L 473.418794 134.605274
L 474.246654 134.393292
L 475.010832 134.424063
L 475.77501 134.670366
L 476.602869 135.178318
L 477.494411 136.00322
L 478.449633 137.203638
L 479.532219 138.946681
L 480.805849 141.453297
L 482.334205 144.990209
L 484.308332 150.171165
L 488.00186 160.657169
L 490.931209 168.654961
L 492.905336 173.409049
L 494.7521 177.285554
L 496.407819 180.271503
L 497.936175 182.601741
L 499.464532 184.531658
L 500.992888 186.101481
L 502.521244 187.353764
L 504.113282 188.36644
L 505.769001 189.154113
L 507.615765 189.776344
L 509.780936 190.255586
L 512.646604 190.645456
L 516.149087 190.890016
L 521.30729 191.005328
L 539.647565 191.029932
L 548.435613 191.03
L 548.435613 191.03
" clip-path="url(#pf68026b27f)" style="fill: none; stroke: #000000; stroke-width: 2; stroke-linecap: square"/>
   </g>
   <g id="line2d_17">
    <path d="M 74.836222 192.521081
L 88.527747 191.99001
L 105.849117 191.68458
L 118.521738 191.603756
L 129.602321 191.778653
L 144.75852 192.040806
L 153.037116 191.912979
L 171.31371 191.561712
L 178.127631 191.696522
L 182.776382 191.997067
L 186.151502 192.430994
L 189.399259 193.075579
L 192.83806 193.98852
L 196.849995 195.29816
L 204.873866 198.005392
L 207.293763 198.496979
L 209.586297 198.733869
L 211.751469 198.734691
L 214.044003 198.506498
L 216.591264 198.019589
L 219.584295 197.206778
L 233.594227 193.077435
L 237.351436 192.302682
L 241.108645 191.763832
L 245.375306 191.383465
L 250.59719 191.151169
L 258.557379 191.046449
L 286.322517 191.030005
L 432.280538 191.140401
L 436.801926 191.39198
L 439.540231 191.766235
L 441.769083 192.291976
L 443.615847 192.954125
L 445.271566 193.785637
L 446.799923 194.799588
L 448.264597 196.03242
L 449.729272 197.558099
L 451.193947 199.413444
L 452.658622 201.635272
L 454.186978 204.375856
L 455.842697 207.811741
L 457.689461 212.165187
L 459.790951 217.712226
L 463.357115 227.929483
L 466.09542 235.455669
L 467.878503 239.752963
L 469.343177 242.741644
L 470.553126 244.749847
L 471.635712 246.133543
L 472.590934 246.993473
L 473.418794 247.458889
L 474.246654 247.666916
L 475.010832 247.632549
L 475.77501 247.382768
L 476.602869 246.871257
L 477.494411 246.042855
L 478.449633 244.839187
L 479.532219 243.093174
L 480.805849 240.583861
L 482.334205 237.044457
L 484.308332 231.860708
L 488.00186 221.369111
L 490.931209 213.370386
L 492.905336 208.619556
L 494.7521 204.748132
L 496.407819 201.767252
L 497.936175 199.441238
L 499.464532 197.514691
L 500.992888 195.947526
L 502.521244 194.697365
L 504.113282 193.686525
L 505.769001 192.900496
L 507.615765 192.279796
L 509.780936 191.801945
L 512.646604 191.413272
L 516.149087 191.16945
L 521.30729 191.054553
L 539.711246 191.030066
L 548.435613 191.03
L 548.435613 191.03
" clip-path="url(#pf68026b27f)" style="fill: none; stroke: #000000; stroke-width: 2; stroke-linecap: square"/>
   </g>
   <g id="line2d_18">
    <path d="M 74.836222 185.880392
L 79.421291 186.412387
L 82.923774 186.597477
L 86.235212 186.545785
L 89.865058 186.263186
L 94.641172 185.645654
L 108.396378 183.55225
L 112.599357 182.65045
L 117.057063 181.461625
L 125.33566 179.193354
L 129.602321 178.295618
L 133.168485 177.762757
L 136.288879 177.516256
L 139.663999 177.480186
L 143.612253 177.673459
L 151.381397 178.10207
L 154.119702 177.98778
L 156.412236 177.669814
L 158.450045 177.16136
L 160.296809 176.477105
L 162.207254 175.52983
L 164.372425 174.199722
L 166.856004 172.402984
L 174.370422 166.743157
L 176.662957 165.43583
L 178.89181 164.415114
L 183.922649 162.290867
L 185.323642 161.339855
L 186.597272 160.203134
L 187.870902 158.772459
L 189.208214 156.922402
L 190.545526 154.683235
L 191.946519 151.884455
L 193.474875 148.2999
L 195.194276 143.675557
L 197.168403 137.705385
L 199.651982 129.433687
L 202.772376 119.169943
L 204.300732 114.879089
L 205.574362 111.944541
L 206.656948 109.973213
L 207.612171 108.659492
L 208.44003 107.861166
L 209.204208 107.41742
L 209.904705 107.267581
L 210.54152 107.351992
L 211.178335 107.652017
L 211.878832 108.225343
L 212.706691 109.214056
L 213.661914 110.746642
L 214.7445 112.950527
L 215.954448 115.94314
L 217.355442 120.019805
L 219.138524 125.958772
L 222.004192 136.427895
L 225.31563 148.301456
L 227.926572 156.824341
L 230.34647 163.985746
L 232.511641 169.728365
L 234.422086 174.190388
L 236.141487 177.656609
L 237.733525 180.364917
L 239.261881 182.541164
L 240.790237 184.350349
L 242.382275 185.895669
L 244.037994 187.19025
L 245.757395 188.245323
L 247.540477 189.07662
L 249.514604 189.745819
L 251.743457 190.257797
L 254.354399 190.618539
L 257.920564 190.870031
L 263.206129 190.996417
L 276.706609 191.02976
L 429.287507 190.940415
L 433.681532 190.69617
L 436.483518 190.341722
L 438.457645 189.875356
L 440.177046 189.246697
L 441.705402 188.459005
L 443.106395 187.480337
L 444.380025 186.320589
L 445.653656 184.852611
L 446.927286 183.02701
L 448.200916 180.79425
L 449.474546 178.104565
L 450.811858 174.734152
L 452.14917 170.747448
L 453.550163 165.849513
L 455.078519 159.65883
L 456.79792 151.715852
L 458.708365 141.788232
L 461.000899 128.596535
L 466.222783 98.110523
L 467.942184 89.560148
L 469.343177 83.639864
L 470.489444 79.660287
L 471.508349 76.880234
L 472.336208 75.204657
L 473.100386 74.137832
L 473.737202 73.598039
L 474.310335 73.381668
L 474.819787 73.402246
L 475.392921 73.663415
L 475.966054 74.175011
L 476.602869 75.035155
L 477.367048 76.46955
L 478.194907 78.514342
L 479.15013 81.496555
L 480.296397 85.875417
L 481.633709 91.915612
L 483.289428 100.474795
L 485.645644 113.956686
L 490.994891 144.938181
L 492.905336 154.474461
L 494.688418 162.262192
L 496.280456 168.272714
L 497.745131 172.990507
L 499.146124 176.782258
L 500.483436 179.801194
L 501.820747 182.293387
L 503.158059 184.317657
L 504.495371 185.932756
L 505.832683 187.196443
L 507.233676 188.205509
L 508.698351 188.986089
L 510.417751 189.644257
L 512.519241 190.206374
L 514.875457 190.602915
L 517.868488 190.865496
L 522.007786 190.988361
L 535.317222 191.029796
L 548.435613 191.03
L 548.435613 191.03
" clip-path="url(#pf68026b27f)" style="fill: none; stroke: #047df6; stroke-width: 2; stroke-linecap: square"/>
   </g>
   <g id="line2d_19">
    <path d="M 74.836222 196.178603
L 79.421291 195.64757
L 82.923774 195.463064
L 86.235212 195.515093
L 89.92874 195.804654
L 94.704853 196.424728
L 108.460059 198.520879
L 112.663039 199.427189
L 117.120745 200.618417
L 125.399341 202.886189
L 129.602321 203.768459
L 133.168485 204.296406
L 136.352561 204.54306
L 139.727681 204.574954
L 143.675934 204.378929
L 151.381397 203.950988
L 154.056021 204.058328
L 156.348555 204.369649
L 158.386363 204.871981
L 160.233127 205.550863
L 162.143572 206.494231
L 164.308744 207.821435
L 166.792323 209.614684
L 174.370422 215.311915
L 176.662957 216.613785
L 178.89181 217.632367
L 183.922649 219.766635
L 185.323642 220.721494
L 186.597272 221.861296
L 187.870902 223.294904
L 189.208214 225.148254
L 190.545526 227.391321
L 191.946519 230.195257
L 193.474875 233.786677
L 195.194276 238.419318
L 197.168403 244.398244
L 199.715663 252.894781
L 202.708694 262.747835
L 204.300732 267.228143
L 205.574362 270.157224
L 206.656948 272.122729
L 207.612171 273.430775
L 208.44003 274.224012
L 209.204208 274.663091
L 209.904705 274.80881
L 210.54152 274.720884
L 211.178335 274.417645
L 211.878832 273.841126
L 212.706691 272.849027
L 213.661914 271.312935
L 214.7445 269.105418
L 215.954448 266.108921
L 217.355442 262.027611
L 219.138524 256.082381
L 222.004192 245.604926
L 225.31563 233.729493
L 227.926572 225.210519
L 230.34647 218.053776
L 232.511641 212.31443
L 234.422086 207.854522
L 236.141487 204.389685
L 237.733525 201.682318
L 239.261881 199.50683
L 240.790237 197.698447
L 242.382275 196.154207
L 244.037994 194.861173
L 245.757395 193.807995
L 247.540477 192.978646
L 249.514604 192.311173
L 251.743457 191.800364
L 254.354399 191.440309
L 257.920564 191.18938
L 263.206129 191.063473
L 276.706609 191.03024
L 429.287507 191.119966
L 433.681532 191.365061
L 436.483518 191.720579
L 438.457645 192.188238
L 440.177046 192.818566
L 441.705402 193.608287
L 443.106395 194.589368
L 444.380025 195.751854
L 445.653656 197.223161
L 446.927286 199.052753
L 448.200916 201.290168
L 449.474546 203.98506
L 450.811858 207.361399
L 452.14917 211.354358
L 453.550163 216.259042
L 455.078519 222.457127
L 456.79792 230.408223
L 458.708365 240.344244
L 461.000899 253.544162
L 466.159102 283.677769
L 467.878503 292.25435
L 469.279496 298.205368
L 470.489444 302.416455
L 471.508349 305.187449
L 472.336208 306.858183
L 473.100386 307.922461
L 473.737202 308.46117
L 474.310335 308.677112
L 474.819787 308.656409
L 475.392921 308.395193
L 475.966054 307.883438
L 476.602869 307.02273
L 477.367048 305.586716
L 478.194907 303.538451
L 479.15013 300.549336
L 480.296397 296.158761
L 481.633709 290.102436
L 483.289428 281.523673
L 485.645644 268.024479
L 490.994891 237.053499
L 492.905336 227.52504
L 494.688418 219.744186
L 496.280456 213.739889
L 497.745131 209.028223
L 499.146124 205.242749
L 500.483436 202.229866
L 501.820747 199.743444
L 503.158059 197.724323
L 504.495371 196.113433
L 505.832683 194.85298
L 507.233676 193.846449
L 508.698351 193.06781
L 510.417751 192.411315
L 512.519241 191.850765
L 514.875457 191.455489
L 517.868488 191.193855
L 522.007786 191.071458
L 535.317222 191.030203
L 548.435613 191.03
L 548.435613 191.03
" clip-path="url(#pf68026b27f)" style="fill: none; stroke: #047df6; stroke-width: 2; stroke-linecap: square"/>
   </g>
   <g id="line2d_20">
    <path d="M 74.836222 174.490158
L 77.70189 175.702133
L 80.24915 176.540067
L 82.732729 177.126989
L 85.216308 177.486126
L 88.273021 177.693289
L 100.308826 178.264292
L 104.002354 178.825443
L 109.033193 179.846167
L 117.75756 181.618581
L 122.40631 182.312926
L 127.182423 182.790043
L 132.913759 183.130821
L 142.720712 183.428574
L 147.815233 183.742674
L 152.463983 184.269201
L 158.131637 185.146994
L 169.21222 186.925825
L 174.434104 187.432309
L 182.139567 187.925291
L 187.170406 188.064113
L 191.054978 187.954241
L 194.621143 187.628803
L 198.505715 187.045856
L 207.930578 185.487777
L 210.987291 185.298636
L 213.852959 185.347036
L 216.84599 185.619511
L 220.22111 186.160027
L 225.506675 187.267538
L 236.969347 189.689301
L 241.108645 190.271969
L 245.502669 190.664998
L 250.788235 190.904516
L 258.684742 191.012386
L 285.239931 191.029988
L 437.247696 190.920984
L 441.960128 190.67302
L 445.207885 190.288627
L 447.882508 189.752343
L 450.238724 189.05954
L 452.403896 188.198879
L 454.505385 187.127118
L 456.734238 185.740629
L 459.154136 183.971004
L 462.27453 181.380634
L 466.795917 177.652156
L 468.961088 176.164024
L 470.744171 175.203194
L 472.272527 174.625477
L 473.737202 174.312444
L 475.138195 174.234538
L 476.539188 174.37232
L 478.003863 174.746013
L 479.468537 175.351139
L 481.124257 176.280186
L 483.098383 177.65139
L 485.773007 179.802172
L 492.077476 184.970267
L 494.497374 186.589073
L 496.789908 187.855195
L 498.95508 188.797161
L 501.247614 189.546009
L 503.731193 190.116216
L 506.533179 190.523796
L 510.035662 190.796304
L 515.512272 190.975187
L 525.382906 191.027568
L 548.435613 191.03
L 548.435613 191.03
" clip-path="url(#pf68026b27f)" style="fill: none; stroke: #ed0345; stroke-width: 2; stroke-linecap: square"/>
   </g>
   <g id="line2d_21">
    <path d="M 74.836222 207.563627
L 77.70189 206.353466
L 80.24915 205.517254
L 82.732729 204.931688
L 85.216308 204.573267
L 88.273021 204.366356
L 100.308826 203.795578
L 104.002354 203.234128
L 109.033193 202.213378
L 117.821241 200.429596
L 122.469992 199.73817
L 127.246105 199.264984
L 133.041122 198.924157
L 149.661996 198.13226
L 154.629154 197.476888
L 161.443076 196.32876
L 167.874908 195.297923
L 172.842066 194.758358
L 179.528625 194.279307
L 185.833094 194.005744
L 189.972392 194.050482
L 193.538557 194.309706
L 197.295766 194.810633
L 202.453968 195.754362
L 206.720629 196.436692
L 209.904705 196.721271
L 212.770373 196.755481
L 215.699722 196.568295
L 218.883798 196.136114
L 223.086778 195.316308
L 238.625066 192.109244
L 242.891727 191.601308
L 247.604159 191.274351
L 253.653902 191.094584
L 264.92553 191.03288
L 397.892523 191.029999
L 437.247696 191.139331
L 441.960128 191.387967
L 445.207885 191.773187
L 447.882508 192.310272
L 450.238724 193.003941
L 452.403896 193.865703
L 454.505385 194.938913
L 456.734238 196.327023
L 459.154136 198.097869
L 462.27453 200.68819
L 466.795917 204.413907
L 468.961088 205.899897
L 470.744171 206.85861
L 472.272527 207.434271
L 473.737202 207.745173
L 475.138195 207.820996
L 476.539188 207.681191
L 478.003863 207.305557
L 479.468537 206.698776
L 481.124257 205.768251
L 483.098383 204.395836
L 485.773007 202.244378
L 492.077476 197.078907
L 494.497374 195.462326
L 496.789908 194.198333
L 498.95508 193.257999
L 501.247614 192.510424
L 503.731193 191.941245
L 506.533179 191.534574
L 510.035662 191.262877
L 515.512272 191.084601
L 525.446588 191.03237
L 548.435613 191.03
L 548.435613 191.03
" clip-path="url(#pf68026b27f)" style="fill: none; stroke: #ed0345; stroke-width: 2; stroke-linecap: square"/>
   </g>
   <g id="line2d_22">
    <path d="M 74.836222 182.456738
L 78.083979 182.884823
L 81.204373 183.068481
L 84.388449 183.034557
L 88.400384 182.75142
L 96.870024 182.094707
L 100.499871 182.1059
L 104.511806 182.349063
L 112.663039 183.151543
L 122.215266 183.960665
L 130.239136 184.718556
L 149.025181 186.744288
L 153.164479 186.863623
L 156.666963 186.749969
L 159.787357 186.433607
L 162.907751 185.887559
L 166.728641 184.979841
L 174.434104 183.073438
L 177.809224 182.538579
L 181.566433 182.186307
L 185.005235 181.787747
L 187.170406 181.313337
L 189.208214 180.637965
L 191.11866 179.76601
L 192.965423 178.676724
L 195.003232 177.211824
L 197.295766 175.28527
L 200.352478 172.395232
L 203.281828 169.728846
L 205.001229 168.452121
L 206.529585 167.592156
L 207.930578 167.057348
L 209.204208 166.799185
L 210.414157 166.769446
L 211.624106 166.960656
L 212.897736 167.390362
L 214.298729 168.107361
L 215.827085 169.147363
L 217.546486 170.59172
L 219.775339 172.783842
L 227.608165 180.766428
L 230.537514 183.288014
L 233.148456 185.253982
L 235.504672 186.754677
L 237.669843 187.871092
L 239.898696 188.768282
L 242.318594 189.500739
L 245.056899 190.089326
L 248.113611 190.514253
L 251.87082 190.804639
L 257.156386 190.968519
L 267.536472 191.0265
L 405.470623 191.029996
L 439.412868 190.919692
L 444.507388 190.66779
L 448.137234 190.273705
L 451.257628 189.717649
L 454.123296 188.981319
L 457.116327 187.972706
L 460.427766 186.616829
L 467.814821 183.488694
L 470.234718 182.762129
L 472.272527 182.373328
L 474.246654 182.226126
L 476.22078 182.304002
L 478.194907 182.602291
L 480.296397 183.150062
L 482.843657 184.059993
L 486.600867 185.670495
L 491.886432 187.908772
L 494.943144 188.940412
L 497.872494 189.698138
L 500.865525 190.240057
L 504.304326 190.628919
L 508.507306 190.868489
L 515.384909 191.002163
L 532.005783 191.029965
L 548.435613 191.03
L 548.435613 191.03
" clip-path="url(#pf68026b27f)" style="fill: none; stroke: #ef6932; stroke-width: 2; stroke-linecap: square"/>
   </g>
   <g id="line2d_23">
    <path d="M 74.836222 199.601101
L 78.083979 199.173587
L 81.204373 198.991003
L 84.388449 199.026105
L 88.464065 199.315996
L 96.806343 199.964467
L 100.436189 199.956716
L 104.384443 199.721685
L 111.962542 198.975782
L 121.260043 198.174828
L 129.98441 197.368326
L 149.343589 195.296426
L 153.419206 195.19653
L 156.921689 195.328565
L 160.042083 195.664453
L 163.226158 196.24136
L 167.174412 197.198957
L 174.115696 198.92421
L 177.490816 199.479094
L 181.056981 199.829109
L 184.877872 200.249427
L 187.106724 200.729428
L 189.144533 201.399407
L 191.054978 202.265484
L 192.901742 203.348871
L 194.93955 204.808418
L 197.232084 206.730087
L 200.225115 209.556369
L 203.218146 212.292478
L 204.937547 213.57871
L 206.465903 214.448111
L 207.866897 214.992022
L 209.140527 215.258946
L 210.350476 215.297525
L 211.560424 215.115293
L 212.834054 214.694039
L 214.235048 213.985279
L 215.763404 212.953259
L 217.482805 211.516924
L 219.647976 209.39815
L 227.862891 201.053234
L 230.728559 198.610069
L 233.339501 196.667001
L 235.632035 195.22682
L 237.797206 194.126639
L 240.026059 193.24374
L 242.445957 192.523896
L 245.184262 191.946561
L 248.304656 191.52449
L 252.125546 191.241823
L 257.602156 191.084378
L 268.74642 191.032605
L 430.497456 191.040018
L 440.750179 191.183814
L 445.335248 191.463344
L 448.837731 191.893315
L 451.894444 192.488683
L 454.69643 193.257541
L 457.753142 194.334659
L 461.255626 195.815324
L 467.178006 198.346054
L 469.725266 199.168644
L 471.826756 199.622695
L 473.800883 199.820158
L 475.77501 199.791546
L 477.749137 199.541417
L 479.786945 199.058317
L 482.206842 198.241623
L 485.518281 196.86321
L 492.268521 194.004914
L 495.325233 193.00406
L 498.254583 192.277581
L 501.311295 191.75503
L 504.813778 191.389468
L 509.207803 191.167784
L 516.722221 191.048263
L 538.756023 191.030014
L 548.435613 191.03
L 548.435613 191.03
" clip-path="url(#pf68026b27f)" style="fill: none; stroke: #ef6932; stroke-width: 2; stroke-linecap: square"/>
   </g>
   <g id="patch_3">
    <path d="M 74.84 362.62
L 74.84 19.44
" style="fill: none; stroke: #000000; stroke-width: 2; stroke-linejoin: miter; stroke-linecap: square"/>
   </g>
   <g id="patch_4">
    <path d="M 548.4 362.62
L 548.4 19.44
" style="fill: none; stroke: #000000; stroke-width: 2; stroke-linejoin: miter; stroke-linecap: square"/>
   </g>
   <g id="patch_5">
    <path d="M 74.84 362.62
L 548.4 362.62
" style="fill: none; stroke: #000000; stroke-width: 2; stroke-linejoin: miter; stroke-linecap: square"/>
   </g>
   <g id="patch_6">
    <path d="M 74.84 19.44
L 548.4 19.44
" style="fill: none; stroke: #000000; stroke-width: 2; stroke-linejoin: miter; stroke-linecap: square"/>
   </g>
   <g id="legend_1">
    <g id="line2d_24">
     <path d="M 248.543922 247.748281
L 268.743922 247.748281
L 288.943922 247.748281
" style="fill: none; stroke: #000000; stroke-width: 2; stroke-linecap: square"/>
    </g>
    <g id="text_18">
     <!-- TS C -->
     <g transform="translate(305.103922 254.818281) scale(0.202 -0.202)">
      <defs>
       <path id="Arial-BoldMT-54" d="M 1497 0
L 1497 3806
L 138 3806
L 138 4581
L 3778 4581
L 3778 3806
L 2422 3806
L 2422 0
L 1497 0
z
" transform="scale(0.015625)"/>
       <path id="Arial-BoldMT-43" d="M 3397 1684
L 4294 1400
Q 4088 650 3608 286
Q 3128 -78 2391 -78
Q 1478 -78 890 545
Q 303 1169 303 2250
Q 303 3394 893 4026
Q 1484 4659 2447 4659
Q 3288 4659 3813 4163
Q 4125 3869 4281 3319
L 3366 3100
Q 3284 3456 3026 3662
Q 2769 3869 2400 3869
Q 1891 3869 1573 3503
Q 1256 3138 1256 2319
Q 1256 1450 1568 1081
Q 1881 713 2381 713
Q 2750 713 3015 947
Q 3281 1181 3397 1684
z
" transform="scale(0.015625)"/>
      </defs>
      <use xlink:href="#Arial-BoldMT-54"/>
      <use xlink:href="#Arial-BoldMT-53" x="61.083984"/>
      <use xlink:href="#Arial-BoldMT-20" x="127.783203"/>
      <use xlink:href="#Arial-BoldMT-43" x="155.566406"/>
     </g>
    </g>
    <g id="line2d_25">
     <path d="M 248.543922 276.293406
L 268.743922 276.293406
L 288.943922 276.293406
" style="fill: none; stroke: #047df6; stroke-width: 2; stroke-linecap: square"/>
    </g>
    <g id="text_19">
     <!-- TS O -->
     <g transform="translate(305.103922 283.363406) scale(0.202 -0.202)">
      <defs>
       <path id="Arial-BoldMT-4f" d="M 278 2263
Q 278 2963 488 3438
Q 644 3788 914 4066
Q 1184 4344 1506 4478
Q 1934 4659 2494 4659
Q 3506 4659 4114 4031
Q 4722 3403 4722 2284
Q 4722 1175 4119 548
Q 3516 -78 2506 -78
Q 1484 -78 881 545
Q 278 1169 278 2263
z
M 1231 2294
Q 1231 1516 1590 1114
Q 1950 713 2503 713
Q 3056 713 3411 1111
Q 3766 1509 3766 2306
Q 3766 3094 3420 3481
Q 3075 3869 2503 3869
Q 1931 3869 1581 3476
Q 1231 3084 1231 2294
z
" transform="scale(0.015625)"/>
      </defs>
      <use xlink:href="#Arial-BoldMT-54"/>
      <use xlink:href="#Arial-BoldMT-53" x="61.083984"/>
      <use xlink:href="#Arial-BoldMT-20" x="127.783203"/>
      <use xlink:href="#Arial-BoldMT-4f" x="155.566406"/>
     </g>
    </g>
    <g id="line2d_26">
     <path d="M 248.543922 304.838531
L 268.743922 304.838531
L 288.943922 304.838531
" style="fill: none; stroke: #ed0345; stroke-width: 2; stroke-linecap: square"/>
    </g>
    <g id="text_20">
     <!-- surf Ce -->
     <g transform="translate(305.103922 311.908531) scale(0.202 -0.202)">
      <use xlink:href="#Arial-BoldMT-73"/>
      <use xlink:href="#Arial-BoldMT-75" x="55.615234"/>
      <use xlink:href="#Arial-BoldMT-72" x="116.699219"/>
      <use xlink:href="#Arial-BoldMT-66" x="155.615234"/>
      <use xlink:href="#Arial-BoldMT-20" x="188.916016"/>
      <use xlink:href="#Arial-BoldMT-43" x="216.699219"/>
      <use xlink:href="#Arial-BoldMT-65" x="288.916016"/>
     </g>
    </g>
    <g id="line2d_27">
     <path d="M 248.543922 333.383656
L 268.743922 333.383656
L 288.943922 333.383656
" style="fill: none; stroke: #ef6932; stroke-width: 2; stroke-linecap: square"/>
    </g>
    <g id="text_21">
     <!-- sub Ce -->
     <g transform="translate(305.103922 340.453656) scale(0.202 -0.202)">
      <defs>
       <path id="Arial-BoldMT-62" d="M 422 0
L 422 4581
L 1300 4581
L 1300 2931
Q 1706 3394 2263 3394
Q 2869 3394 3266 2955
Q 3663 2516 3663 1694
Q 3663 844 3258 384
Q 2853 -75 2275 -75
Q 1991 -75 1714 67
Q 1438 209 1238 488
L 1238 0
L 422 0
z
M 1294 1731
Q 1294 1216 1456 969
Q 1684 619 2063 619
Q 2353 619 2558 867
Q 2763 1116 2763 1650
Q 2763 2219 2556 2470
Q 2350 2722 2028 2722
Q 1713 2722 1503 2476
Q 1294 2231 1294 1731
z
" transform="scale(0.015625)"/>
      </defs>
      <use xlink:href="#Arial-BoldMT-73"/>
      <use xlink:href="#Arial-BoldMT-75" x="55.615234"/>
      <use xlink:href="#Arial-BoldMT-62" x="116.699219"/>
      <use xlink:href="#Arial-BoldMT-20" x="177.783203"/>
      <use xlink:href="#Arial-BoldMT-43" x="205.566406"/>
      <use xlink:href="#Arial-BoldMT-65" x="277.783203"/>
     </g>
    </g>
   </g>
  </g>
 </g>
 <defs>
  <clipPath id="pf68026b27f">
   <rect x="74.84" y="19.44" width="473.56" height="343.18"/>
  </clipPath>
 </defs>
</svg>
