<?xml version="1.0" encoding="utf-8" standalone="no"?>
<!DOCTYPE svg PUBLIC "-//W3C//DTD SVG 1.1//EN"
  "http://www.w3.org/Graphics/SVG/1.1/DTD/svg11.dtd">
<svg xmlns:xlink="http://www.w3.org/1999/xlink" width="1123.2pt" height="288pt" viewBox="0 0 1123.2 288" xmlns="http://www.w3.org/2000/svg" version="1.1">
 <metadata>
  <rdf:RDF xmlns:dc="http://purl.org/dc/elements/1.1/" xmlns:cc="http://creativecommons.org/ns#" xmlns:rdf="http://www.w3.org/1999/02/22-rdf-syntax-ns#">
   <cc:Work>
    <dc:type rdf:resource="http://purl.org/dc/dcmitype/StillImage"/>
    <dc:date>2022-08-04T20:47:15.784718</dc:date>
    <dc:format>image/svg+xml</dc:format>
    <dc:creator>
     <cc:Agent>
      <dc:title>Matplotlib v3.5.2, https://matplotlib.org/</dc:title>
     </cc:Agent>
    </dc:creator>
   </cc:Work>
  </rdf:RDF>
 </metadata>
 <defs>
  <style type="text/css">*{stroke-linejoin: round; stroke-linecap: butt}</style>
 </defs>
 <g id="figure_1">
  <g id="patch_1">
   <path d="M 0 288 
L 1123.2 288 
L 1123.2 0 
L 0 0 
z
" style="fill: #ffffff"/>
  </g>
  <g id="axes_1">
   <g id="patch_2">
    <path d="M 140.4 256.32 
L 1010.88 256.32 
L 1010.88 34.56 
L 140.4 34.56 
z
" style="fill: #ffffff"/>
   </g>
   <g id="matplotlib.axis_1">
    <g id="text_1">
     <!-- Reaction coordinates -->
     <g transform="translate(465.224297 279.776719)scale(0.21 -0.21)">
      <defs>
       <path id="DejaVuSans-52" d="M 2841 2188 
Q 3044 2119 3236 1894 
Q 3428 1669 3622 1275 
L 4263 0 
L 3584 0 
L 2988 1197 
Q 2756 1666 2539 1819 
Q 2322 1972 1947 1972 
L 1259 1972 
L 1259 0 
L 628 0 
L 628 4666 
L 2053 4666 
Q 2853 4666 3247 4331 
Q 3641 3997 3641 3322 
Q 3641 2881 3436 2590 
Q 3231 2300 2841 2188 
z
M 1259 4147 
L 1259 2491 
L 2053 2491 
Q 2509 2491 2742 2702 
Q 2975 2913 2975 3322 
Q 2975 3731 2742 3939 
Q 2509 4147 2053 4147 
L 1259 4147 
z
" transform="scale(0.015625)"/>
       <path id="DejaVuSans-65" d="M 3597 1894 
L 3597 1613 
L 953 1613 
Q 991 1019 1311 708 
Q 1631 397 2203 397 
Q 2534 397 2845 478 
Q 3156 559 3463 722 
L 3463 178 
Q 3153 47 2828 -22 
Q 2503 -91 2169 -91 
Q 1331 -91 842 396 
Q 353 884 353 1716 
Q 353 2575 817 3079 
Q 1281 3584 2069 3584 
Q 2775 3584 3186 3129 
Q 3597 2675 3597 1894 
z
M 3022 2063 
Q 3016 2534 2758 2815 
Q 2500 3097 2075 3097 
Q 1594 3097 1305 2825 
Q 1016 2553 972 2059 
L 3022 2063 
z
" transform="scale(0.015625)"/>
       <path id="DejaVuSans-61" d="M 2194 1759 
Q 1497 1759 1228 1600 
Q 959 1441 959 1056 
Q 959 750 1161 570 
Q 1363 391 1709 391 
Q 2188 391 2477 730 
Q 2766 1069 2766 1631 
L 2766 1759 
L 2194 1759 
z
M 3341 1997 
L 3341 0 
L 2766 0 
L 2766 531 
Q 2569 213 2275 61 
Q 1981 -91 1556 -91 
Q 1019 -91 701 211 
Q 384 513 384 1019 
Q 384 1609 779 1909 
Q 1175 2209 1959 2209 
L 2766 2209 
L 2766 2266 
Q 2766 2663 2505 2880 
Q 2244 3097 1772 3097 
Q 1472 3097 1187 3025 
Q 903 2953 641 2809 
L 641 3341 
Q 956 3463 1253 3523 
Q 1550 3584 1831 3584 
Q 2591 3584 2966 3190 
Q 3341 2797 3341 1997 
z
" transform="scale(0.015625)"/>
       <path id="DejaVuSans-63" d="M 3122 3366 
L 3122 2828 
Q 2878 2963 2633 3030 
Q 2388 3097 2138 3097 
Q 1578 3097 1268 2742 
Q 959 2388 959 1747 
Q 959 1106 1268 751 
Q 1578 397 2138 397 
Q 2388 397 2633 464 
Q 2878 531 3122 666 
L 3122 134 
Q 2881 22 2623 -34 
Q 2366 -91 2075 -91 
Q 1284 -91 818 406 
Q 353 903 353 1747 
Q 353 2603 823 3093 
Q 1294 3584 2113 3584 
Q 2378 3584 2631 3529 
Q 2884 3475 3122 3366 
z
" transform="scale(0.015625)"/>
       <path id="DejaVuSans-74" d="M 1172 4494 
L 1172 3500 
L 2356 3500 
L 2356 3053 
L 1172 3053 
L 1172 1153 
Q 1172 725 1289 603 
Q 1406 481 1766 481 
L 2356 481 
L 2356 0 
L 1766 0 
Q 1100 0 847 248 
Q 594 497 594 1153 
L 594 3053 
L 172 3053 
L 172 3500 
L 594 3500 
L 594 4494 
L 1172 4494 
z
" transform="scale(0.015625)"/>
       <path id="DejaVuSans-69" d="M 603 3500 
L 1178 3500 
L 1178 0 
L 603 0 
L 603 3500 
z
M 603 4863 
L 1178 4863 
L 1178 4134 
L 603 4134 
L 603 4863 
z
" transform="scale(0.015625)"/>
       <path id="DejaVuSans-6f" d="M 1959 3097 
Q 1497 3097 1228 2736 
Q 959 2375 959 1747 
Q 959 1119 1226 758 
Q 1494 397 1959 397 
Q 2419 397 2687 759 
Q 2956 1122 2956 1747 
Q 2956 2369 2687 2733 
Q 2419 3097 1959 3097 
z
M 1959 3584 
Q 2709 3584 3137 3096 
Q 3566 2609 3566 1747 
Q 3566 888 3137 398 
Q 2709 -91 1959 -91 
Q 1206 -91 779 398 
Q 353 888 353 1747 
Q 353 2609 779 3096 
Q 1206 3584 1959 3584 
z
" transform="scale(0.015625)"/>
       <path id="DejaVuSans-6e" d="M 3513 2113 
L 3513 0 
L 2938 0 
L 2938 2094 
Q 2938 2591 2744 2837 
Q 2550 3084 2163 3084 
Q 1697 3084 1428 2787 
Q 1159 2491 1159 1978 
L 1159 0 
L 581 0 
L 581 3500 
L 1159 3500 
L 1159 2956 
Q 1366 3272 1645 3428 
Q 1925 3584 2291 3584 
Q 2894 3584 3203 3211 
Q 3513 2838 3513 2113 
z
" transform="scale(0.015625)"/>
       <path id="DejaVuSans-20" transform="scale(0.015625)"/>
       <path id="DejaVuSans-72" d="M 2631 2963 
Q 2534 3019 2420 3045 
Q 2306 3072 2169 3072 
Q 1681 3072 1420 2755 
Q 1159 2438 1159 1844 
L 1159 0 
L 581 0 
L 581 3500 
L 1159 3500 
L 1159 2956 
Q 1341 3275 1631 3429 
Q 1922 3584 2338 3584 
Q 2397 3584 2469 3576 
Q 2541 3569 2628 3553 
L 2631 2963 
z
" transform="scale(0.015625)"/>
       <path id="DejaVuSans-64" d="M 2906 2969 
L 2906 4863 
L 3481 4863 
L 3481 0 
L 2906 0 
L 2906 525 
Q 2725 213 2448 61 
Q 2172 -91 1784 -91 
Q 1150 -91 751 415 
Q 353 922 353 1747 
Q 353 2572 751 3078 
Q 1150 3584 1784 3584 
Q 2172 3584 2448 3432 
Q 2725 3281 2906 2969 
z
M 947 1747 
Q 947 1113 1208 752 
Q 1469 391 1925 391 
Q 2381 391 2643 752 
Q 2906 1113 2906 1747 
Q 2906 2381 2643 2742 
Q 2381 3103 1925 3103 
Q 1469 3103 1208 2742 
Q 947 2381 947 1747 
z
" transform="scale(0.015625)"/>
       <path id="DejaVuSans-73" d="M 2834 3397 
L 2834 2853 
Q 2591 2978 2328 3040 
Q 2066 3103 1784 3103 
Q 1356 3103 1142 2972 
Q 928 2841 928 2578 
Q 928 2378 1081 2264 
Q 1234 2150 1697 2047 
L 1894 2003 
Q 2506 1872 2764 1633 
Q 3022 1394 3022 966 
Q 3022 478 2636 193 
Q 2250 -91 1575 -91 
Q 1294 -91 989 -36 
Q 684 19 347 128 
L 347 722 
Q 666 556 975 473 
Q 1284 391 1588 391 
Q 1994 391 2212 530 
Q 2431 669 2431 922 
Q 2431 1156 2273 1281 
Q 2116 1406 1581 1522 
L 1381 1569 
Q 847 1681 609 1914 
Q 372 2147 372 2553 
Q 372 3047 722 3315 
Q 1072 3584 1716 3584 
Q 2034 3584 2315 3537 
Q 2597 3491 2834 3397 
z
" transform="scale(0.015625)"/>
      </defs>
      <use xlink:href="#DejaVuSans-52"/>
      <use xlink:href="#DejaVuSans-65" x="64.982422"/>
      <use xlink:href="#DejaVuSans-61" x="126.505859"/>
      <use xlink:href="#DejaVuSans-63" x="187.785156"/>
      <use xlink:href="#DejaVuSans-74" x="242.765625"/>
      <use xlink:href="#DejaVuSans-69" x="281.974609"/>
      <use xlink:href="#DejaVuSans-6f" x="309.757812"/>
      <use xlink:href="#DejaVuSans-6e" x="370.939453"/>
      <use xlink:href="#DejaVuSans-20" x="434.318359"/>
      <use xlink:href="#DejaVuSans-63" x="466.105469"/>
      <use xlink:href="#DejaVuSans-6f" x="521.085938"/>
      <use xlink:href="#DejaVuSans-6f" x="582.267578"/>
      <use xlink:href="#DejaVuSans-72" x="643.449219"/>
      <use xlink:href="#DejaVuSans-64" x="682.8125"/>
      <use xlink:href="#DejaVuSans-69" x="746.289062"/>
      <use xlink:href="#DejaVuSans-6e" x="774.072266"/>
      <use xlink:href="#DejaVuSans-61" x="837.451172"/>
      <use xlink:href="#DejaVuSans-74" x="898.730469"/>
      <use xlink:href="#DejaVuSans-65" x="937.939453"/>
      <use xlink:href="#DejaVuSans-73" x="999.462891"/>
     </g>
    </g>
   </g>
   <g id="matplotlib.axis_2">
    <g id="ytick_1">
     <g id="line2d_1">
      <defs>
       <path id="mb81e81bf81" d="M 0 0 
L -3.5 0 
" style="stroke: #000000; stroke-width: 0.8"/>
      </defs>
      <g>
       <use xlink:href="#mb81e81bf81" x="140.4" y="248.752199" style="stroke: #000000; stroke-width: 0.8"/>
      </g>
     </g>
     <g id="text_2">
      <!-- −2.5 -->
      <g transform="translate(81.2125 256.350636)scale(0.2 -0.2)">
       <defs>
        <path id="DejaVuSans-Bold-2212" d="M 678 2375 
L 4684 2375 
L 4684 1638 
L 678 1638 
L 678 2375 
z
" transform="scale(0.015625)"/>
        <path id="DejaVuSans-Bold-32" d="M 1844 884 
L 3897 884 
L 3897 0 
L 506 0 
L 506 884 
L 2209 2388 
Q 2438 2594 2547 2791 
Q 2656 2988 2656 3200 
Q 2656 3528 2436 3728 
Q 2216 3928 1850 3928 
Q 1569 3928 1234 3808 
Q 900 3688 519 3450 
L 519 4475 
Q 925 4609 1322 4679 
Q 1719 4750 2100 4750 
Q 2938 4750 3402 4381 
Q 3866 4013 3866 3353 
Q 3866 2972 3669 2642 
Q 3472 2313 2841 1759 
L 1844 884 
z
" transform="scale(0.015625)"/>
        <path id="DejaVuSans-Bold-2e" d="M 653 1209 
L 1778 1209 
L 1778 0 
L 653 0 
L 653 1209 
z
" transform="scale(0.015625)"/>
        <path id="DejaVuSans-Bold-35" d="M 678 4666 
L 3669 4666 
L 3669 3781 
L 1638 3781 
L 1638 3059 
Q 1775 3097 1914 3117 
Q 2053 3138 2203 3138 
Q 3056 3138 3531 2711 
Q 4006 2284 4006 1522 
Q 4006 766 3489 337 
Q 2972 -91 2053 -91 
Q 1656 -91 1267 -14 
Q 878 63 494 219 
L 494 1166 
Q 875 947 1217 837 
Q 1559 728 1863 728 
Q 2300 728 2551 942 
Q 2803 1156 2803 1522 
Q 2803 1891 2551 2103 
Q 2300 2316 1863 2316 
Q 1603 2316 1309 2248 
Q 1016 2181 678 2041 
L 678 4666 
z
" transform="scale(0.015625)"/>
       </defs>
       <use xlink:href="#DejaVuSans-Bold-2212"/>
       <use xlink:href="#DejaVuSans-Bold-32" x="83.789062"/>
       <use xlink:href="#DejaVuSans-Bold-2e" x="153.369141"/>
       <use xlink:href="#DejaVuSans-Bold-35" x="191.357422"/>
      </g>
     </g>
    </g>
    <g id="ytick_2">
     <g id="line2d_2">
      <g>
       <use xlink:href="#mb81e81bf81" x="140.4" y="217.349715" style="stroke: #000000; stroke-width: 0.8"/>
      </g>
     </g>
     <g id="text_3">
      <!-- −2.0 -->
      <g transform="translate(81.2125 224.948152)scale(0.2 -0.2)">
       <defs>
        <path id="DejaVuSans-Bold-30" d="M 2944 2338 
Q 2944 3213 2780 3570 
Q 2616 3928 2228 3928 
Q 1841 3928 1675 3570 
Q 1509 3213 1509 2338 
Q 1509 1453 1675 1090 
Q 1841 728 2228 728 
Q 2613 728 2778 1090 
Q 2944 1453 2944 2338 
z
M 4147 2328 
Q 4147 1169 3647 539 
Q 3147 -91 2228 -91 
Q 1306 -91 806 539 
Q 306 1169 306 2328 
Q 306 3491 806 4120 
Q 1306 4750 2228 4750 
Q 3147 4750 3647 4120 
Q 4147 3491 4147 2328 
z
" transform="scale(0.015625)"/>
       </defs>
       <use xlink:href="#DejaVuSans-Bold-2212"/>
       <use xlink:href="#DejaVuSans-Bold-32" x="83.789062"/>
       <use xlink:href="#DejaVuSans-Bold-2e" x="153.369141"/>
       <use xlink:href="#DejaVuSans-Bold-30" x="191.357422"/>
      </g>
     </g>
    </g>
    <g id="ytick_3">
     <g id="line2d_3">
      <g>
       <use xlink:href="#mb81e81bf81" x="140.4" y="185.947231" style="stroke: #000000; stroke-width: 0.8"/>
      </g>
     </g>
     <g id="text_4">
      <!-- −1.5 -->
      <g transform="translate(81.2125 193.545669)scale(0.2 -0.2)">
       <defs>
        <path id="DejaVuSans-Bold-31" d="M 750 831 
L 1813 831 
L 1813 3847 
L 722 3622 
L 722 4441 
L 1806 4666 
L 2950 4666 
L 2950 831 
L 4013 831 
L 4013 0 
L 750 0 
L 750 831 
z
" transform="scale(0.015625)"/>
       </defs>
       <use xlink:href="#DejaVuSans-Bold-2212"/>
       <use xlink:href="#DejaVuSans-Bold-31" x="83.789062"/>
       <use xlink:href="#DejaVuSans-Bold-2e" x="153.369141"/>
       <use xlink:href="#DejaVuSans-Bold-35" x="191.357422"/>
      </g>
     </g>
    </g>
    <g id="ytick_4">
     <g id="line2d_4">
      <g>
       <use xlink:href="#mb81e81bf81" x="140.4" y="154.544747" style="stroke: #000000; stroke-width: 0.8"/>
      </g>
     </g>
     <g id="text_5">
      <!-- −1.0 -->
      <g transform="translate(81.2125 162.143185)scale(0.2 -0.2)">
       <use xlink:href="#DejaVuSans-Bold-2212"/>
       <use xlink:href="#DejaVuSans-Bold-31" x="83.789062"/>
       <use xlink:href="#DejaVuSans-Bold-2e" x="153.369141"/>
       <use xlink:href="#DejaVuSans-Bold-30" x="191.357422"/>
      </g>
     </g>
    </g>
    <g id="ytick_5">
     <g id="line2d_5">
      <g>
       <use xlink:href="#mb81e81bf81" x="140.4" y="123.142264" style="stroke: #000000; stroke-width: 0.8"/>
      </g>
     </g>
     <g id="text_6">
      <!-- −0.5 -->
      <g transform="translate(81.2125 130.740701)scale(0.2 -0.2)">
       <use xlink:href="#DejaVuSans-Bold-2212"/>
       <use xlink:href="#DejaVuSans-Bold-30" x="83.789062"/>
       <use xlink:href="#DejaVuSans-Bold-2e" x="153.369141"/>
       <use xlink:href="#DejaVuSans-Bold-35" x="191.357422"/>
      </g>
     </g>
    </g>
    <g id="ytick_6">
     <g id="line2d_6">
      <g>
       <use xlink:href="#mb81e81bf81" x="140.4" y="91.73978" style="stroke: #000000; stroke-width: 0.8"/>
      </g>
     </g>
     <g id="text_7">
      <!-- 0.0 -->
      <g transform="translate(97.971875 99.338217)scale(0.2 -0.2)">
       <use xlink:href="#DejaVuSans-Bold-30"/>
       <use xlink:href="#DejaVuSans-Bold-2e" x="69.580078"/>
       <use xlink:href="#DejaVuSans-Bold-30" x="107.568359"/>
      </g>
     </g>
    </g>
    <g id="ytick_7">
     <g id="line2d_7">
      <g>
       <use xlink:href="#mb81e81bf81" x="140.4" y="60.337296" style="stroke: #000000; stroke-width: 0.8"/>
      </g>
     </g>
     <g id="text_8">
      <!-- 0.5 -->
      <g transform="translate(97.971875 67.935734)scale(0.2 -0.2)">
       <use xlink:href="#DejaVuSans-Bold-30"/>
       <use xlink:href="#DejaVuSans-Bold-2e" x="69.580078"/>
       <use xlink:href="#DejaVuSans-Bold-35" x="107.568359"/>
      </g>
     </g>
    </g>
    <g id="text_9">
     <!-- Energy (eV) -->
     <g transform="translate(72.845156 207.376875)rotate(-90)scale(0.21 -0.21)">
      <defs>
       <path id="DejaVuSans-45" d="M 628 4666 
L 3578 4666 
L 3578 4134 
L 1259 4134 
L 1259 2753 
L 3481 2753 
L 3481 2222 
L 1259 2222 
L 1259 531 
L 3634 531 
L 3634 0 
L 628 0 
L 628 4666 
z
" transform="scale(0.015625)"/>
       <path id="DejaVuSans-67" d="M 2906 1791 
Q 2906 2416 2648 2759 
Q 2391 3103 1925 3103 
Q 1463 3103 1205 2759 
Q 947 2416 947 1791 
Q 947 1169 1205 825 
Q 1463 481 1925 481 
Q 2391 481 2648 825 
Q 2906 1169 2906 1791 
z
M 3481 434 
Q 3481 -459 3084 -895 
Q 2688 -1331 1869 -1331 
Q 1566 -1331 1297 -1286 
Q 1028 -1241 775 -1147 
L 775 -588 
Q 1028 -725 1275 -790 
Q 1522 -856 1778 -856 
Q 2344 -856 2625 -561 
Q 2906 -266 2906 331 
L 2906 616 
Q 2728 306 2450 153 
Q 2172 0 1784 0 
Q 1141 0 747 490 
Q 353 981 353 1791 
Q 353 2603 747 3093 
Q 1141 3584 1784 3584 
Q 2172 3584 2450 3431 
Q 2728 3278 2906 2969 
L 2906 3500 
L 3481 3500 
L 3481 434 
z
" transform="scale(0.015625)"/>
       <path id="DejaVuSans-79" d="M 2059 -325 
Q 1816 -950 1584 -1140 
Q 1353 -1331 966 -1331 
L 506 -1331 
L 506 -850 
L 844 -850 
Q 1081 -850 1212 -737 
Q 1344 -625 1503 -206 
L 1606 56 
L 191 3500 
L 800 3500 
L 1894 763 
L 2988 3500 
L 3597 3500 
L 2059 -325 
z
" transform="scale(0.015625)"/>
       <path id="DejaVuSans-28" d="M 1984 4856 
Q 1566 4138 1362 3434 
Q 1159 2731 1159 2009 
Q 1159 1288 1364 580 
Q 1569 -128 1984 -844 
L 1484 -844 
Q 1016 -109 783 600 
Q 550 1309 550 2009 
Q 550 2706 781 3412 
Q 1013 4119 1484 4856 
L 1984 4856 
z
" transform="scale(0.015625)"/>
       <path id="DejaVuSans-56" d="M 1831 0 
L 50 4666 
L 709 4666 
L 2188 738 
L 3669 4666 
L 4325 4666 
L 2547 0 
L 1831 0 
z
" transform="scale(0.015625)"/>
       <path id="DejaVuSans-29" d="M 513 4856 
L 1013 4856 
Q 1481 4119 1714 3412 
Q 1947 2706 1947 2009 
Q 1947 1309 1714 600 
Q 1481 -109 1013 -844 
L 513 -844 
Q 928 -128 1133 580 
Q 1338 1288 1338 2009 
Q 1338 2731 1133 3434 
Q 928 4138 513 4856 
z
" transform="scale(0.015625)"/>
      </defs>
      <use xlink:href="#DejaVuSans-45"/>
      <use xlink:href="#DejaVuSans-6e" x="63.183594"/>
      <use xlink:href="#DejaVuSans-65" x="126.5625"/>
      <use xlink:href="#DejaVuSans-72" x="188.085938"/>
      <use xlink:href="#DejaVuSans-67" x="227.449219"/>
      <use xlink:href="#DejaVuSans-79" x="290.925781"/>
      <use xlink:href="#DejaVuSans-20" x="350.105469"/>
      <use xlink:href="#DejaVuSans-28" x="381.892578"/>
      <use xlink:href="#DejaVuSans-65" x="420.90625"/>
      <use xlink:href="#DejaVuSans-56" x="482.429688"/>
      <use xlink:href="#DejaVuSans-29" x="550.837891"/>
     </g>
    </g>
   </g>
   <g id="line2d_8">
    <path d="M 179.967273 91.73978 
L 207.255047 91.73978 
" clip-path="url(#p5d8cce00c2)" style="fill: none; stroke: #000000; stroke-width: 3; stroke-linecap: square"/>
   </g>
   <g id="line2d_9">
    <path d="M 289.11837 97.392227 
L 316.406144 97.392227 
" clip-path="url(#p5d8cce00c2)" style="fill: none; stroke: #000000; stroke-width: 3; stroke-linecap: square"/>
   </g>
   <g id="line2d_10">
    <path d="M 507.420564 87.971482 
L 534.708339 87.971482 
" clip-path="url(#p5d8cce00c2)" style="fill: none; stroke: #000000; stroke-width: 3; stroke-linecap: square"/>
   </g>
   <g id="line2d_11">
    <path d="M 725.722759 246.24 
L 753.010533 246.24 
" clip-path="url(#p5d8cce00c2)" style="fill: none; stroke: #000000; stroke-width: 3; stroke-linecap: square"/>
   </g>
   <g id="line2d_12">
    <path d="M 944.024953 190.971629 
L 971.312727 190.971629 
" clip-path="url(#p5d8cce00c2)" style="fill: none; stroke: #000000; stroke-width: 3; stroke-linecap: square"/>
   </g>
   <g id="line2d_13">
    <path d="M 207.255047 91.73978 
L 289.11837 97.392227 
" clip-path="url(#p5d8cce00c2)" style="fill: none; stroke: #000000; stroke-linecap: square"/>
   </g>
   <g id="line2d_14">
    <path d="M 316.406144 97.392227 
L 318.335583 95.373548 
L 320.265021 93.390475 
L 322.19446 91.44324 
L 324.123899 89.532077 
L 326.053337 87.657217 
L 327.982776 85.818895 
L 329.912214 84.017344 
L 331.841653 82.252795 
L 333.771091 80.525483 
L 335.70053 78.835641 
L 337.629969 77.183501 
L 339.559407 75.569296 
L 341.488846 73.99326 
L 343.418284 72.455626 
L 345.347723 70.956626 
L 347.277162 69.496493 
L 349.2066 68.075461 
L 351.136039 66.693763 
L 353.065477 65.351631 
L 354.994916 64.049299 
L 356.924355 62.786999 
L 358.853793 61.564965 
L 360.783232 60.38343 
L 362.71267 59.242626 
L 364.642109 58.142787 
L 366.571547 57.084146 
L 368.500986 56.066936 
L 370.430425 55.091389 
L 372.359863 54.157739 
L 374.289302 53.266219 
L 376.21874 52.417062 
L 378.148179 51.6105 
L 380.077618 50.846768 
L 382.007056 50.126097 
L 383.936495 49.448721 
L 385.865933 48.814873 
L 387.795372 48.224786 
L 389.72481 47.678693 
L 391.654249 47.176827 
L 393.583688 46.719421 
L 395.513126 46.306708 
L 397.442565 45.93892 
L 399.372003 45.616292 
L 401.301442 45.339056 
L 403.230881 45.107445 
L 405.160319 44.921693 
L 407.089758 44.782031 
L 409.019196 44.688693 
L 410.948635 44.641913 
L 412.878074 44.64 
L 414.807512 44.671654 
L 416.736951 44.735184 
L 418.666389 44.830825 
L 420.595828 44.958809 
L 422.525266 45.119368 
L 424.454705 45.312737 
L 426.384144 45.539148 
L 428.313582 45.798833 
L 430.243021 46.092027 
L 432.172459 46.418962 
L 434.101898 46.779872 
L 436.031337 47.174988 
L 437.960775 47.604544 
L 439.890214 48.068774 
L 441.819652 48.56791 
L 443.749091 49.102185 
L 445.678529 49.671833 
L 447.607968 50.277085 
L 449.537407 50.918176 
L 451.466845 51.595339 
L 453.396284 52.308805 
L 455.325722 53.058809 
L 457.255161 53.845583 
L 459.1846 54.669361 
L 461.114038 55.530375 
L 463.043477 56.428859 
L 464.972915 57.365045 
L 466.902354 58.339166 
L 468.831793 59.351456 
L 470.761231 60.402147 
L 472.69067 61.491473 
L 474.620108 62.619666 
L 476.549547 63.78696 
L 478.478985 64.993588 
L 480.408424 66.239782 
L 482.337863 67.525776 
L 484.267301 68.851802 
L 486.19674 70.218094 
L 488.126178 71.624885 
L 490.055617 73.072407 
L 491.985056 74.560894 
L 493.914494 76.090579 
L 495.843933 77.661694 
L 497.773371 79.274474 
L 499.70281 80.92915 
L 501.632249 82.625955 
L 503.561687 84.365124 
L 505.491126 86.146889 
L 507.420564 87.971482 
" clip-path="url(#p5d8cce00c2)" style="fill: none; stroke: #000000; stroke-width: 2; stroke-linecap: square"/>
   </g>
   <g id="line2d_15">
    <path d="M 534.708339 87.971482 
L 536.637777 87.225485 
L 538.567216 86.509626 
L 540.496654 85.823282 
L 542.426093 85.165832 
L 544.355531 84.536656 
L 546.28497 83.935131 
L 548.214409 83.360636 
L 550.143847 82.81255 
L 552.073286 82.290251 
L 554.002724 81.793118 
L 555.932163 81.320531 
L 557.861602 80.871866 
L 559.79104 80.446503 
L 561.720479 80.043821 
L 563.649917 79.663197 
L 565.579356 79.304012 
L 567.508795 78.965643 
L 569.438233 78.647469 
L 571.367672 78.348868 
L 573.29711 78.06922 
L 575.226549 77.807902 
L 577.155987 77.564294 
L 579.085426 77.337774 
L 581.014865 77.12772 
L 582.944303 76.933512 
L 584.873742 76.754528 
L 586.80318 76.590146 
L 588.732619 76.439745 
L 590.662058 76.302704 
L 592.591496 76.178402 
L 594.520935 76.066216 
L 596.450373 75.965526 
L 598.379812 75.87571 
L 600.30925 75.796147 
L 602.238689 75.726216 
L 604.168128 75.665294 
L 606.097566 75.612762 
L 608.027005 75.567996 
L 609.956443 75.530376 
L 611.885882 75.499281 
L 613.815321 75.474089 
L 615.744759 75.454179 
L 617.674198 75.43893 
L 619.603636 75.427719 
L 621.533075 75.419926 
L 623.462514 75.414929 
L 625.391952 75.412106 
L 627.321391 75.410838 
L 629.250829 75.410501 
L 631.180268 75.435911 
L 633.109706 75.637821 
L 635.039145 76.037891 
L 636.968584 76.632206 
L 638.898022 77.41685 
L 640.827461 78.387909 
L 642.756899 79.541468 
L 644.686338 80.873613 
L 646.615777 82.380429 
L 648.545215 84.058001 
L 650.474654 85.902415 
L 652.404092 87.909755 
L 654.333531 90.076107 
L 656.26297 92.397557 
L 658.192408 94.870189 
L 660.121847 97.490089 
L 662.051285 100.253342 
L 663.980724 103.156034 
L 665.910162 106.194249 
L 667.839601 109.364073 
L 669.76904 112.661592 
L 671.698478 116.08289 
L 673.627917 119.624053 
L 675.557355 123.281166 
L 677.486794 127.050315 
L 679.416233 130.927584 
L 681.345671 134.909059 
L 683.27511 138.990826 
L 685.204548 143.168969 
L 687.133987 147.439574 
L 689.063425 151.798726 
L 690.992864 156.242511 
L 692.922303 160.767013 
L 694.851741 165.368318 
L 696.78118 170.042511 
L 698.710618 174.785679 
L 700.640057 179.593904 
L 702.569496 184.463274 
L 704.498934 189.389874 
L 706.428373 194.369788 
L 708.357811 199.399102 
L 710.28725 204.473901 
L 712.216689 209.590271 
L 714.146127 214.744297 
L 716.075566 219.932064 
L 718.005004 225.149657 
L 719.934443 230.393162 
L 721.863881 235.658664 
L 723.79332 240.942248 
L 725.722759 246.24 
" clip-path="url(#p5d8cce00c2)" style="fill: none; stroke: #000000; stroke-width: 2; stroke-linecap: square"/>
   </g>
   <g id="line2d_16">
    <path d="M 753.010533 246.24 
L 754.939972 243.158741 
L 756.86941 240.107557 
L 758.798849 237.087815 
L 760.728287 234.100882 
L 762.657726 231.148125 
L 764.587164 228.230911 
L 766.516603 225.350607 
L 768.446042 222.508581 
L 770.37548 219.706199 
L 772.304919 216.944828 
L 774.234357 214.225835 
L 776.163796 211.550588 
L 778.093235 208.920454 
L 780.022673 206.336798 
L 781.952112 203.80099 
L 783.88155 201.314395 
L 785.810989 198.87838 
L 787.740427 196.494313 
L 789.669866 194.163561 
L 791.599305 191.887491 
L 793.528743 189.667469 
L 795.458182 187.504863 
L 797.38762 185.40104 
L 799.317059 183.357367 
L 801.246498 181.375211 
L 803.175936 179.455939 
L 805.105375 177.600918 
L 807.034813 175.811515 
L 808.964252 174.089097 
L 810.893691 172.435032 
L 812.823129 170.850685 
L 814.752568 169.337425 
L 816.682006 167.896618 
L 818.611445 166.529632 
L 820.540883 165.237833 
L 822.470322 164.022588 
L 824.399761 162.885265 
L 826.329199 161.82723 
L 828.258638 160.849851 
L 830.188076 159.954494 
L 832.117515 159.142528 
L 834.046954 158.415317 
L 835.976392 157.774231 
L 837.905831 157.220635 
L 839.835269 156.755897 
L 841.764708 156.381385 
L 843.694146 156.098464 
L 845.623585 155.908501 
L 847.553024 155.812865 
L 849.482462 155.801644 
L 851.411901 155.808536 
L 853.341339 155.823631 
L 855.270778 155.848295 
L 857.200217 155.883895 
L 859.129655 155.931798 
L 861.059094 155.993372 
L 862.988532 156.069983 
L 864.917971 156.162999 
L 866.84741 156.273787 
L 868.776848 156.403713 
L 870.706287 156.554145 
L 872.635725 156.726449 
L 874.565164 156.921993 
L 876.494602 157.142144 
L 878.424041 157.388269 
L 880.35348 157.661735 
L 882.282918 157.963908 
L 884.212357 158.296157 
L 886.141795 158.659847 
L 888.071234 159.056347 
L 890.000673 159.487023 
L 891.930111 159.953241 
L 893.85955 160.45637 
L 895.788988 160.997776 
L 897.718427 161.578827 
L 899.647865 162.200889 
L 901.577304 162.865329 
L 903.506743 163.573514 
L 905.436181 164.326812 
L 907.36562 165.126589 
L 909.295058 165.974213 
L 911.224497 166.871051 
L 913.153936 167.818469 
L 915.083374 168.817835 
L 917.012813 169.870515 
L 918.942251 170.977877 
L 920.87169 172.141288 
L 922.801129 173.362115 
L 924.730567 174.641725 
L 926.660006 175.981484 
L 928.589444 177.382761 
L 930.518883 178.846921 
L 932.448321 180.375333 
L 934.37776 181.969363 
L 936.307199 183.630377 
L 938.236637 185.359744 
L 940.166076 187.15883 
L 942.095514 189.029003 
L 944.024953 190.971629 
" clip-path="url(#p5d8cce00c2)" style="fill: none; stroke: #000000; stroke-width: 2; stroke-linecap: square"/>
   </g>
   <g id="patch_3">
    <path d="M 140.4 256.32 
L 140.4 34.56 
" style="fill: none; stroke: #000000; stroke-width: 3; stroke-linejoin: miter; stroke-linecap: square"/>
   </g>
   <g id="patch_4">
    <path d="M 1010.88 256.32 
L 1010.88 34.56 
" style="fill: none; stroke: #000000; stroke-width: 3; stroke-linejoin: miter; stroke-linecap: square"/>
   </g>
   <g id="patch_5">
    <path d="M 140.4 256.32 
L 1010.88 256.32 
" style="fill: none; stroke: #000000; stroke-width: 3; stroke-linejoin: miter; stroke-linecap: square"/>
   </g>
   <g id="patch_6">
    <path d="M 140.4 34.56 
L 1010.88 34.56 
" style="fill: none; stroke: #000000; stroke-width: 3; stroke-linejoin: miter; stroke-linecap: square"/>
   </g>
  </g>
 </g>
 <defs>
  <clipPath id="p5d8cce00c2">
   <rect x="140.4" y="34.56" width="870.48" height="221.76"/>
  </clipPath>
 </defs>
</svg>
