<?xml version="1.0" encoding="utf-8" standalone="no"?>
<!DOCTYPE svg PUBLIC "-//W3C//DTD SVG 1.1//EN"
  "http://www.w3.org/Graphics/SVG/1.1/DTD/svg11.dtd">
<svg xmlns:xlink="http://www.w3.org/1999/xlink" width="864pt" height="432pt" viewBox="0 0 864 432" xmlns="http://www.w3.org/2000/svg" version="1.1">
 <metadata>
  <rdf:RDF xmlns:dc="http://purl.org/dc/elements/1.1/" xmlns:cc="http://creativecommons.org/ns#" xmlns:rdf="http://www.w3.org/1999/02/22-rdf-syntax-ns#">
   <cc:Work>
    <dc:type rdf:resource="http://purl.org/dc/dcmitype/StillImage"/>
    <dc:date>2023-02-05T13:29:04.844611</dc:date>
    <dc:format>image/svg+xml</dc:format>
    <dc:creator>
     <cc:Agent>
      <dc:title>Matplotlib v3.6.2, https://matplotlib.org/</dc:title>
     </cc:Agent>
    </dc:creator>
   </cc:Work>
  </rdf:RDF>
 </metadata>
 <defs>
  <style type="text/css">*{stroke-linejoin: round; stroke-linecap: butt}</style>
 </defs>
 <g id="figure_1">
  <g id="patch_1">
   <path d="M 0 432
L 864 432
L 864 0
L 0 0
z
" style="fill: #ffffff"/>
  </g>
  <g id="axes_1">
   <g id="patch_2">
    <path d="M 66.02 371.26
L 853.2 371.26
L 853.2 10.8
L 66.02 10.8
z
" style="fill: #ffffff"/>
   </g>
   <g id="matplotlib.axis_1">
    <g id="xtick_1">
     <g id="line2d_1">
      <defs>
       <path id="mb3ad25bfb5" d="M 0 0
L 0 5
" style="stroke: #000000; stroke-width: 2"/>
      </defs>
      <g>
       <use xlink:href="#mb3ad25bfb5" x="143.286021" y="371.26" style="stroke: #000000; stroke-width: 2"/>
      </g>
     </g>
     <g id="text_1">
      <!-- IS -->
      <g transform="translate(133.837584 394.075625) scale(0.2 -0.2)">
       <defs>
        <path id="Arial-BoldMT-49" d="M 438 0
L 438 4581
L 1363 4581
L 1363 0
L 438 0
z
" transform="scale(0.015625)"/>
        <path id="Arial-BoldMT-53" d="M 231 1491
L 1131 1578
Q 1213 1125 1461 912
Q 1709 700 2131 700
Q 2578 700 2804 889
Q 3031 1078 3031 1331
Q 3031 1494 2936 1608
Q 2841 1722 2603 1806
Q 2441 1863 1863 2006
Q 1119 2191 819 2459
Q 397 2838 397 3381
Q 397 3731 595 4036
Q 794 4341 1167 4500
Q 1541 4659 2069 4659
Q 2931 4659 3367 4281
Q 3803 3903 3825 3272
L 2900 3231
Q 2841 3584 2645 3739
Q 2450 3894 2059 3894
Q 1656 3894 1428 3728
Q 1281 3622 1281 3444
Q 1281 3281 1419 3166
Q 1594 3019 2269 2859
Q 2944 2700 3267 2529
Q 3591 2359 3773 2064
Q 3956 1769 3956 1334
Q 3956 941 3737 597
Q 3519 253 3119 86
Q 2719 -81 2122 -81
Q 1253 -81 787 320
Q 322 722 231 1491
z
" transform="scale(0.015625)"/>
       </defs>
       <use xlink:href="#Arial-BoldMT-49"/>
       <use xlink:href="#Arial-BoldMT-53" x="27.783203"/>
      </g>
     </g>
    </g>
    <g id="xtick_2">
     <g id="line2d_2">
      <g>
       <use xlink:href="#mb3ad25bfb5" x="226.256245" y="371.26" style="stroke: #000000; stroke-width: 2"/>
      </g>
     </g>
     <g id="text_2">
      <!-- S1 -->
      <g transform="translate(214.024995 394.075625) scale(0.2 -0.2)">
       <defs>
        <path id="Arial-BoldMT-31" d="M 2519 0
L 1641 0
L 1641 3309
Q 1159 2859 506 2644
L 506 3441
Q 850 3553 1253 3867
Q 1656 4181 1806 4600
L 2519 4600
L 2519 0
z
" transform="scale(0.015625)"/>
       </defs>
       <use xlink:href="#Arial-BoldMT-53"/>
       <use xlink:href="#Arial-BoldMT-31" x="66.699219"/>
      </g>
     </g>
    </g>
    <g id="xtick_3">
     <g id="line2d_3">
      <g>
       <use xlink:href="#mb3ad25bfb5" x="309.226469" y="371.26" style="stroke: #000000; stroke-width: 2"/>
      </g>
     </g>
     <g id="text_3">
      <!-- TS1 -->
      <g transform="translate(290.887407 394.075625) scale(0.2 -0.2)">
       <defs>
        <path id="Arial-BoldMT-54" d="M 1497 0
L 1497 3806
L 138 3806
L 138 4581
L 3778 4581
L 3778 3806
L 2422 3806
L 2422 0
L 1497 0
z
" transform="scale(0.015625)"/>
       </defs>
       <use xlink:href="#Arial-BoldMT-54"/>
       <use xlink:href="#Arial-BoldMT-53" x="61.083984"/>
       <use xlink:href="#Arial-BoldMT-31" x="127.783203"/>
      </g>
     </g>
    </g>
    <g id="xtick_4">
     <g id="line2d_4">
      <g>
       <use xlink:href="#mb3ad25bfb5" x="392.196693" y="371.26" style="stroke: #000000; stroke-width: 2"/>
      </g>
     </g>
     <g id="text_4">
      <!-- FS1 -->
      <g transform="translate(373.857631 394.075625) scale(0.2 -0.2)">
       <defs>
        <path id="Arial-BoldMT-46" d="M 472 0
L 472 4581
L 3613 4581
L 3613 3806
L 1397 3806
L 1397 2722
L 3309 2722
L 3309 1947
L 1397 1947
L 1397 0
L 472 0
z
" transform="scale(0.015625)"/>
       </defs>
       <use xlink:href="#Arial-BoldMT-46"/>
       <use xlink:href="#Arial-BoldMT-53" x="61.083984"/>
       <use xlink:href="#Arial-BoldMT-31" x="127.783203"/>
      </g>
     </g>
    </g>
    <g id="xtick_5">
     <g id="line2d_5">
      <g>
       <use xlink:href="#mb3ad25bfb5" x="475.166917" y="371.26" style="stroke: #000000; stroke-width: 2"/>
      </g>
     </g>
     <g id="text_5">
      <!-- Ov -->
      <g transform="translate(461.827854 394.075625) scale(0.2 -0.2)">
       <defs>
        <path id="Arial-BoldMT-4f" d="M 278 2263
Q 278 2963 488 3438
Q 644 3788 914 4066
Q 1184 4344 1506 4478
Q 1934 4659 2494 4659
Q 3506 4659 4114 4031
Q 4722 3403 4722 2284
Q 4722 1175 4119 548
Q 3516 -78 2506 -78
Q 1484 -78 881 545
Q 278 1169 278 2263
z
M 1231 2294
Q 1231 1516 1590 1114
Q 1950 713 2503 713
Q 3056 713 3411 1111
Q 3766 1509 3766 2306
Q 3766 3094 3420 3481
Q 3075 3869 2503 3869
Q 1931 3869 1581 3476
Q 1231 3084 1231 2294
z
" transform="scale(0.015625)"/>
        <path id="Arial-BoldMT-76" d="M 1372 0
L 34 3319
L 956 3319
L 1581 1625
L 1763 1059
Q 1834 1275 1853 1344
Q 1897 1484 1947 1625
L 2578 3319
L 3481 3319
L 2163 0
L 1372 0
z
" transform="scale(0.015625)"/>
       </defs>
       <use xlink:href="#Arial-BoldMT-4f"/>
       <use xlink:href="#Arial-BoldMT-76" x="77.783203"/>
      </g>
     </g>
    </g>
    <g id="xtick_6">
     <g id="line2d_6">
      <g>
       <use xlink:href="#mb3ad25bfb5" x="558.137141" y="371.26" style="stroke: #000000; stroke-width: 2"/>
      </g>
     </g>
     <g id="text_6">
      <!-- S2 -->
      <g transform="translate(545.905891 394.075625) scale(0.2 -0.2)">
       <defs>
        <path id="Arial-BoldMT-32" d="M 3238 816
L 3238 0
L 159 0
Q 209 463 459 877
Q 709 1291 1447 1975
Q 2041 2528 2175 2725
Q 2356 2997 2356 3263
Q 2356 3556 2198 3714
Q 2041 3872 1763 3872
Q 1488 3872 1325 3706
Q 1163 3541 1138 3156
L 263 3244
Q 341 3969 753 4284
Q 1166 4600 1784 4600
Q 2463 4600 2850 4234
Q 3238 3869 3238 3325
Q 3238 3016 3127 2736
Q 3016 2456 2775 2150
Q 2616 1947 2200 1565
Q 1784 1184 1673 1059
Q 1563 934 1494 816
L 3238 816
z
" transform="scale(0.015625)"/>
       </defs>
       <use xlink:href="#Arial-BoldMT-53"/>
       <use xlink:href="#Arial-BoldMT-32" x="66.699219"/>
      </g>
     </g>
    </g>
    <g id="xtick_7">
     <g id="line2d_7">
      <g>
       <use xlink:href="#mb3ad25bfb5" x="641.107365" y="371.26" style="stroke: #000000; stroke-width: 2"/>
      </g>
     </g>
     <g id="text_7">
      <!-- S3 -->
      <g transform="translate(628.876115 394.075625) scale(0.2 -0.2)">
       <defs>
        <path id="Arial-BoldMT-33" d="M 241 1216
L 1091 1319
Q 1131 994 1309 822
Q 1488 650 1741 650
Q 2013 650 2198 856
Q 2384 1063 2384 1413
Q 2384 1744 2206 1937
Q 2028 2131 1772 2131
Q 1603 2131 1369 2066
L 1466 2781
Q 1822 2772 2009 2936
Q 2197 3100 2197 3372
Q 2197 3603 2059 3740
Q 1922 3878 1694 3878
Q 1469 3878 1309 3722
Q 1150 3566 1116 3266
L 306 3403
Q 391 3819 561 4067
Q 731 4316 1036 4458
Q 1341 4600 1719 4600
Q 2366 4600 2756 4188
Q 3078 3850 3078 3425
Q 3078 2822 2419 2463
Q 2813 2378 3048 2084
Q 3284 1791 3284 1375
Q 3284 772 2843 347
Q 2403 -78 1747 -78
Q 1125 -78 715 280
Q 306 638 241 1216
z
" transform="scale(0.015625)"/>
       </defs>
       <use xlink:href="#Arial-BoldMT-53"/>
       <use xlink:href="#Arial-BoldMT-33" x="66.699219"/>
      </g>
     </g>
    </g>
    <g id="xtick_8">
     <g id="line2d_8">
      <g>
       <use xlink:href="#mb3ad25bfb5" x="724.077589" y="371.26" style="stroke: #000000; stroke-width: 2"/>
      </g>
     </g>
     <g id="text_8">
      <!-- TS2 -->
      <g transform="translate(705.738526 394.075625) scale(0.2 -0.2)">
       <use xlink:href="#Arial-BoldMT-54"/>
       <use xlink:href="#Arial-BoldMT-53" x="61.083984"/>
       <use xlink:href="#Arial-BoldMT-32" x="127.783203"/>
      </g>
     </g>
    </g>
    <g id="xtick_9">
     <g id="line2d_9">
      <g>
       <use xlink:href="#mb3ad25bfb5" x="807.047813" y="371.26" style="stroke: #000000; stroke-width: 2"/>
      </g>
     </g>
     <g id="text_9">
      <!-- FS2 -->
      <g transform="translate(788.70875 394.075625) scale(0.2 -0.2)">
       <use xlink:href="#Arial-BoldMT-46"/>
       <use xlink:href="#Arial-BoldMT-53" x="61.083984"/>
       <use xlink:href="#Arial-BoldMT-32" x="127.783203"/>
      </g>
     </g>
    </g>
    <g id="text_10">
     <!-- Reaction coordinate -->
     <g transform="translate(358.683672 417.053906) scale(0.21 -0.21)">
      <defs>
       <path id="Arial-BoldMT-52" d="M 469 0
L 469 4581
L 2416 4581
Q 3150 4581 3483 4457
Q 3816 4334 4016 4018
Q 4216 3703 4216 3297
Q 4216 2781 3912 2445
Q 3609 2109 3006 2022
Q 3306 1847 3501 1637
Q 3697 1428 4028 894
L 4588 0
L 3481 0
L 2813 997
Q 2456 1531 2325 1670
Q 2194 1809 2047 1861
Q 1900 1913 1581 1913
L 1394 1913
L 1394 0
L 469 0
z
M 1394 2644
L 2078 2644
Q 2744 2644 2909 2700
Q 3075 2756 3169 2893
Q 3263 3031 3263 3238
Q 3263 3469 3139 3611
Q 3016 3753 2791 3791
Q 2678 3806 2116 3806
L 1394 3806
L 1394 2644
z
" transform="scale(0.015625)"/>
       <path id="Arial-BoldMT-65" d="M 2381 1056
L 3256 909
Q 3088 428 2723 176
Q 2359 -75 1813 -75
Q 947 -75 531 491
Q 203 944 203 1634
Q 203 2459 634 2926
Q 1066 3394 1725 3394
Q 2466 3394 2894 2905
Q 3322 2416 3303 1406
L 1103 1406
Q 1113 1016 1316 798
Q 1519 581 1822 581
Q 2028 581 2168 693
Q 2309 806 2381 1056
z
M 2431 1944
Q 2422 2325 2234 2523
Q 2047 2722 1778 2722
Q 1491 2722 1303 2513
Q 1116 2303 1119 1944
L 2431 1944
z
" transform="scale(0.015625)"/>
       <path id="Arial-BoldMT-61" d="M 1116 2306
L 319 2450
Q 453 2931 781 3162
Q 1109 3394 1756 3394
Q 2344 3394 2631 3255
Q 2919 3116 3036 2902
Q 3153 2688 3153 2116
L 3144 1091
Q 3144 653 3186 445
Q 3228 238 3344 0
L 2475 0
Q 2441 88 2391 259
Q 2369 338 2359 363
Q 2134 144 1878 34
Q 1622 -75 1331 -75
Q 819 -75 523 203
Q 228 481 228 906
Q 228 1188 362 1408
Q 497 1628 739 1745
Q 981 1863 1438 1950
Q 2053 2066 2291 2166
L 2291 2253
Q 2291 2506 2166 2614
Q 2041 2722 1694 2722
Q 1459 2722 1328 2630
Q 1197 2538 1116 2306
z
M 2291 1594
Q 2122 1538 1756 1459
Q 1391 1381 1278 1306
Q 1106 1184 1106 997
Q 1106 813 1243 678
Q 1381 544 1594 544
Q 1831 544 2047 700
Q 2206 819 2256 991
Q 2291 1103 2291 1419
L 2291 1594
z
" transform="scale(0.015625)"/>
       <path id="Arial-BoldMT-63" d="M 3353 2338
L 2488 2181
Q 2444 2441 2289 2572
Q 2134 2703 1888 2703
Q 1559 2703 1364 2476
Q 1169 2250 1169 1719
Q 1169 1128 1367 884
Q 1566 641 1900 641
Q 2150 641 2309 783
Q 2469 925 2534 1272
L 3397 1125
Q 3263 531 2881 228
Q 2500 -75 1859 -75
Q 1131 -75 698 384
Q 266 844 266 1656
Q 266 2478 700 2936
Q 1134 3394 1875 3394
Q 2481 3394 2839 3133
Q 3197 2872 3353 2338
z
" transform="scale(0.015625)"/>
       <path id="Arial-BoldMT-74" d="M 1981 3319
L 1981 2619
L 1381 2619
L 1381 1281
Q 1381 875 1398 808
Q 1416 741 1477 697
Q 1538 653 1625 653
Q 1747 653 1978 738
L 2053 56
Q 1747 -75 1359 -75
Q 1122 -75 931 4
Q 741 84 652 211
Q 563 338 528 553
Q 500 706 500 1172
L 500 2619
L 97 2619
L 97 3319
L 500 3319
L 500 3978
L 1381 4491
L 1381 3319
L 1981 3319
z
" transform="scale(0.015625)"/>
       <path id="Arial-BoldMT-69" d="M 459 3769
L 459 4581
L 1338 4581
L 1338 3769
L 459 3769
z
M 459 0
L 459 3319
L 1338 3319
L 1338 0
L 459 0
z
" transform="scale(0.015625)"/>
       <path id="Arial-BoldMT-6f" d="M 256 1706
Q 256 2144 472 2553
Q 688 2963 1083 3178
Q 1478 3394 1966 3394
Q 2719 3394 3200 2905
Q 3681 2416 3681 1669
Q 3681 916 3195 420
Q 2709 -75 1972 -75
Q 1516 -75 1102 131
Q 688 338 472 736
Q 256 1134 256 1706
z
M 1156 1659
Q 1156 1166 1390 903
Q 1625 641 1969 641
Q 2313 641 2545 903
Q 2778 1166 2778 1666
Q 2778 2153 2545 2415
Q 2313 2678 1969 2678
Q 1625 2678 1390 2415
Q 1156 2153 1156 1659
z
" transform="scale(0.015625)"/>
       <path id="Arial-BoldMT-6e" d="M 3478 0
L 2600 0
L 2600 1694
Q 2600 2231 2544 2389
Q 2488 2547 2361 2634
Q 2234 2722 2056 2722
Q 1828 2722 1647 2597
Q 1466 2472 1398 2265
Q 1331 2059 1331 1503
L 1331 0
L 453 0
L 453 3319
L 1269 3319
L 1269 2831
Q 1703 3394 2363 3394
Q 2653 3394 2893 3289
Q 3134 3184 3257 3021
Q 3381 2859 3429 2653
Q 3478 2447 3478 2063
L 3478 0
z
" transform="scale(0.015625)"/>
       <path id="Arial-BoldMT-20" transform="scale(0.015625)"/>
       <path id="Arial-BoldMT-72" d="M 1300 0
L 422 0
L 422 3319
L 1238 3319
L 1238 2847
Q 1447 3181 1614 3287
Q 1781 3394 1994 3394
Q 2294 3394 2572 3228
L 2300 2463
Q 2078 2606 1888 2606
Q 1703 2606 1575 2504
Q 1447 2403 1373 2137
Q 1300 1872 1300 1025
L 1300 0
z
" transform="scale(0.015625)"/>
       <path id="Arial-BoldMT-64" d="M 3503 0
L 2688 0
L 2688 488
Q 2484 203 2207 64
Q 1931 -75 1650 -75
Q 1078 -75 670 386
Q 263 847 263 1672
Q 263 2516 659 2955
Q 1056 3394 1663 3394
Q 2219 3394 2625 2931
L 2625 4581
L 3503 4581
L 3503 0
z
M 1159 1731
Q 1159 1200 1306 963
Q 1519 619 1900 619
Q 2203 619 2415 876
Q 2628 1134 2628 1647
Q 2628 2219 2422 2470
Q 2216 2722 1894 2722
Q 1581 2722 1370 2473
Q 1159 2225 1159 1731
z
" transform="scale(0.015625)"/>
      </defs>
      <use xlink:href="#Arial-BoldMT-52"/>
      <use xlink:href="#Arial-BoldMT-65" x="72.216797"/>
      <use xlink:href="#Arial-BoldMT-61" x="127.832031"/>
      <use xlink:href="#Arial-BoldMT-63" x="183.447266"/>
      <use xlink:href="#Arial-BoldMT-74" x="239.0625"/>
      <use xlink:href="#Arial-BoldMT-69" x="272.363281"/>
      <use xlink:href="#Arial-BoldMT-6f" x="300.146484"/>
      <use xlink:href="#Arial-BoldMT-6e" x="361.230469"/>
      <use xlink:href="#Arial-BoldMT-20" x="422.314453"/>
      <use xlink:href="#Arial-BoldMT-63" x="450.097656"/>
      <use xlink:href="#Arial-BoldMT-6f" x="505.712891"/>
      <use xlink:href="#Arial-BoldMT-6f" x="566.796875"/>
      <use xlink:href="#Arial-BoldMT-72" x="627.880859"/>
      <use xlink:href="#Arial-BoldMT-64" x="666.796875"/>
      <use xlink:href="#Arial-BoldMT-69" x="727.880859"/>
      <use xlink:href="#Arial-BoldMT-6e" x="755.664062"/>
      <use xlink:href="#Arial-BoldMT-61" x="816.748047"/>
      <use xlink:href="#Arial-BoldMT-74" x="872.363281"/>
      <use xlink:href="#Arial-BoldMT-65" x="905.664062"/>
     </g>
    </g>
   </g>
   <g id="matplotlib.axis_2">
    <g id="ytick_1">
     <g id="line2d_10">
      <defs>
       <path id="mf3505b143c" d="M 0 0
L -5 0
" style="stroke: #000000; stroke-width: 2"/>
      </defs>
      <g>
       <use xlink:href="#mf3505b143c" x="66.02" y="365.967954" style="stroke: #000000; stroke-width: 2"/>
      </g>
     </g>
     <g id="text_11">
      <!-- −7 -->
      <g transform="translate(34.716875 373.125766) scale(0.2 -0.2)">
       <defs>
        <path id="Arial-BoldMT-2212" d="M 266 1850
L 266 2672
L 3469 2672
L 3469 1850
L 266 1850
z
" transform="scale(0.015625)"/>
        <path id="Arial-BoldMT-37" d="M 272 3703
L 272 4519
L 3275 4519
L 3275 3881
Q 2903 3516 2518 2831
Q 2134 2147 1932 1376
Q 1731 606 1734 0
L 888 0
Q 909 950 1279 1937
Q 1650 2925 2269 3703
L 272 3703
z
" transform="scale(0.015625)"/>
       </defs>
       <use xlink:href="#Arial-BoldMT-2212"/>
       <use xlink:href="#Arial-BoldMT-37" x="58.398438"/>
      </g>
     </g>
    </g>
    <g id="ytick_2">
     <g id="line2d_11">
      <g>
       <use xlink:href="#mf3505b143c" x="66.02" y="319.749208" style="stroke: #000000; stroke-width: 2"/>
      </g>
     </g>
     <g id="text_12">
      <!-- −6 -->
      <g transform="translate(34.716875 326.90702) scale(0.2 -0.2)">
       <defs>
        <path id="Arial-BoldMT-36" d="M 3247 3459
L 2397 3366
Q 2366 3628 2234 3753
Q 2103 3878 1894 3878
Q 1616 3878 1423 3628
Q 1231 3378 1181 2588
Q 1509 2975 1997 2975
Q 2547 2975 2939 2556
Q 3331 2138 3331 1475
Q 3331 772 2918 347
Q 2506 -78 1859 -78
Q 1166 -78 719 461
Q 272 1000 272 2228
Q 272 3488 737 4044
Q 1203 4600 1947 4600
Q 2469 4600 2811 4308
Q 3153 4016 3247 3459
z
M 1256 1544
Q 1256 1116 1453 883
Q 1650 650 1903 650
Q 2147 650 2309 840
Q 2472 1031 2472 1466
Q 2472 1913 2297 2120
Q 2122 2328 1859 2328
Q 1606 2328 1431 2129
Q 1256 1931 1256 1544
z
" transform="scale(0.015625)"/>
       </defs>
       <use xlink:href="#Arial-BoldMT-2212"/>
       <use xlink:href="#Arial-BoldMT-36" x="58.398438"/>
      </g>
     </g>
    </g>
    <g id="ytick_3">
     <g id="line2d_12">
      <g>
       <use xlink:href="#mf3505b143c" x="66.02" y="273.530462" style="stroke: #000000; stroke-width: 2"/>
      </g>
     </g>
     <g id="text_13">
      <!-- −5 -->
      <g transform="translate(34.716875 280.688274) scale(0.2 -0.2)">
       <defs>
        <path id="Arial-BoldMT-35" d="M 284 1178
L 1159 1269
Q 1197 972 1381 798
Q 1566 625 1806 625
Q 2081 625 2272 848
Q 2463 1072 2463 1522
Q 2463 1944 2273 2155
Q 2084 2366 1781 2366
Q 1403 2366 1103 2031
L 391 2134
L 841 4519
L 3163 4519
L 3163 3697
L 1506 3697
L 1369 2919
Q 1663 3066 1969 3066
Q 2553 3066 2959 2641
Q 3366 2216 3366 1538
Q 3366 972 3038 528
Q 2591 -78 1797 -78
Q 1163 -78 763 262
Q 363 603 284 1178
z
" transform="scale(0.015625)"/>
       </defs>
       <use xlink:href="#Arial-BoldMT-2212"/>
       <use xlink:href="#Arial-BoldMT-35" x="58.398438"/>
      </g>
     </g>
    </g>
    <g id="ytick_4">
     <g id="line2d_13">
      <g>
       <use xlink:href="#mf3505b143c" x="66.02" y="227.311716" style="stroke: #000000; stroke-width: 2"/>
      </g>
     </g>
     <g id="text_14">
      <!-- −4 -->
      <g transform="translate(34.716875 234.469528) scale(0.2 -0.2)">
       <defs>
        <path id="Arial-BoldMT-34" d="M 1994 0
L 1994 922
L 119 922
L 119 1691
L 2106 4600
L 2844 4600
L 2844 1694
L 3413 1694
L 3413 922
L 2844 922
L 2844 0
L 1994 0
z
M 1994 1694
L 1994 3259
L 941 1694
L 1994 1694
z
" transform="scale(0.015625)"/>
       </defs>
       <use xlink:href="#Arial-BoldMT-2212"/>
       <use xlink:href="#Arial-BoldMT-34" x="58.398438"/>
      </g>
     </g>
    </g>
    <g id="ytick_5">
     <g id="line2d_14">
      <g>
       <use xlink:href="#mf3505b143c" x="66.02" y="181.09297" style="stroke: #000000; stroke-width: 2"/>
      </g>
     </g>
     <g id="text_15">
      <!-- −3 -->
      <g transform="translate(34.716875 188.250782) scale(0.2 -0.2)">
       <use xlink:href="#Arial-BoldMT-2212"/>
       <use xlink:href="#Arial-BoldMT-33" x="58.398438"/>
      </g>
     </g>
    </g>
    <g id="ytick_6">
     <g id="line2d_15">
      <g>
       <use xlink:href="#mf3505b143c" x="66.02" y="134.874224" style="stroke: #000000; stroke-width: 2"/>
      </g>
     </g>
     <g id="text_16">
      <!-- −2 -->
      <g transform="translate(34.716875 142.032036) scale(0.2 -0.2)">
       <use xlink:href="#Arial-BoldMT-2212"/>
       <use xlink:href="#Arial-BoldMT-32" x="58.398438"/>
      </g>
     </g>
    </g>
    <g id="ytick_7">
     <g id="line2d_16">
      <g>
       <use xlink:href="#mf3505b143c" x="66.02" y="88.655478" style="stroke: #000000; stroke-width: 2"/>
      </g>
     </g>
     <g id="text_17">
      <!-- −1 -->
      <g transform="translate(34.716875 95.81329) scale(0.2 -0.2)">
       <use xlink:href="#Arial-BoldMT-2212"/>
       <use xlink:href="#Arial-BoldMT-31" x="58.398438"/>
      </g>
     </g>
    </g>
    <g id="ytick_8">
     <g id="line2d_17">
      <g>
       <use xlink:href="#mf3505b143c" x="66.02" y="42.436732" style="stroke: #000000; stroke-width: 2"/>
      </g>
     </g>
     <g id="text_18">
      <!-- 0 -->
      <g transform="translate(46.398125 49.594544) scale(0.2 -0.2)">
       <defs>
        <path id="Arial-BoldMT-30" d="M 1756 4600
Q 2422 4600 2797 4125
Q 3244 3563 3244 2259
Q 3244 959 2794 391
Q 2422 -78 1756 -78
Q 1088 -78 678 436
Q 269 950 269 2269
Q 269 3563 719 4131
Q 1091 4600 1756 4600
z
M 1756 3872
Q 1597 3872 1472 3770
Q 1347 3669 1278 3406
Q 1188 3066 1188 2259
Q 1188 1453 1269 1151
Q 1350 850 1473 750
Q 1597 650 1756 650
Q 1916 650 2041 751
Q 2166 853 2234 1116
Q 2325 1453 2325 2259
Q 2325 3066 2244 3367
Q 2163 3669 2039 3770
Q 1916 3872 1756 3872
z
" transform="scale(0.015625)"/>
       </defs>
       <use xlink:href="#Arial-BoldMT-30"/>
      </g>
     </g>
    </g>
    <g id="text_19">
     <!-- Energy (eV) -->
     <g transform="translate(26.297031 249.377187) rotate(-90) scale(0.21 -0.21)">
      <defs>
       <path id="Arial-BoldMT-45" d="M 466 0
L 466 4581
L 3863 4581
L 3863 3806
L 1391 3806
L 1391 2791
L 3691 2791
L 3691 2019
L 1391 2019
L 1391 772
L 3950 772
L 3950 0
L 466 0
z
" transform="scale(0.015625)"/>
       <path id="Arial-BoldMT-67" d="M 378 -219
L 1381 -341
Q 1406 -516 1497 -581
Q 1622 -675 1891 -675
Q 2234 -675 2406 -572
Q 2522 -503 2581 -350
Q 2622 -241 2622 53
L 2622 538
Q 2228 0 1628 0
Q 959 0 569 566
Q 263 1013 263 1678
Q 263 2513 664 2953
Q 1066 3394 1663 3394
Q 2278 3394 2678 2853
L 2678 3319
L 3500 3319
L 3500 341
Q 3500 -247 3403 -537
Q 3306 -828 3131 -993
Q 2956 -1159 2664 -1253
Q 2372 -1347 1925 -1347
Q 1081 -1347 728 -1058
Q 375 -769 375 -325
Q 375 -281 378 -219
z
M 1163 1728
Q 1163 1200 1367 954
Q 1572 709 1872 709
Q 2194 709 2416 961
Q 2638 1213 2638 1706
Q 2638 2222 2425 2472
Q 2213 2722 1888 2722
Q 1572 2722 1367 2476
Q 1163 2231 1163 1728
z
" transform="scale(0.015625)"/>
       <path id="Arial-BoldMT-79" d="M 44 3319
L 978 3319
L 1772 963
L 2547 3319
L 3456 3319
L 2284 125
L 2075 -453
Q 1959 -744 1854 -897
Q 1750 -1050 1614 -1145
Q 1478 -1241 1279 -1294
Q 1081 -1347 831 -1347
Q 578 -1347 334 -1294
L 256 -606
Q 463 -647 628 -647
Q 934 -647 1081 -467
Q 1228 -288 1306 -9
L 44 3319
z
" transform="scale(0.015625)"/>
       <path id="Arial-BoldMT-28" d="M 1916 -1347
L 1313 -1347
Q 834 -625 584 153
Q 334 931 334 1659
Q 334 2563 644 3369
Q 913 4069 1325 4659
L 1925 4659
Q 1497 3713 1336 3048
Q 1175 2384 1175 1641
Q 1175 1128 1270 590
Q 1366 53 1531 -431
Q 1641 -750 1916 -1347
z
" transform="scale(0.015625)"/>
       <path id="Arial-BoldMT-56" d="M 1634 0
L -3 4581
L 1000 4581
L 2159 1191
L 3281 4581
L 4263 4581
L 2622 0
L 1634 0
z
" transform="scale(0.015625)"/>
       <path id="Arial-BoldMT-29" d="M 216 -1347
Q 475 -791 581 -494
Q 688 -197 778 190
Q 869 578 912 926
Q 956 1275 956 1641
Q 956 2384 797 3048
Q 638 3713 209 4659
L 806 4659
Q 1278 3988 1539 3234
Q 1800 2481 1800 1706
Q 1800 1053 1594 306
Q 1359 -531 822 -1347
L 216 -1347
z
" transform="scale(0.015625)"/>
      </defs>
      <use xlink:href="#Arial-BoldMT-45"/>
      <use xlink:href="#Arial-BoldMT-6e" x="66.699219"/>
      <use xlink:href="#Arial-BoldMT-65" x="127.783203"/>
      <use xlink:href="#Arial-BoldMT-72" x="183.398438"/>
      <use xlink:href="#Arial-BoldMT-67" x="222.314453"/>
      <use xlink:href="#Arial-BoldMT-79" x="283.398438"/>
      <use xlink:href="#Arial-BoldMT-20" x="339.013672"/>
      <use xlink:href="#Arial-BoldMT-28" x="366.796875"/>
      <use xlink:href="#Arial-BoldMT-65" x="400.097656"/>
      <use xlink:href="#Arial-BoldMT-56" x="455.712891"/>
      <use xlink:href="#Arial-BoldMT-29" x="522.412109"/>
     </g>
    </g>
   </g>
   <g id="line2d_18">
    <path d="M 132.914743 42.436732
L 153.657299 42.436732
" clip-path="url(#p6674502ae6)" style="fill: none; stroke: #000000; stroke-width: 5; stroke-linecap: square"/>
   </g>
   <g id="line2d_19">
    <path d="M 215.884967 50.756106
L 236.627523 50.756106
" clip-path="url(#p6674502ae6)" style="fill: none; stroke: #000000; stroke-width: 5; stroke-linecap: square"/>
   </g>
   <g id="line2d_20">
    <path d="M 298.855191 41.512357
L 319.597747 41.512357
" clip-path="url(#p6674502ae6)" style="fill: none; stroke: #000000; stroke-width: 5; stroke-linecap: square"/>
   </g>
   <g id="line2d_21">
    <path d="M 381.825415 151.050785
L 402.567971 151.050785
" clip-path="url(#p6674502ae6)" style="fill: none; stroke: #000000; stroke-width: 5; stroke-linecap: square"/>
   </g>
   <g id="line2d_22">
    <path d="M 464.795639 146.891098
L 485.538195 146.891098
" clip-path="url(#p6674502ae6)" style="fill: none; stroke: #000000; stroke-width: 5; stroke-linecap: square"/>
   </g>
   <g id="line2d_23">
    <path d="M 547.765863 188.950156
L 568.508419 188.950156
" clip-path="url(#p6674502ae6)" style="fill: none; stroke: #000000; stroke-width: 5; stroke-linecap: square"/>
   </g>
   <g id="line2d_24">
    <path d="M 630.736087 192.647656
L 651.478643 192.647656
" clip-path="url(#p6674502ae6)" style="fill: none; stroke: #000000; stroke-width: 5; stroke-linecap: square"/>
   </g>
   <g id="line2d_25">
    <path d="M 713.706311 179.706407
L 734.448867 179.706407
" clip-path="url(#p6674502ae6)" style="fill: none; stroke: #000000; stroke-width: 5; stroke-linecap: square"/>
   </g>
   <g id="line2d_26">
    <path d="M 796.676535 354.875455
L 817.419091 354.875455
" clip-path="url(#p6674502ae6)" style="fill: none; stroke: #000000; stroke-width: 5; stroke-linecap: square"/>
   </g>
   <g id="line2d_27">
    <path d="M 153.657299 42.436732
L 215.884967 50.756106
" clip-path="url(#p6674502ae6)" style="fill: none; stroke-dasharray: 5.55,2.4; stroke-dashoffset: 0; stroke: #000000; stroke-width: 1.5"/>
   </g>
   <g id="line2d_28">
    <path d="M 236.627523 50.756106
L 298.855191 41.512357
" clip-path="url(#p6674502ae6)" style="fill: none; stroke-dasharray: 5.55,2.4; stroke-dashoffset: 0; stroke: #000000; stroke-width: 1.5"/>
   </g>
   <g id="line2d_29">
    <path d="M 319.597747 41.512357
L 381.825415 151.050785
" clip-path="url(#p6674502ae6)" style="fill: none; stroke-dasharray: 5.55,2.4; stroke-dashoffset: 0; stroke: #000000; stroke-width: 1.5"/>
   </g>
   <g id="line2d_30">
    <path d="M 402.567971 151.050785
L 464.795639 146.891098
" clip-path="url(#p6674502ae6)" style="fill: none; stroke-dasharray: 5.55,2.4; stroke-dashoffset: 0; stroke: #000000; stroke-width: 1.5"/>
   </g>
   <g id="line2d_31">
    <path d="M 485.538195 146.891098
L 547.765863 188.950156
" clip-path="url(#p6674502ae6)" style="fill: none; stroke-dasharray: 5.55,2.4; stroke-dashoffset: 0; stroke: #000000; stroke-width: 1.5"/>
   </g>
   <g id="line2d_32">
    <path d="M 568.508419 188.950156
L 630.736087 192.647656
" clip-path="url(#p6674502ae6)" style="fill: none; stroke-dasharray: 5.55,2.4; stroke-dashoffset: 0; stroke: #000000; stroke-width: 1.5"/>
   </g>
   <g id="line2d_33">
    <path d="M 651.478643 192.647656
L 713.706311 179.706407
" clip-path="url(#p6674502ae6)" style="fill: none; stroke-dasharray: 5.55,2.4; stroke-dashoffset: 0; stroke: #000000; stroke-width: 1.5"/>
   </g>
   <g id="line2d_34">
    <path d="M 734.448867 179.706407
L 796.676535 354.875455
" clip-path="url(#p6674502ae6)" style="fill: none; stroke-dasharray: 5.55,2.4; stroke-dashoffset: 0; stroke: #000000; stroke-width: 1.5"/>
   </g>
   <g id="line2d_35">
    <path d="M 101.800909 42.436732
" clip-path="url(#p6674502ae6)" style="fill: none; stroke: #000000; stroke-width: 2; stroke-linecap: square"/>
   </g>
   <g id="line2d_36">
    <path d="M 132.914743 42.436732
L 153.657299 42.436732
" clip-path="url(#p6674502ae6)" style="fill: none; stroke: #ed0345; stroke-width: 5; stroke-linecap: square"/>
   </g>
   <g id="line2d_37">
    <path d="M 215.884967 45.672044
L 236.627523 45.672044
" clip-path="url(#p6674502ae6)" style="fill: none; stroke: #ed0345; stroke-width: 5; stroke-linecap: square"/>
   </g>
   <g id="line2d_38">
    <path d="M 298.855191 27.184545
L 319.597747 27.184545
" clip-path="url(#p6674502ae6)" style="fill: none; stroke: #ed0345; stroke-width: 5; stroke-linecap: square"/>
   </g>
   <g id="line2d_39">
    <path d="M 381.825415 140.882661
L 402.567971 140.882661
" clip-path="url(#p6674502ae6)" style="fill: none; stroke: #ed0345; stroke-width: 5; stroke-linecap: square"/>
   </g>
   <g id="line2d_40">
    <path d="M 464.795639 139.033911
L 485.538195 139.033911
" clip-path="url(#p6674502ae6)" style="fill: none; stroke: #ed0345; stroke-width: 5; stroke-linecap: square"/>
   </g>
   <g id="line2d_41">
    <path d="M 547.765863 183.403907
L 568.508419 183.403907
" clip-path="url(#p6674502ae6)" style="fill: none; stroke: #ed0345; stroke-width: 5; stroke-linecap: square"/>
   </g>
   <g id="line2d_42">
    <path d="M 630.736087 182.941719
L 651.478643 182.941719
" clip-path="url(#p6674502ae6)" style="fill: none; stroke: #ed0345; stroke-width: 5; stroke-linecap: square"/>
   </g>
   <g id="line2d_43">
    <path d="M 713.706311 162.605471
L 734.448867 162.605471
" clip-path="url(#p6674502ae6)" style="fill: none; stroke: #ed0345; stroke-width: 5; stroke-linecap: square"/>
   </g>
   <g id="line2d_44">
    <path d="M 796.676535 349.791392
L 817.419091 349.791392
" clip-path="url(#p6674502ae6)" style="fill: none; stroke: #ed0345; stroke-width: 5; stroke-linecap: square"/>
   </g>
   <g id="line2d_45">
    <path d="M 153.657299 42.436732
L 215.884967 45.672044
" clip-path="url(#p6674502ae6)" style="fill: none; stroke-dasharray: 5.55,2.4; stroke-dashoffset: 0; stroke: #ed0345; stroke-width: 1.5"/>
   </g>
   <g id="line2d_46">
    <path d="M 236.627523 45.672044
L 298.855191 27.184545
" clip-path="url(#p6674502ae6)" style="fill: none; stroke-dasharray: 5.55,2.4; stroke-dashoffset: 0; stroke: #ed0345; stroke-width: 1.5"/>
   </g>
   <g id="line2d_47">
    <path d="M 319.597747 27.184545
L 381.825415 140.882661
" clip-path="url(#p6674502ae6)" style="fill: none; stroke-dasharray: 5.55,2.4; stroke-dashoffset: 0; stroke: #ed0345; stroke-width: 1.5"/>
   </g>
   <g id="line2d_48">
    <path d="M 402.567971 140.882661
L 464.795639 139.033911
" clip-path="url(#p6674502ae6)" style="fill: none; stroke-dasharray: 5.55,2.4; stroke-dashoffset: 0; stroke: #ed0345; stroke-width: 1.5"/>
   </g>
   <g id="line2d_49">
    <path d="M 485.538195 139.033911
L 547.765863 183.403907
" clip-path="url(#p6674502ae6)" style="fill: none; stroke-dasharray: 5.55,2.4; stroke-dashoffset: 0; stroke: #ed0345; stroke-width: 1.5"/>
   </g>
   <g id="line2d_50">
    <path d="M 568.508419 183.403907
L 630.736087 182.941719
" clip-path="url(#p6674502ae6)" style="fill: none; stroke-dasharray: 5.55,2.4; stroke-dashoffset: 0; stroke: #ed0345; stroke-width: 1.5"/>
   </g>
   <g id="line2d_51">
    <path d="M 651.478643 182.941719
L 713.706311 162.605471
" clip-path="url(#p6674502ae6)" style="fill: none; stroke-dasharray: 5.55,2.4; stroke-dashoffset: 0; stroke: #ed0345; stroke-width: 1.5"/>
   </g>
   <g id="line2d_52">
    <path d="M 734.448867 162.605471
L 796.676535 349.791392
" clip-path="url(#p6674502ae6)" style="fill: none; stroke-dasharray: 5.55,2.4; stroke-dashoffset: 0; stroke: #ed0345; stroke-width: 1.5"/>
   </g>
   <g id="line2d_53">
    <path d="M 101.800909 42.436732
" clip-path="url(#p6674502ae6)" style="fill: none; stroke: #ed0345; stroke-width: 2; stroke-linecap: square"/>
   </g>
   <g id="patch_3">
    <path d="M 66.02 371.26
L 66.02 10.8
" style="fill: none; stroke: #000000; stroke-width: 3; stroke-linejoin: miter; stroke-linecap: square"/>
   </g>
   <g id="patch_4">
    <path d="M 853.2 371.26
L 853.2 10.8
" style="fill: none; stroke: #000000; stroke-width: 3; stroke-linejoin: miter; stroke-linecap: square"/>
   </g>
   <g id="patch_5">
    <path d="M 66.02 371.26
L 853.2 371.26
" style="fill: none; stroke: #000000; stroke-width: 3; stroke-linejoin: miter; stroke-linecap: square"/>
   </g>
   <g id="patch_6">
    <path d="M 66.02 10.8
L 853.2 10.8
" style="fill: none; stroke: #000000; stroke-width: 3; stroke-linejoin: miter; stroke-linecap: square"/>
   </g>
   <g id="legend_1">
    <g id="line2d_54">
     <path d="M 694.16 31.28
L 710.16 31.28
L 726.16 31.28
" style="fill: none; stroke: #000000; stroke-width: 2; stroke-linecap: square"/>
    </g>
    <g id="text_20">
     <!-- clean $CeO_4$-t -->
     <g transform="translate(738.96 36.88) scale(0.16 -0.16)">
      <defs>
       <path id="Arial-BoldMT-6c" d="M 459 0
L 459 4581
L 1338 4581
L 1338 0
L 459 0
z
" transform="scale(0.015625)"/>
       <path id="Arial-BoldMT-43" d="M 3397 1684
L 4294 1400
Q 4088 650 3608 286
Q 3128 -78 2391 -78
Q 1478 -78 890 545
Q 303 1169 303 2250
Q 303 3394 893 4026
Q 1484 4659 2447 4659
Q 3288 4659 3813 4163
Q 4125 3869 4281 3319
L 3366 3100
Q 3284 3456 3026 3662
Q 2769 3869 2400 3869
Q 1891 3869 1573 3503
Q 1256 3138 1256 2319
Q 1256 1450 1568 1081
Q 1881 713 2381 713
Q 2750 713 3015 947
Q 3281 1181 3397 1684
z
" transform="scale(0.015625)"/>
       <path id="Arial-BoldMT-2d" d="M 359 1222
L 359 2100
L 2084 2100
L 2084 1222
L 359 1222
z
" transform="scale(0.015625)"/>
      </defs>
      <use xlink:href="#Arial-BoldMT-63" transform="translate(0 0.203125)"/>
      <use xlink:href="#Arial-BoldMT-6c" transform="translate(55.615234 0.203125)"/>
      <use xlink:href="#Arial-BoldMT-65" transform="translate(83.398438 0.203125)"/>
      <use xlink:href="#Arial-BoldMT-61" transform="translate(139.013672 0.203125)"/>
      <use xlink:href="#Arial-BoldMT-6e" transform="translate(194.628906 0.203125)"/>
      <use xlink:href="#Arial-BoldMT-20" transform="translate(255.712891 0.203125)"/>
      <use xlink:href="#Arial-BoldMT-43" transform="translate(283.496094 0.203125)"/>
      <use xlink:href="#Arial-BoldMT-65" transform="translate(355.712891 0.203125)"/>
      <use xlink:href="#Arial-BoldMT-4f" transform="translate(411.328125 0.203125)"/>
      <use xlink:href="#Arial-BoldMT-34" transform="translate(490.853672 -29.665625) scale(0.7)"/>
      <use xlink:href="#Arial-BoldMT-2d" transform="translate(534.762461 0.203125)"/>
      <use xlink:href="#Arial-BoldMT-74" transform="translate(568.063242 0.203125)"/>
     </g>
    </g>
    <g id="line2d_55">
     <path d="M 694.16 55.76
L 710.16 55.76
L 726.16 55.76
" style="fill: none; stroke: #ed0345; stroke-width: 2; stroke-linecap: square"/>
    </g>
    <g id="text_21">
     <!-- hydro $CeO_4$-t -->
     <g transform="translate(738.96 61.36) scale(0.16 -0.16)">
      <defs>
       <path id="Arial-BoldMT-68" d="M 1334 4581
L 1334 2897
Q 1759 3394 2350 3394
Q 2653 3394 2897 3281
Q 3141 3169 3264 2994
Q 3388 2819 3433 2606
Q 3478 2394 3478 1947
L 3478 0
L 2600 0
L 2600 1753
Q 2600 2275 2550 2415
Q 2500 2556 2373 2639
Q 2247 2722 2056 2722
Q 1838 2722 1666 2615
Q 1494 2509 1414 2295
Q 1334 2081 1334 1663
L 1334 0
L 456 0
L 456 4581
L 1334 4581
z
" transform="scale(0.015625)"/>
      </defs>
      <use xlink:href="#Arial-BoldMT-68" transform="translate(0 0.203125)"/>
      <use xlink:href="#Arial-BoldMT-79" transform="translate(61.083984 0.203125)"/>
      <use xlink:href="#Arial-BoldMT-64" transform="translate(116.699219 0.203125)"/>
      <use xlink:href="#Arial-BoldMT-72" transform="translate(177.783203 0.203125)"/>
      <use xlink:href="#Arial-BoldMT-6f" transform="translate(216.699219 0.203125)"/>
      <use xlink:href="#Arial-BoldMT-20" transform="translate(277.783203 0.203125)"/>
      <use xlink:href="#Arial-BoldMT-43" transform="translate(305.566406 0.203125)"/>
      <use xlink:href="#Arial-BoldMT-65" transform="translate(377.783203 0.203125)"/>
      <use xlink:href="#Arial-BoldMT-4f" transform="translate(433.398438 0.203125)"/>
      <use xlink:href="#Arial-BoldMT-34" transform="translate(512.923984 -29.665625) scale(0.7)"/>
      <use xlink:href="#Arial-BoldMT-2d" transform="translate(556.832773 0.203125)"/>
      <use xlink:href="#Arial-BoldMT-74" transform="translate(590.133555 0.203125)"/>
     </g>
    </g>
   </g>
  </g>
 </g>
 <defs>
  <clipPath id="p6674502ae6">
   <rect x="66.02" y="10.8" width="787.18" height="360.46"/>
  </clipPath>
 </defs>
</svg>
